<?xml version="1.0" encoding="UTF-8" standalone="no"?>
<svg xmlns="http://www.w3.org/2000/svg" height="2e3px" width="2400px" version="1.1" xmlns:xlink="http://www.w3.org/1999/xlink" viewBox="0 0 2400 2000">
 <title>bg-call_for_entries</title>
 <g fill-rule="evenodd" fill="none">
  <g stroke="#fff" stroke-width=".5">
   <path d="m-1525.9 2853.6v-3528.8l1468.2-1468.2h3528.8v3528.7l-1468.2 1468.3h-3528.8zm8.3-8.4v-3516.9l1463.4-1463.4h3517v3516.9l-1463.4 1463.4h-3517zm8.4-8.3v-3505.2l1458.4-1458.5h3505.2v3505.2l-1458.4 1458.5h-3505.2zm8.3-8.3v-3493.4l1453.6-1453.6h3493.4v3493.3l-1453.6 1453.7h-3493.4zm8.3-8.3v-3481.7l1448.7-1448.7h3481.7v3481.6l-1448.7 1448.8h-3481.7zm8.3-8.4v-3469.8l1443.9-1443.9h3469.9v3469.8l-1443.9 1443.9h-3469.9zm8.4-8.3v-3458.1l1438.9-1439h3458.1v3458.1l-1438.9 1439h-3458.1zm8.3-8.3v-3446.3l1434.1-1434.1h3446.3v3446.2l-1434.1 1434.2h-3446.3zm8.3-8.4v-3434.5l1429.2-1429.2h3434.6v3434.5l-1429.2 1429.2h-3434.6zm8.3-8.3v-3422.7l1424.4-1424.4h3422.7v3422.7l-1424.3 1424.4h-3422.8zm8.4-8.3v-3411l1419.4-1419.4h3411v3410.9l-1419.4 1419.5h-3411zm8.3-8.3v-3399.2l1414.6-1414.6h3399.2v3399.1l-1414.6 1414.7h-3399.2zm8.3-8.4v-3387.4l1409.7-1409.7h3387.5v3387.4l-1409.7 1409.7h-3387.5zm8.4-8.3v-3375.6l1404.8-1404.9h3375.6v3375.6l-1404.8 1404.9h-3375.6zm8.3-8.3v-3363.9l1399.9-1399.9h3363.9v3363.8l-1399.9 1400h-3363.9zm8.3-8.4v-3352l1395.1-1395.1h3352.1v3352l-1395.1 1395.1h-3352.1zm8.3-8.3v-3340.3l1390.2-1390.2h3340.3v3340.3l-1390.1 1390.2h-3340.4zm8.4-8.3v-3328.5l1385.3-1385.4h3328.5v3328.5l-1385.3 1385.4h-3328.5zm8.3-8.3v-3316.8l1380.4-1380.4h3316.8v3316.7l-1380.4 1380.5h-3316.8zm8.3-8.4v-3304.9l1375.6-1375.6h3305v3305l-1375.6 1375.5h-3305zm8.4-8.3v-3293.2l1370.6-1370.7h3293.2v3293.2l-1370.6 1370.7h-3293.2zm8.3-8.3v-3281.4l1365.8-1365.8h3281.4v3281.4l-1365.8 1365.8h-3281.4zm8.3-8.3v-3269.7l1360.9-1360.9h3269.7v3269.6l-1360.9 1361h-3269.7zm8.3-8.4v-3257.8l1356.1-1356.1h3257.8v3257.9l-1356 1356h-3257.9zm8.4-8.3v-3246.1l1351.1-1351.2h3246.1v3246.1l-1351.1 1351.2h-3246.1zm8.3-8.3v-3234.3l1346.3-1346.3h3234.3v3234.3l-1346.3 1346.3h-3234.3zm8.3-8.4v-3222.5l1341.4-1341.4h3222.6v3222.5l-1341.4 1341.4h-3222.6zm8.4-8.3v-3210.7l1336.5-1336.6h3210.7v3210.8l-1336.5 1336.5h-3210.7zm8.3-8.3v-3199l1331.6-1331.6h3199v3198.9l-1331.6 1331.7h-3199zm8.3-8.3v-3187.2l1326.8-1326.8h3187.2v3187.2l-1326.8 1326.8h-3187.2zm8.3-8.4v-3175.4l1321.9-1321.9h3175.5v3175.4l-1321.9 1321.9h-3175.5zm8.4-8.3v-3163.6l1317-1317.1h3163.6v3163.7l-1317 1317h-3163.6zm8.3-8.3v-3151.9l1312.1-1312.1h3151.9v3151.8l-1312.1 1312.2h-3151.9zm8.3-8.4v-3140l1307.3-1307.3h3140.1v3140.1l-1307.3 1307.2h-3140.1zm8.3-8.3v-3128.3l1302.4-1302.4h3128.3v3128.3l-1302.3 1302.4h-3128.4zm8.4-8.3v-3116.5l1297.5-1297.5h3116.5v3116.5l-1297.5 1297.5h-3116.5zm8.3-8.3v-3104.8l1292.6-1292.6h3104.8v3104.7l-1292.6 1292.7h-3104.8zm8.3-8.4v-3092.9l1287.8-1287.8h3093v3093l-1287.8 1287.7h-3093zm8.4-8.3v-3081.2l1282.8-1282.9h3081.2v3081.2l-1282.8 1282.9h-3081.2zm8.3-8.3v-3069.4l1278-1278h3069.4v3069.4l-1278 1278h-3069.4zm8.3-8.4v-3057.6l1273.1-1273.1h3057.7v3057.6l-1273.1 1273.1h-3057.7zm8.3-8.3v-3045.8l1268.3-1268.3h3045.8v3045.9l-1268.2 1268.2h-3045.9zm8.4-8.3v-3034.1l1263.3-1263.4h3034.1v3034.1l-1263.3 1263.4h-3034.1zm8.3-8.3v-3022.3l1258.5-1258.5h3022.3v3022.3l-1258.5 1258.5h-3022.3zm8.3-8.4v-3010.5l1253.6-1253.6h3010.6v3010.5l-1253.6 1253.6h-3010.6zm8.4-8.3v-2998.7l1248.7-1248.8h2998.7v2998.8l-1248.7 1248.7h-2998.7zm8.3-8.3v-2987l1243.8-1243.8h2987v2986.9l-1243.8 1243.9h-2987zm8.3-8.4v-2975.1l1239-1239h2975.2v2975.2l-1239 1238.9h-2975.2zm8.3-8.3v-2963.4l1234.1-1234.1h2963.4v2963.4l-1234 1234.1h-2963.5zm8.4-8.3v-2951.6l1229.2-1229.3h2951.6v2951.7l-1229.2 1229.2h-2951.6zm8.3-8.3v-2939.9l1224.3-1224.3h2939.9v2939.8l-1224.3 1224.4h-2939.9zm8.3-8.4v-2928l1219.4-1219.5h2928.2v2928.1l-1219.5 1219.4h-2928.1zm8.4-8.3v-2916.3l1214.5-1214.6h2916.3v2916.3l-1214.5 1214.6h-2916.3zm8.3-8.3v-2904.5l1209.6-1209.7h2904.6v2904.5l-1209.7 1209.7h-2904.5zm8.3-8.3v-2892.8l1204.8-1204.8h2892.8v2892.7l-1204.8 1204.9h-2892.8zm8.3-8.4v-2880.9l1200-1200h2880.9v2881l-1199.9 1199.9h-2881zm8.4-8.3v-2869.2l1195-1195.1h2869.2v2869.2l-1195 1195.1h-2869.2zm8.3-8.3v-2857.4l1190.2-1190.2h2857.4v2857.4l-1190.2 1190.2h-2857.4zm8.3-8.4v-2845.6l1185.3-1185.3h2845.7v2845.6l-1185.3 1185.3h-2845.7zm8.4-8.3v-2833.8l1180.4-1180.5h2833.8v2833.9l-1180.4 1180.4h-2833.8zm8.3-8.3v-2822.1l1175.5-1175.5h2822.1v2822l-1175.5 1175.6h-2822.1zm8.3-8.3v-2810.3l1170.6-1170.7h2810.4v2810.3l-1170.7 1170.7h-2810.3zm8.3-8.4v-2798.5l1165.8-1165.8h2798.5v2798.5l-1165.7 1165.8h-2798.6zm8.4-8.3v-2786.7l1160.8-1161h2786.8v2786.8l-1160.9 1160.9h-2786.7zm8.3-8.3v-2775l1156-1156h2775v2774.9l-1156 1156.1h-2775zm8.33-8.4v-2763.1l1151.1-1151.2h2763.3v2763.2l-1151.2 1151.1h-2763.2 0.03zm8.32-8.3v-2751.4l1146.2-1146.3h2751.4v2751.4l-1146.2 1146.3h-2751.4-0.05zm8.33-8.3v-2739.6l1141.4-1141.4h2739.6v2739.6l-1141.4 1141.4h-2739.6-0.02zm8.33-8.3v-2727.9l1136.5-1136.5h2727.9v2727.8l-1136.5 1136.6h-2727.9 0.01zm8.33-8.4v-2716l1131.6-1131.7h2716.2v2716.1l-1131.7 1131.6h-2716.1 0.04zm8.33-8.3v-2704.3l1126.7-1126.8h2704.3v2704.3l-1126.7 1126.8h-2704.3-0.03zm8.33-8.3v-2692.5l1121.8-1121.9h2692.6v2692.5l-1121.9 1121.9h-2692.5zm8.32-8.4v-2680.7l1117-1117h2680.8v2680.7l-1117 1117h-2680.8 0.02zm8.33-8.3v-2668.9l1112.1-1112.2h2669l-0.1 2669-1112 1112.1h-2669-0.05zm8.33-8.3v-2657.2l1107.2-1107.2h2657.2v2657.1l-1107.2 1107.3h-2657.2-0.02zm8.33-8.3v-2645.4l1102.3-1102.4h2645.5v2645.4l-1102.3 1102.4h-2645.5 0.01zm8.33-8.4v-2633.6l1097.4-1097.5h2633.8v2633.6l-1097.5 1097.5h-2633.7 0.04zm8.32-8.3v-2621.8l1092.6-1092.7h2621.8v2621.9l-1092.5 1092.6h-2621.9-0.04zm8.33-8.3v-2610.1l1087.7-1087.7h2610.1v2610l-1087.7 1087.8h-2610.1-0.01zm8.33-8.4v-2598.2l1082.8-1082.9h2598.4v2598.3l-1082.8 1082.8h-2598.4zm8.33-8.3v-2586.5l1077.9-1078h2586.6v2586.5l-1077.9 1078h-2586.6zm8.33-8.3v-2574.7l1073.1-1073.1h2574.7v2574.7l-1073 1073.1h-2574.8-0.02zm8.33-8.3v-2563l1068.2-1068.2h2563v2562.9l-1068.2 1068.3h-2563 0.01zm8.32-8.4v-2551.1l1063.3-1063.4h2551.3v2551.2l-1063.3 1063.3h-2551.3 0.03zm8.33-8.3v-2539.4l1058.4-1058.5h2539.4v2539.4l-1058.4 1058.5h-2539.4-0.04zm8.33-8.3v-2527.6l1053.6-1053.6h2527.6v2527.6l-1053.5 1053.6h-2527.7-0.01zm8.33-8.4v-2515.8l1048.7-1048.7h2515.9v2515.8l-1048.7 1048.7h-2515.9 0.02zm8.32-8.3v-2504l1043.8-1043.9h2504.1v2504.1l-1043.7 1043.8h-2504.2 0.04zm8.33-8.3v-2492.3l1038.9-1039h2492.3v2492.3l-1038.9 1039h-2492.3-0.03zm8.33-8.3v-2480.5l1034-1034.1h2480.6v2480.5l-1034 1034.1h-2480.6zm8.33-8.4v-2468.7l1029.2-1029.2h2468.8v2468.7l-1029.2 1029.2h-2468.8 0.03zm8.33-8.3v-2456.9l1024.3-1024.4h2456.9v2457l-1024.2 1024.3h-2457-0.04zm8.33-8.3v-2445.2l1019.4-1019.4h2445.2v2445.1l-1019.4 1019.5h-2445.2-0.01zm8.32-8.3v-2433.4l1014.5-1014.6h2433.5v2433.4l-1014.5 1014.6h-2433.5 0.01zm8.33-8.4v-2421.6l1009.6-1009.7h2421.8v2421.6l-1009.7 1009.7h-2421.7 0.04zm8.33-8.3v-2409.8l1004.8-1004.9h2409.8v2409.9l-1004.7 1004.8h-2409.9zm8.33-8.3v-2398.1l999.88-999.9h2398.1v2398l-999.9 1e3h-2398.1zm8.33-8.4v-2386.2l995-995.1h2386.4v2386.3l-995 995h-2386.4 0.03zm8.32-8.3v-2374.5l990.13-990.2h2374.5v2374.5l-990.1 990.2h-2374.6 0.05zm8.33-8.3v-2362.7l985.25-985.3h2362.8v2362.7l-985.2 985.3h-2362.8-0.02zm8.33-8.3v-2351l980.37-980.4h2351v2350.9l-980.4 980.5h-2351 0.01zm8.33-8.4v-2339.1l975.49-975.6h2339.3v2339.2l-975.5 975.5h-2339.3 0.04zm8.33-8.3v-2327.4l970.61-970.7h2327.4v2327.4l-970.6 970.7h-2327.4-0.03zm8.33-8.3v-2315.6l965.73-965.8h2315.7v2315.6l-965.7 965.8h-2315.7zm8.32-8.4v-2303.8l960.86-960.9h2303.9v2303.8l-960.9 960.9h-2303.9 0.02zm8.33-8.3v-2292l955.98-956.1h2292.1v2292.1l-955.9 956h-2292.2 0.05zm8.33-8.3v-2280.3l951.1-951.1h2280.3v2280.2l-951.1 951.2h-2280.3-0.02zm8.33-8.3v-2268.5l946.22-946.3h2268.6v2268.5l-946.2 946.3h-2268.6 0.01zm8.33-8.4v-2256.7l941.34-941.4h2256.8v2256.7l-941.4 941.4h-2256.8 0.04zm8.33-8.3v-2244.9l936.46-936.6h2245v2245l-936.4 936.5h-2245-0.03zm8.32-8.3v-2233.2l931.59-931.6h2233.2v2233.1l-931.6 931.7h-2233.2-0.01zm8.33-8.4v-2221.3l926.71-926.8h2221.5v2221.4l-926.7 926.7h-2221.5zm8.33-8.3v-2209.6l921.83-921.9h2209.6v2209.6l-921.8 921.9h-2209.6zm8.33-8.3v-2197.8l916.95-917h2197.9v2197.8l-916.9 917h-2197.9-0.02zm8.33-8.3v-2186.1l912.07-912.1h2186.1v2186l-912.1 912.2h-2186.1 0.01zm8.33-8.4v-2174.2l907.19-907.3h2174.4v2174.3l-907.2 907.2h-2174.4 0.04zm8.32-8.3v-2162.5l902.32-902.4h2162.5v2162.5l-902.3 902.4h-2162.5-0.04zm8.33-8.3v-2150.7l897.44-897.5h2150.8v2150.7l-897.4 897.5h-2150.8-0.01zm8.33-8.4v-2138.9l892.56-892.6h2139v2138.9l-892.6 892.6h-2139 0.02zm8.33-8.3v-2127.1l887.68-887.8h2127.2v2127.2l-887.6 887.7h-2127.2-0.05zm8.33-8.3v-2115.4l882.8-882.9h2115.4v2115.4l-882.8 882.9h-2115.4-0.02zm8.32-8.3v-2103.6l877.93-878h2103.7v2103.6l-877.9 878h-2103.7zm8.33-8.4v-2091.8l873.05-873.1h2091.9v2091.8l-873.1 873.1h-2091.9 0.03zm8.33-8.3v-2080l868.17-868.3h2080.1v2080.1l-868.1 868.2h-2080.1-0.04zm8.33-8.3v-2068.3l863.29-863.3h2068.3v2068.2l-863.3 863.4h-2068.3-0.01zm8.33-8.4v-2056.4l858.41-858.5h2056.6v2056.5l-858.4 858.4h-2056.6 0.02zm8.32-8.3v-2044.7l853.54-853.6h2044.7v2044.7l-853.5 853.6h-2044.8 0.04zm8.33-8.3v-2033l848.66-848.7h2033v2033l-848.6 848.7h-2033zm8.33-8.3v-2021.2l843.78-843.8h2021.2v2021.1l-843.8 843.9h-2021.2zm8.33-8.4v-2009.4l838.9-838.9h2009.5v2009.4l-838.9 838.9h-2009.5 0.03zm8.33-8.3v-1997.6l834.02-834.1h1997.6v1997.6l-834 834.1h-1997.6-0.04zm8.32-8.3v-1985.8l829.15-829.2h1985.9v1985.8l-829.1 829.2h-1985.9-0.02zm8.33-8.3v-1974.1l824.27-824.3h1974.1v1974l-824.3 824.4h-1974.1 0.01zm8.33-8.4v-1962.2l819.39-819.5h1962.4v1962.3l-819.4 819.4h-1962.4 0.04zm8.33-8.3v-1950.5l814.51-814.6h1950.5v1950.5l-814.5 814.6h-1950.5-0.03zm8.33-8.3v-1938.8l809.63-809.6h1938.8v1938.7l-809.6 809.7h-1938.8zm8.32-8.4v-1926.9l804.76-804.8h1927v1926.9l-804.8 804.8h-1927 0.02zm8.33-8.3v-1915.2l799.88-799.9h1915.2v1915.2l-799.8 799.9h-1915.2-0.05zm8.33-8.3v-1903.4l795-795.05h1903.4v1903.4l-795 795.05h-1903.4-0.02zm8.33-8.3v-1891.6l790.12-790.22h1891.7v1891.6l-790.1 790.22h-1891.7 0.01zm8.33-8.4v-1879.8l785.24-785.29h1879.9v1879.8l-785.3 785.29h-1879.9 0.04zm8.32-8.3v-1868l780.37-780.46h1868.1v1868l-780.3 780.46h-1868.1-0.04zm8.33-8.3v-1856.3l775.48-775.53h1856.3v1856.3l-775.5 775.53h-1856.3-0.01zm8.33-8.4v-1844.4l770.6-770.71h1844.6v1844.5l-770.6 770.61h-1844.6zm8.33-8.3v-1832.7l765.73-765.78h1832.7v1832.7l-765.7 765.78h-1832.8zm8.33-8.3v-1821l760.85-760.85h1821v1820.9l-760.8 760.95h-1821-0.02zm8.33-8.3v-1809.2l755.97-756.02h1809.2v1809.2l-756 756.02h-1809.2 0.01zm8.32-8.4v-1797.4l751.09-751.09h1797.5v1797.4l-751.1 751.09h-1797.5 0.03zm8.33-8.3v-1785.6l746.21-746.27h1785.6v1785.6l-746.2 746.27h-1785.6-0.04zm8.33-8.3v-1773.9l741.33-741.34h1773.9v1773.8l-741.3 741.44h-1773.9-0.01zm8.33-8.4v-1762l736.45-736.51h1762.1v1762.1l-736.5 736.41h-1762.1 0.02zm8.33-8.3v-1750.3l731.57-731.58h1750.3v1750.3l-731.5 731.58h-1750.4 0.05zm8.32-8.3v-1738.5l726.7-726.75h1738.5v1738.5l-726.7 726.75h-1738.5-0.03zm8.33-8.3v-1726.8l721.82-721.82h1726.8v1726.7l-721.8 721.92h-1726.8zm8.33-8.4v-1714.9l716.94-717h1715v1715l-717 716.9h-1715 0.03zm8.33-8.3v-1703.2l712.06-712.07h1703.2v1703.2l-712 712.07h-1703.2-0.04zm8.33-8.3v-1691.4l707.18-707.24h1691.4v1691.4l-707.2 707.24h-1691.4-0.01zm8.32-8.4v-1679.6l702.31-702.31h1679.7v1679.6l-702.3 702.31h-1679.7 0.01zm8.33-8.3v-1667.8l697.43-697.48h1667.8v1667.8l-697.4 697.48h-1667.9 0.04zm8.33-8.3v-1656.1l692.55-692.56h1656.1v1656.1l-692.5 692.56h-1656.1zm8.33-8.3v-1644.3l687.67-687.73h1644.3v1644.3l-687.7 687.73h-1644.3zm8.33-8.4v-1632.5l682.79-682.8h1632.6v1632.5l-682.8 682.8h-1632.6 0.03zm8.32-8.3v-1620.7l677.92-677.97h1620.7v1620.7l-677.9 677.97h-1620.8 0.05zm8.33-8.3v-1609l673.04-673.04h1609v1608.9l-673 673.14h-1609-0.02zm8.33-8.3v-1597.2l668.16-668.22h1597.2v1597.2l-668.2 668.22h-1597.2 0.01zm8.33-8.4v-1585.4l663.28-663.29h1585.5v1585.4l-663.3 663.29h-1585.5 0.04zm8.33-8.3v-1573.6l658.4-658.46h1573.6v1573.6l-658.4 658.46h-1573.6-0.03zm8.32-8.3v-1561.9l653.53-653.53h1561.9v1561.8l-653.5 653.63h-1561.9-0.01zm8.33-8.4v-1550l648.65-648.71h1550.1v1550.1l-648.7 648.61h-1550.1 0.02zm8.33-8.3v-1538.3l643.77-643.78h1538.3v1538.3l-643.7 643.78h-1538.4 0.05zm8.33-8.3v-1526.5l638.89-638.95h1526.5v1526.5l-638.9 638.95h-1526.5-0.02zm8.33-8.3v-1514.8l634.01-634.02h1514.8v1514.7l-634 634.12h-1514.8 0.01zm8.325-8.4v-1502.9l629.14-629.19h1503v1503l-629.2 629.09h-1503 0.035zm8.327-8.3v-1491.2l624.26-624.26h1491.2v1491.2l-624.2 624.26h-1491.2-0.038zm8.329-8.3v-1479.4l619.38-619.44h1479.4v1479.4l-619.4 619.44h-1479.4-0.009zm8.328-8.4v-1467.6l614.5-614.51h1467.7v1467.6l-614.5 614.51h-1467.7zm8.328-8.3v-1455.8l609.62-609.68h1455.8v1455.8l-609.6 609.68h-1455.9zm8.328-8.3v-1444.1l604.74-604.75h1444.1v1444.1l-604.7 604.75h-1444.1-0.025zm8.328-8.3v-1432.3l599.87-599.92h1432.3v1432.3l-599.9 599.92h-1432.3 0.003zm8.328-8.4v-1420.5l594.99-595h1420.6v1420.5l-595 595h-1420.6 0.031zm8.328-8.3v-1408.7l590.11-590.17h1408.7v1408.7l-590.1 590.17h-1408.7-0.041zm8.328-8.3v-1397l585.23-585.24h1397v1397l-585.2 585.24h-1397-0.013zm8.329-8.4v-1385.1l580.35-580.41h1385.2v1385.2l-580.4 580.31h-1385.2 0.016zm8.3278-8.3v-1373.4l575.48-575.48h1373.4v1373.4l-575.4 575.48h-1373.5 0.0438zm8.3282-8.3v-1361.6l570.6-570.66h1361.6v1361.6l-570.6 570.66h-1361.6-0.028zm8.328-8.3v-1349.9l565.72-565.73h1349.9v1349.8l-565.7 565.83h-1349.9zm8.328-8.4v-1338l560.84-560.9h1338.1v1338.1l-560.9 560.8h-1338.1 0.028zm8.329-8.3v-1326.3l555.96-555.97h1326.3v1326.3l-555.9 555.97h-1326.3-0.043zm8.328-8.3v-1314.5l551.08-551.14h1314.5v1314.5l-551.1 551.14h-1314.5-0.015zm8.328-8.3v-1302.8l546.2-546.21h1302.8v1302.7l-546.2 546.31h-1302.8 0.013zm8.328-8.4v-1290.9l541.32-541.39h1291v1291l-541.4 541.29h-1291 0.041zm8.328-8.3v-1279.2l536.44-536.46h1279.2v1279.2l-536.4 536.46h-1279.2zm8.328-8.3v-1267.4l531.56-531.63h1267.4v1267.4l-531.6 531.63h-1267.4zm8.328-8.4v-1255.6l526.68-526.7h1255.7v1255.6l-526.7 526.7h-1255.7 0.025zm8.328-8.3v-1243.8l521.81-521.87h1243.8v1243.8l-521.8 521.87h-1243.8-0.047zm8.329-8.3v-1232.1l516.93-516.95h1232.1v1232.1l-516.9 516.95h-1232.1-0.018zm8.328-8.3v-1220.3l512.05-512.12h1220.3v1220.3l-512.1 512.12h-1220.3 0.01zm8.33-8.4v-1208.5l507.17-507.19h1208.6v1208.5l-507.2 507.19h-1208.6 0.04zm8.33-8.3v-1196.7l502.29-502.36h1196.7v1196.7l-502.3 502.36h-1196.7-0.03zm8.32-8.3v-1185l497.42-497.43h1185v1185l-497.4 497.43h-1185zm8.33-8.4v-1173.1l492.54-492.61h1173.2v1173.2l-492.6 492.51h-1173.2zm8.33-8.3v-1161.4l487.66-487.68h1161.4v1161.4l-487.6 487.68h-1161.4-0.05zm8.33-8.3v-1149.6l482.78-482.85h1149.6v1149.6l-482.8 482.85h-1149.6-0.02zm8.33-8.3v-1137.9l477.9-477.92h1137.9v1137.8l-477.9 478.02h-1137.9 0.01zm8.32-8.4v-1126l473.03-473.09h1126.1v1126.1l-473.1 472.99h-1126.1 0.03zm8.33-8.3v-1114.3l468.15-468.16h1114.3v1114.3l-468.1 468.16h-1114.3-0.04zm8.33-8.3v-1102.5l463.27-463.34h1102.5v1102.5l-463.3 463.34h-1102.5-0.01zm8.33-8.4v-1090.7l458.39-458.41h1090.8v1090.7l-458.4 458.41h-1090.8 0.02zm8.33-8.3v-1078.9l453.51-453.58h1078.9v1079l-453.5 453.48h-1079 0.05zm8.32-8.3v-1067.2l448.64-448.65h1067.2v1067.2l-448.6 448.65h-1067.2-0.03zm8.33-8.3v-1055.4l443.76-443.82h1055.4v1055.4l-443.8 443.82h-1055.4zm8.33-8.4v-1043.6l438.88-438.9h1043.7v1043.6l-438.9 438.9h-1043.7 0.03zm8.33-8.3v-1031.8l434-434.07h1031.8v1031.8l-434 434.07h-1031.8-0.04zm8.33-8.3v-1020.1l429.12-429.14h1020.1v1020.1l-429.1 429.14h-1020.1-0.01zm8.32-8.4v-1008.2l424.25-424.31h1008.3v1008.3l-424.3 424.21h-1008.3 0.01zm8.33-8.3v-996.49l419.37-419.39h996.49v996.51l-419.3 419.37h-996.56zm8.33-8.3v-984.74l414.49-414.52h984.74v984.74l-414.5 414.52h-984.73zm8.33-8.3v-972.99l409.61-409.64h972.99v972.96l-409.6 409.67h-973zm8.33-8.4v-961.14l404.73-404.76h961.24v961.18l-404.8 404.72h-961.17zm8.32-8.3v-949.39l399.86-399.88h949.39v949.4l-399.8 399.87h-949.45zm8.33-8.3v-937.64l394.98-395h937.64v937.62l-395 395.02h-937.62zm8.33-8.3v-925.9l390.1-390.12h925.89v925.85l-390.1 390.17h-925.89zm8.33-8.4v-914.05l385.22-385.24h914.14v914.07l-385.3 385.22h-914.06zm8.33-8.3v-902.3l380.34-380.36h902.29v902.3l-380.3 380.36h-902.33zm8.33-8.33v-890.52l375.46-375.48h890.54v890.52l-375.5 375.48h-890.5zm8.32-8.33v-878.74l370.59-370.6h878.79v878.74l-370.6 370.6h-878.78zm8.33-8.33v-866.96l365.71-365.72h866.94v866.96l-365.7 365.72h-866.95zm8.33-8.33v-855.18l360.83-360.85h855.19v855.19l-360.8 360.84h-855.22zm8.33-8.32v-843.41l355.95-355.97h843.44v843.41l-356 355.97h-843.39zm8.33-8.33v-831.63l351.07-351.09h831.69v831.63l-351.1 351.09h-831.66zm8.32-8.33v-819.85l346.2-346.21h819.84v819.85l-346.2 346.21h-819.84zm8.33-8.33v-808.07l341.32-341.33h808.09v808.07l-341.3 341.33h-808.11zm8.33-8.33v-796.29l336.43-336.46h796.35v796.3l-336.5 336.45h-796.28zm8.33-8.32v-784.52l331.55-331.58h784.5v784.52l-331.5 331.58h-784.55zm8.33-8.33v-772.74l326.67-326.7h772.75v772.74l-326.7 326.7h-772.72zm8.32-8.33v-760.96l321.8-321.82h761v760.96l-321.8 321.82h-761zm8.33-8.33v-749.18l316.92-316.94h749.25v749.18l-317 316.94h-749.17zm8.33-8.33v-737.4l312.04-312.06h737.4v737.4l-312 312.06h-737.44zm8.33-8.32v-725.63l307.16-307.19h725.65v725.63l-307.2 307.19h-725.61zm8.33-8.33v-713.85l302.28-302.31h713.9v713.85l-302.3 302.31h-713.88zm8.33-8.33v-702.07l297.4-297.43h702.05v702.07l-297.4 297.43h-702.05zm8.32-8.33v-690.3l292.53-292.54h690.3v690.29l-292.5 292.55h-690.33zm8.33-8.33v-678.52l287.65-287.66h678.55v678.51l-287.7 287.67h-678.5zm8.33-8.33v-666.74l282.77-282.79h666.8v666.74l-282.8 282.79h-666.77zm8.33-8.32v-654.97l277.89-277.91h654.95v654.97l-277.9 277.91h-654.94zm8.33-8.33v-643.19l273.01-273.03h643.2v643.19l-273 273.03h-643.21zm8.32-8.33v-631.41l268.14-268.15 631.45-0.001v631.41l-268.2 268.15h-631.39zm8.33-8.33v-619.63l263.26-263.27 619.6-0.003v619.63l-263.2 263.27h-619.66zm8.33-8.33v-607.85l258.38-258.4 607.85 0.005v607.86l-258.4 258.39h-607.83zm8.33-8.33v-596.07l253.5-253.52 596.1 0.003v596.08l-253.5 253.51h-596.1zm8.33-8.32v-584.3l248.62-248.64 584.35 0.001v584.3l-248.7 248.64h-584.27zm8.33-8.33v-572.52l243.74-243.76 572.5-0.001v572.52l-243.7 243.76h-572.54zm8.32-8.33v-560.74l238.87-238.88 560.75-0.003v560.74l-238.9 238.88h-560.72zm8.33-8.33v-548.96l233.99-234 549-0.004v548.96l-234 234h-548.99zm8.33-8.33v-537.18l229.11-229.13 537.25 0.004v537.19l-229.2 229.12h-537.16zm8.33-8.32v-525.41l224.23-224.25 525.4 0.002v525.41l-224.2 224.25h-525.43zm8.33-8.33v-513.63l219.35-219.37h513.65v513.63l-219.4 219.37h-513.6zm8.33-8.33v-501.85l214.47-214.49 501.9-0.0015v501.85l-214.5 214.49h-501.87zm8.32-8.33v-490.07l209.6-209.61 490.05-0.0039v490.07l-209.6 209.61h-490.05zm8.33-8.33v-478.29l204.72-204.74 478.3 0.005v478.3l-204.7 204.72h-478.32zm8.33-8.33v-466.51l199.84-199.86 466.55 0.003v466.52l-199.9 199.85h-466.49zm8.33-8.32v-454.74l194.96-194.98 454.8 0.001v454.74l-195 194.98h-454.76zm8.33-8.33v-442.97l190.08-190.09 442.95-0.001v442.96l-190.1 190.1h-442.93zm8.32-8.33v-431.19l185.21-185.21 431.2-0.002v431.18l-185.2 185.22h-431.21zm8.33-8.33v-419.41l180.33-180.33 419.45-0.004v419.4l-180.4 180.34h-419.38zm8.33-8.33v-407.63l175.45-175.46 407.6 0.003v407.63l-175.4 175.46h-407.65zm8.33-8.32v-395.86l170.57-170.58 395.85 0.002v395.86l-170.6 170.58h-395.82zm8.33-8.33v-384.08l165.69-165.7h384.1v384.08l-165.7 165.7h-384.09zm8.32-8.33v-372.3l160.82-160.82 372.35-0.001v372.3l-160.9 160.82h-372.27zm8.33-8.33v-360.52l155.94-155.94 360.5-0.003v360.52l-155.9 155.94h-360.54zm8.33-8.33v-348.74l151.06-151.07h348.75v348.75l-151.1 151.06h-348.71zm8.33-8.32v-336.97l146.18-146.19h337v336.97l-146.2 146.19h-336.98zm8.33-8.33v-325.19l141.3-141.31h325.15v325.19l-141.3 141.31h-325.15zm8.33-8.33v-313.41l136.42-136.43h313.4v313.41l-136.4 136.43h-313.42zm8.32-8.33v-301.63l131.55-131.55h301.65v301.63l-131.6 131.55h-301.6zm8.33-8.33v-289.85l126.67-126.67h289.9v289.85l-126.7 126.67h-289.87zm8.33-8.33v-278.07l121.79-121.8h278.05v278.08l-121.8 121.79h-278.04zm8.33-8.32v-266.3l116.91-116.92h266.3v266.3l-116.9 116.92h-266.31zm8.33-8.33v-254.52l112.03-112.04h254.55v254.52l-112.1 112.04h-254.48zm8.32-8.33v-242.74l107.16-107.16h242.7v242.74l-107.1 107.16h-242.76zm8.33-8.33v-230.96l102.28-102.28h230.95v230.96l-102.3 102.28h-230.93zm8.33-8.33v-219.18l97.4-97.41h219.2v219.19l-97.4 97.4h-219.2zm8.33-8.33v-207.4l92.52-92.53h207.45v207.41l-92.6 92.52h-207.37zm8.33-8.32v-195.64l87.64-87.64h195.6v195.63l-87.6 87.65h-195.64zm8.33-8.33v-183.86l82.76-82.76h183.85v183.85l-82.8 82.77h-183.81zm8.32-8.33v-172.08l77.89-77.88h172.1v172.07l-77.9 77.89h-172.09zm8.33-8.33v-160.3l73.01-73h160.25v160.3l-73 73h-160.26zm8.33-8.33v-148.52l68.13-68.13h148.5v148.53l-68.1 68.12h-148.53zm8.33-8.32v-136.75l63.25-63.25h136.75v136.75l-63.3 63.25h-136.7zm8.33-8.33v-124.97l58.37-58.37h125v124.97l-58.4 58.37h-124.97zm8.32-8.33v-113.19l53.49-53.49h113.16v113.19l-53.5 53.49h-113.15zm8.33-8.33v-101.41l48.62-48.61h101.4v101.41l-48.6 48.61h-101.42zm8.33-8.33v-89.63l43.74-43.74h89.65v89.64l-43.75 43.73h-89.64zm8.33-8.33v-77.85l38.85-38.86h77.91v77.86l-38.9 38.85h-77.86zm8.33-8.32v-66.08l33.97-33.98h66.06v66.08l-33.95 33.98h-66.08zm8.33-8.33v-54.3l29.09-29.1h54.31v54.3l-29.1 29.1h-54.3zm8.32-8.33v-42.52l24.22-24.22h42.56v42.52l-24.25 24.22h-42.53zm8.33-8.33v-30.74l19.34-19.35h30.75v30.75l-19.34 19.34h-30.75zm8.33-8.33v-18.96l14.46-14.47h18.97v18.97l-14.46 14.46h-18.97zm8.33-15.51v7.19h7.19l9.58-9.59v-7.19h-7.19l-9.58 9.59z"/>
  </g>
 </g>
</svg>
