<?xml version="1.0" encoding="UTF-8" standalone="no"?>
<svg width="2400px" height="2000px" viewBox="0 0 2400 2000" version="1.1" xmlns="http://www.w3.org/2000/svg" xmlns:xlink="http://www.w3.org/1999/xlink">
    <title>bg-call_for_entries</title>
    <defs></defs>
    <g id="backgrounds" stroke="none" stroke-width="1" fill="none" fill-rule="evenodd">
        <g id="call-for-entries" stroke="#FFFFFF" stroke-width="0.5">
            <path d="M-1525.90433,2853.57011 L-1525.90433,-675.155983 L-57.6897655,-2143.42989 L3471.09508,-2143.42989 L3471.09508,1385.29561 L2002.8817,2853.57011 L-1525.90433,2853.57011 L-1525.90433,2853.57011 Z M-1517.57672,2845.24132 L-1517.57672,-671.706712 L-54.2399061,-2135.1017 L3462.76747,-2135.1017 L3462.76747,1381.84575 L1999.43184,2845.24132 L-1517.57672,2845.24132 L-1517.57672,2845.24132 Z M-1509.24793,2836.9143 L-1509.24793,-668.256852 L-50.7900467,-2126.7735 L3454.43927,-2126.7735 L3454.43927,1378.39589 L1995.98257,2836.9143 L-1509.24793,2836.9143 L-1509.24793,2836.9143 Z M-1500.91973,2828.58551 L-1500.91973,-664.806993 L-47.3401873,-2118.4453 L3446.11107,-2118.4453 L3446.11107,1374.94603 L1992.53271,2828.58551 L-1500.91973,2828.58551 L-1500.91973,2828.58551 Z M-1492.59212,2820.25731 L-1492.59212,-661.357133 L-43.8903279,-2110.11651 L3437.78229,-2110.11651 L3437.78229,1371.49676 L1989.08226,2820.25731 L-1492.59212,2820.25731 L-1492.59212,2820.25731 Z M-1484.26333,2811.92852 L-1484.26333,-657.906686 L-40.4404685,-2101.7889 L3429.45409,-2101.7889 L3429.45409,1368.04631 L1985.63358,2811.92852 L-1484.26333,2811.92852 L-1484.26333,2811.92852 Z M-1475.93513,2803.6015 L-1475.93513,-654.457415 L-36.9906091,-2093.4607 L3421.12648,-2093.4607 L3421.12648,1364.59763 L1982.18313,2803.6015 L-1475.93513,2803.6015 L-1475.93513,2803.6015 Z M-1467.60693,2795.2733 L-1467.60693,-651.007555 L-33.5413373,-2085.1325 L3412.79828,-2085.1325 L3412.79828,1361.14718 L1978.73386,2795.2733 L-1467.60693,2795.2733 L-1467.60693,2795.2733 Z M-1459.27873,2786.94451 L-1459.27873,-647.557696 L-30.0914779,-2076.8043 L3404.47008,-2076.8043 L3404.47008,1357.69732 L1975.28341,2786.94451 L-1459.27873,2786.94451 L-1459.27873,2786.94451 Z M-1450.95054,2778.61631 L-1450.95054,-644.107836 L-26.6416185,-2068.4761 L3396.14188,-2068.4761 L3396.14188,1354.24746 L1971.83355,2778.61631 L-1450.95054,2778.61631 L-1450.95054,2778.61631 Z M-1442.62292,2770.2887 L-1442.62292,-640.657977 L-23.1917591,-2060.1479 L3387.81368,-2060.1479 L3387.81368,1350.7976 L1968.38252,2770.2887 L-1442.62292,2770.2887 L-1442.62292,2770.2887 Z M-1434.29472,2761.95991 L-1434.29472,-637.208118 L-19.7418997,-2051.81912 L3379.48548,-2051.81912 L3379.48548,1347.34774 L1964.93266,2761.95991 L-1434.29472,2761.95991 L-1434.29472,2761.95991 Z M-1425.96653,2753.63172 L-1425.96653,-633.758846 L-16.2920403,-2043.4915 L3371.15728,-2043.4915 L3371.15728,1343.89788 L1961.4828,2753.63172 L-1425.96653,2753.63172 L-1425.96653,2753.63172 Z M-1417.63891,2745.30469 L-1417.63891,-630.308986 L-12.8421809,-2035.16389 L3362.82967,-2035.16389 L3362.82967,1340.44744 L1958.03235,2745.30469 L-1417.63891,2745.30469 L-1417.63891,2745.30469 Z M-1409.31071,2736.97591 L-1409.31071,-626.859127 L-9.39232155,-2026.83569 L3354.50206,-2026.83569 L3354.50206,1336.99816 L1954.58367,2736.97591 L-1409.31071,2736.97591 L-1409.31071,2736.97591 Z M-1400.98252,2728.64888 L-1400.98252,-623.409268 L-5.94246215,-2018.50749 L3346.17327,-2018.50749 L3346.17327,1333.54772 L1951.13498,2728.64888 L-1400.98252,2728.64888 Z M-1392.65432,2720.32009 L-1392.65432,-619.958821 L-2.49260275,-2010.1793 L3337.84566,-2010.1793 L3337.84566,1330.09903 L1947.68395,2720.32009 L-1392.65432,2720.32009 Z M-1384.3267,2711.9919 L-1384.3267,-616.509549 L0.957256654,-2001.85168 L3329.51805,-2001.85168 L3329.51805,1326.64859 L1944.23526,2711.9919 L-1384.3267,2711.9919 L-1384.3267,2711.9919 Z M-1375.99851,2703.66428 L-1375.99851,-613.059689 L4.40711605,-1993.52348 L3321.18985,-1993.52348 L3321.18985,1323.19873 L1940.7854,2703.66428 L-1375.99851,2703.66428 L-1375.99851,2703.66428 Z M-1367.67089,2695.3355 L-1367.67089,-609.60983 L7.85638785,-1985.19587 L3312.86165,-1985.19587 L3312.86165,1319.75004 L1937.33554,2695.3355 L-1367.67089,2695.3355 L-1367.67089,2695.3355 Z M-1359.3427,2687.00906 L-1359.3427,-606.160558 L11.3062472,-1976.86767 L3304.53345,-1976.86767 L3304.53345,1316.29959 L1933.88568,2687.00906 L-1359.3427,2687.00906 L-1359.3427,2687.00906 Z M-1351.0145,2678.68027 L-1351.0145,-602.710111 L14.7561066,-1968.53947 L3296.20643,-1968.53947 L3296.20643,1312.85032 L1930.43583,2678.68027 L-1351.0145,2678.68027 L-1351.0145,2678.68027 Z M-1342.68688,2670.35149 L-1342.68688,-599.260839 L18.205966,-1960.21186 L3287.87764,-1960.21186 L3287.87764,1309.39988 L1926.98538,2670.35149 L-1342.68688,2670.35149 L-1342.68688,2670.35149 Z M-1334.35869,2662.02446 L-1334.35869,-595.81098 L21.6546502,-1951.88425 L3279.54885,-1951.88425 L3279.54885,1305.95002 L1923.53611,2662.02446 L-1334.35869,2662.02446 L-1334.35869,2662.02446 Z M-1326.03107,2653.69568 L-1326.03107,-592.361121 L25.1050972,-1943.55546 L3271.22183,-1943.55546 L3271.22183,1302.50016 L1920.08566,2653.69568 L-1326.03107,2653.69568 L-1326.03107,2653.69568 Z M-1317.70229,2645.36806 L-1317.70229,-588.911849 L28.5555442,-1935.22785 L3262.89304,-1935.22785 L3262.89304,1299.0503 L1916.63639,2645.36806 L-1317.70229,2645.36806 L-1317.70229,2645.36806 Z M-1309.37468,2637.04045 L-1309.37468,-585.461402 L32.004816,-1926.90024 L3254.56602,-1926.90024 L3254.56602,1295.60044 L1913.18594,2637.04045 L-1309.37468,2637.04045 L-1309.37468,2637.04045 Z M-1301.04706,2628.71343 L-1301.04706,-582.011542 L35.4546754,-1918.57204 L3246.23723,-1918.57204 L3246.23723,1292.15058 L1909.73667,2628.71343 L-1301.04706,2628.71343 L-1301.04706,2628.71343 Z M-1292.71886,2620.38464 L-1292.71886,-578.561683 L38.9045348,-1910.24384 L3237.90903,-1910.24384 L3237.90903,1288.70072 L1906.28622,2620.38464 L-1292.71886,2620.38464 L-1292.71886,2620.38464 Z M-1284.39067,2612.05586 L-1284.39067,-575.111824 L42.3543942,-1901.91564 L3229.58083,-1901.91564 L3229.58083,1285.25262 L1902.83695,2612.05586 L-1284.39067,2612.05586 L-1284.39067,2612.05586 Z M-1276.06305,2603.72824 L-1276.06305,-571.662552 L45.8042536,-1893.58803 L3221.25322,-1893.58803 L3221.25322,1281.80218 L1899.38768,2603.72824 L-1276.06305,2603.72824 L-1276.06305,2603.72824 Z M-1267.73485,2595.40004 L-1267.73485,-568.212692 L49.254113,-1885.25983 L3212.92679,-1885.25983 L3212.92679,1278.3529 L1895.93782,2595.40004 L-1267.73485,2595.40004 Z M-1259.40666,2587.07302 L-1259.40666,-564.762833 L52.7033848,-1876.93163 L3204.59741,-1876.93163 L3204.59741,1274.90304 L1892.48855,2587.07302 L-1259.40666,2587.07302 Z M-1251.07846,2578.74482 L-1251.07846,-561.313561 L56.1532442,-1868.60402 L3196.2698,-1868.60402 L3196.2698,1271.45319 L1889.03751,2578.74482 L-1251.07846,2578.74482 L-1251.07846,2578.74482 Z M-1242.75084,2570.41721 L-1242.75084,-557.863702 L59.6031036,-1860.27582 L3187.94101,-1860.27582 L3187.94101,1268.00333 L1885.58824,2570.41721 L-1242.75084,2570.41721 L-1242.75084,2570.41721 Z M-1234.42265,2562.08842 L-1234.42265,-554.413842 L63.052963,-1851.9488 L3179.6134,-1851.9488 L3179.6134,1264.55347 L1882.13956,2562.08842 L-1234.42265,2562.08842 L-1234.42265,2562.08842 Z M-1226.09445,2553.7614 L-1226.09445,-550.963983 L66.5028224,-1843.62001 L3171.28579,-1843.62001 L3171.28579,1261.10184 L1878.6897,2553.7614 L-1226.09445,2553.7614 L-1226.09445,2553.7614 Z M-1217.76683,2545.43261 L-1217.76683,-547.514124 L69.9526818,-1835.2924 L3162.95759,-1835.2924 L3162.95759,1257.65257 L1875.23866,2545.43261 L-1217.76683,2545.43261 L-1217.76683,2545.43261 Z M-1209.43864,2537.10441 L-1209.43864,-544.064852 L73.4025412,-1826.9642 L3154.62939,-1826.9642 L3154.62939,1254.20213 L1871.7888,2537.10441 L-1209.43864,2537.10441 L-1209.43864,2537.10441 Z M-1201.10985,2528.77563 L-1201.10985,-540.614992 L76.8524006,-1818.63542 L3146.30002,-1818.63542 L3146.30002,1250.75285 L1868.33894,2528.77563 L-1201.10985,2528.77563 L-1201.10985,2528.77563 Z M-1192.78165,2520.44743 L-1192.78165,-537.165133 L80.30226,-1810.3078 L3137.97241,-1810.3078 L3137.97241,1247.30358 L1864.89026,2520.44743 L-1192.78165,2520.44743 L-1192.78165,2520.44743 Z M-1184.45345,2512.11864 L-1184.45345,-533.715274 L83.7509442,-1801.97902 L3129.64421,-1801.97902 L3129.64421,1243.85431 L1861.4404,2512.11864 L-1184.45345,2512.11864 L-1184.45345,2512.11864 Z M-1176.12466,2503.79103 L-1176.12466,-530.266002 L87.2008036,-1793.65082 L3121.3166,-1793.65082 L3121.3166,1240.40445 L1857.99054,2503.79103 L-1176.12466,2503.79103 L-1176.12466,2503.79103 Z M-1167.79646,2495.46342 L-1167.79646,-526.816142 L90.650663,-1785.32262 L3112.98781,-1785.32262 L3112.98781,1236.95459 L1854.54068,2495.46342 L-1167.79646,2495.46342 L-1167.79646,2495.46342 Z M-1159.46827,2487.13463 L-1159.46827,-523.366871 L94.1005224,-1776.99383 L3104.65961,-1776.99383 L3104.65961,1233.50473 L1851.09141,2487.13463 L-1159.46827,2487.13463 L-1159.46827,2487.13463 Z M-1151.14007,2478.80584 L-1151.14007,-519.916424 L97.5509694,-1768.66563 L3096.33024,-1768.66563 L3096.33024,1230.05546 L1847.64155,2478.80584 L-1151.14007,2478.80584 L-1151.14007,2478.80584 Z M-1142.81187,2470.47706 L-1142.81187,-516.466564 L100.999654,-1760.33685 L3088.00204,-1760.33685 L3088.00204,1226.60501 L1844.19169,2470.47706 L-1142.81187,2470.47706 L-1142.81187,2470.47706 Z M-1134.48308,2462.14945 L-1134.48308,-513.016705 L104.449513,-1752.00865 L3079.67384,-1752.00865 L3079.67384,1223.15574 L1840.74183,2462.14945 L-1134.48308,2462.14945 Z M-1126.15488,2453.82125 L-1126.15488,-509.567433 L107.899372,-1743.68104 L3071.34564,-1743.68104 L3071.34564,1219.70529 L1837.29197,2453.82125 L-1126.15488,2453.82125 Z M-1117.82609,2445.49246 L-1117.82609,-506.118161 L111.349232,-1735.35166 L3063.01685,-1735.35166 L3063.01685,1216.25543 L1833.84094,2445.49246 L-1117.82609,2445.49246 L-1117.82609,2445.49246 Z M-1109.49848,2437.16367 L-1109.49848,-502.668302 L114.799091,-1727.02405 L3054.68865,-1727.02405 L3054.68865,1212.80558 L1830.39284,2437.16367 L-1109.49848,2437.16367 L-1109.49848,2437.16367 Z M-1101.16911,2428.83547 L-1101.16911,-499.218442 L118.248951,-1718.69526 L3046.36045,-1718.69526 L3046.36045,1209.35689 L1826.94298,2428.83547 L-1101.16911,2428.83547 L-1101.16911,2428.83547 Z M-1092.84091,2420.50786 L-1092.84091,-495.768583 L121.69881,-1710.36706 L3038.03225,-1710.36706 L3038.03225,1205.90703 L1823.49312,2420.50786 L-1092.84091,2420.50786 L-1092.84091,2420.50786 Z M-1084.51271,2412.17966 L-1084.51271,-492.319311 L125.148669,-1702.03886 L3029.70405,-1702.03886 L3029.70405,1202.45717 L1820.04326,2412.17966 L-1084.51271,2412.17966 L-1084.51271,2412.17966 Z M-1076.18451,2403.85146 L-1076.18451,-488.869452 L128.598529,-1693.71008 L3021.37586,-1693.71008 L3021.37586,1199.00731 L1816.59399,2403.85146 L-1076.18451,2403.85146 L-1076.18451,2403.85146 Z M-1067.85631,2395.52268 L-1067.85631,-485.419592 L132.047213,-1685.38247 L3013.04824,-1685.38247 L3013.04824,1195.55804 L1813.14354,2395.52268 L-1067.85631,2395.52268 L-1067.85631,2395.52268 Z M-1059.52753,2387.19389 L-1059.52753,-481.969733 L135.497072,-1677.05368 L3004.71946,-1677.05368 L3004.71946,1192.10759 L1809.69427,2387.19389 L-1059.52753,2387.19389 L-1059.52753,2387.19389 Z M-1051.19933,2378.86569 L-1051.19933,-478.520461 L138.946932,-1668.72489 L2996.39126,-1668.72489 L2996.39126,1188.65832 L1806.24382,2378.86569 L-1051.19933,2378.86569 L-1051.19933,2378.86569 Z M-1042.87113,2370.53749 L-1042.87113,-475.070014 L142.396791,-1660.39728 L2988.06247,-1660.39728 L2988.06247,1185.20846 L1802.79455,2370.53749 L-1042.87113,2370.53749 L-1042.87113,2370.53749 Z M-1034.54234,2362.20929 L-1034.54234,-471.620742 L145.846651,-1652.06908 L2979.73427,-1652.06908 L2979.73427,1181.7586 L1799.34587,2362.20929 L-1034.54234,2362.20929 L-1034.54234,2362.20929 Z M-1026.21473,2353.88051 L-1026.21473,-468.170295 L149.297098,-1643.74147 L2971.40666,-1643.74147 L2971.40666,1178.31051 L1795.89601,2353.88051 L-1026.21473,2353.88051 L-1026.21473,2353.88051 Z M-1017.88594,2345.55289 L-1017.88594,-464.721024 L152.745782,-1635.41268 L2963.07846,-1635.41268 L2963.07846,1174.86006 L1792.44615,2345.55289 L-1017.88594,2345.55289 L-1017.88594,2345.55289 Z M-1009.55774,2337.2247 L-1009.55774,-461.271164 L156.195641,-1627.08448 L2954.74967,-1627.08448 L2954.74967,1171.4102 L1788.9957,2337.2247 L-1009.55774,2337.2247 L-1009.55774,2337.2247 Z M-1001.23013,2328.89591 L-1001.23013,-457.821892 L159.644913,-1618.75629 L2946.42148,-1618.75629 L2946.42148,1167.96034 L1785.54643,2328.89591 L-1001.23013,2328.89591 Z M-992.901932,2320.56771 L-992.901932,-454.372033 L163.094185,-1610.42809 L2938.09504,-1610.42809 L2938.09504,1164.51048 L1782.09657,2320.56771 L-992.901932,2320.56771 Z M-984.573733,2312.24069 L-984.573733,-450.922174 L166.544632,-1602.09989 L2929.76566,-1602.09989 L2929.76566,1161.06062 L1778.64612,2312.24069 L-984.573733,2312.24069 L-984.573733,2312.24069 Z M-976.245534,2303.9119 L-976.245534,-447.472314 L169.994491,-1593.77169 L2921.43688,-1593.77169 L2921.43688,1157.61135 L1775.19744,2303.9119 L-976.245534,2303.9119 L-976.245534,2303.9119 Z M-967.916747,2295.58311 L-967.916747,-444.023042 L173.444351,-1585.44349 L2913.10868,-1585.44349 L2913.10868,1154.1609 L1771.74876,2295.58311 L-967.916747,2295.58311 L-967.916747,2295.58311 Z M-959.589135,2287.25491 L-959.589135,-440.573183 L176.89421,-1577.11529 L2904.78165,-1577.11529 L2904.78165,1150.71163 L1768.29831,2287.25491 L-959.589135,2287.25491 L-959.589135,2287.25491 Z M-951.260936,2278.92671 L-951.260936,-437.123911 L180.343482,-1568.78709 L2896.45287,-1568.78709 L2896.45287,1147.26177 L1764.84904,2278.92671 L-951.260936,2278.92671 L-951.260936,2278.92671 Z M-942.932737,2270.59793 L-942.932737,-433.674052 L183.792754,-1560.45889 L2888.12526,-1560.45889 L2888.12526,1143.81309 L1761.39859,2270.59793 L-942.932737,2270.59793 L-942.932737,2270.59793 Z M-934.604538,2262.27032 L-934.604538,-430.224192 L187.242613,-1552.13069 L2879.79588,-1552.13069 L2879.79588,1140.36323 L1757.94991,2262.27032 L-934.604538,2262.27032 L-934.604538,2262.27032 Z M-926.276339,2253.94212 L-926.276339,-426.774921 L190.692472,-1543.80249 L2871.46827,-1543.80249 L2871.46827,1136.91337 L1754.49946,2253.94212 L-926.276339,2253.94212 L-926.276339,2253.94212 Z M-917.948139,2245.61392 L-917.948139,-423.325061 L194.142332,-1535.47429 L2863.13948,-1535.47429 L2863.13948,1133.46351 L1751.05078,2245.61392 L-917.948139,2245.61392 L-917.948139,2245.61392 Z M-909.619353,2237.28572 L-909.619353,-419.87579 L197.591016,-1527.14609 L2854.81187,-1527.14609 L2854.81187,1130.01365 L1747.60092,2237.28572 L-909.619353,2237.28572 L-909.619353,2237.28572 Z M-901.291741,2228.95811 L-901.291741,-416.425343 L201.041463,-1518.81731 L2846.48367,-1518.81731 L2846.48367,1126.5632 L1744.15047,2228.95811 L-901.291741,2228.95811 L-901.291741,2228.95811 Z M-892.962954,2220.62932 L-892.962954,-412.976071 L204.491322,-1510.4897 L2838.15606,-1510.4897 L2838.15606,1123.11393 L1740.7012,2220.62932 L-892.962954,2220.62932 L-892.962954,2220.62932 Z M-884.635343,2212.30053 L-884.635343,-409.526211 L207.941182,-1502.1615 L2829.82786,-1502.1615 L2829.82786,1119.66466 L1737.25134,2212.30053 L-884.635343,2212.30053 L-884.635343,2212.30053 Z M-876.307144,2203.97233 L-876.307144,-406.076352 L211.389866,-1493.8333 L2821.49849,-1493.8333 L2821.49849,1116.2148 L1733.80089,2203.97233 L-876.307144,2203.97233 L-876.307144,2203.97233 Z M-867.978944,2195.64413 L-867.978944,-402.626493 L214.840901,-1485.50627 L2813.17146,-1485.50627 L2813.17146,1112.76553 L1730.35103,2195.64413 L-867.978944,2195.64413 Z M-859.651333,2187.31711 L-859.651333,-399.176633 L218.289585,-1477.17749 L2804.84326,-1477.17749 L2804.84326,1109.31567 L1726.90176,2187.31711 L-859.651333,2187.31711 Z M-851.323134,2178.98832 L-851.323134,-395.727361 L221.739444,-1468.84988 L2796.51565,-1468.84988 L2796.51565,1105.8664 L1723.45308,2178.98832 L-851.323134,2178.98832 L-851.323134,2178.98832 Z M-842.994935,2170.65954 L-842.994935,-392.27809 L225.189891,-1460.52109 L2788.18745,-1460.52109 L2788.18745,1102.41771 L1720.00322,2170.65954 L-842.994935,2170.65954 L-842.994935,2170.65954 Z M-834.667323,2162.33193 L-834.667323,-388.82823 L228.637988,-1452.19348 L2779.85984,-1452.19348 L2779.85984,1098.96727 L1716.55336,2162.33193 L-834.667323,2162.33193 L-834.667323,2162.33193 Z M-826.339124,2154.00373 L-826.339124,-385.378958 L232.087847,-1443.86528 L2771.53164,-1443.86528 L2771.53164,1095.51799 L1713.1035,2154.00373 L-826.339124,2154.00373 L-826.339124,2154.00373 Z M-818.010925,2145.67553 L-818.010925,-381.928511 L235.537707,-1435.53708 L2763.20403,-1435.53708 L2763.20403,1092.06755 L1709.6554,2145.67553 L-818.010925,2145.67553 L-818.010925,2145.67553 Z M-809.682726,2137.34733 L-809.682726,-378.479827 L238.986978,-1427.20947 L2754.87583,-1427.20947 L2754.87583,1088.61769 L1706.20495,2137.34733 L-809.682726,2137.34733 L-809.682726,2137.34733 Z M-801.355114,2129.01972 L-801.355114,-375.029968 L242.436838,-1418.88186 L2746.54705,-1418.88186 L2746.54705,1085.16959 L1702.75509,2129.01972 L-801.355114,2129.01972 L-801.355114,2129.01972 Z M-793.027502,2120.69093 L-793.027502,-371.580696 L245.886697,-1410.55366 L2738.21826,-1410.55366 L2738.21826,1081.71914 L1699.30465,2120.69093 L-793.027502,2120.69093 L-793.027502,2120.69093 Z M-784.698716,2112.36273 L-784.698716,-368.130249 L249.335969,-1402.22546 L2729.89006,-1402.22546 L2729.89006,1078.26987 L1695.85538,2112.36273 L-784.698716,2112.36273 L-784.698716,2112.36273 Z M-776.370516,2104.03571 L-776.370516,-364.680977 L252.785241,-1393.89726 L2721.56304,-1393.89726 L2721.56304,1074.81943 L1692.40728,2104.03571 L-776.370516,2104.03571 L-776.370516,2104.03571 Z M-768.042317,2095.70692 L-768.042317,-361.231118 L256.2351,-1385.56906 L2713.23484,-1385.56906 L2713.23484,1071.36957 L1688.95624,2095.70692 L-768.042317,2095.70692 L-768.042317,2095.70692 Z M-759.714706,2087.37931 L-759.714706,-357.781846 L259.684959,-1377.24086 L2704.90723,-1377.24086 L2704.90723,1067.92029 L1685.50697,2087.37931 L-759.714706,2087.37931 L-759.714706,2087.37931 Z M-751.387094,2079.05111 L-751.387094,-354.331987 L263.134819,-1368.91325 L2696.57844,-1368.91325 L2696.57844,1064.47161 L1682.05711,2079.05111 L-751.387094,2079.05111 L-751.387094,2079.05111 Z M-743.058895,2070.72291 L-743.058895,-350.882127 L266.584091,-1360.58505 L2688.25083,-1360.58505 L2688.25083,1061.02116 L1678.60784,2070.72291 L-743.058895,2070.72291 L-743.058895,2070.72291 Z M-734.730696,2062.39471 L-734.730696,-347.432268 L270.03395,-1352.25685 L2679.92322,-1352.25685 L2679.92322,1057.57248 L1675.15798,2062.39471 L-734.730696,2062.39471 Z M-726.402497,2054.0671 L-726.402497,-343.982996 L273.483809,-1343.92865 L2671.59443,-1343.92865 L2671.59443,1054.12203 L1671.7093,2054.0671 L-726.402497,2054.0671 Z M-718.07371,2045.73831 L-718.07371,-340.533137 L276.933081,-1335.60045 L2663.26623,-1335.60045 L2663.26623,1050.67276 L1668.25944,2045.73831 L-718.07371,2045.73831 L-718.07371,2045.73831 Z M-709.745511,2037.40953 L-709.745511,-337.08269 L280.383528,-1327.27166 L2654.93744,-1327.27166 L2654.93744,1047.22349 L1664.80958,2037.40953 L-709.745511,2037.40953 L-709.745511,2037.40953 Z M-701.417312,2029.08133 L-701.417312,-333.634593 L283.832212,-1318.94347 L2646.60924,-1318.94347 L2646.60924,1043.77363 L1661.35972,2029.08133 L-701.417312,2029.08133 L-701.417312,2029.08133 Z M-693.088525,2020.75313 L-693.088525,-330.184734 L287.282072,-1310.61527 L2638.27987,-1310.61527 L2638.27987,1040.32318 L1657.90927,2020.75313 L-693.088525,2020.75313 L-693.088525,2020.75313 Z M-684.760326,2012.42493 L-684.760326,-326.734874 L290.731931,-1302.28707 L2629.95226,-1302.28707 L2629.95226,1036.87391 L1654.46,2012.42493 L-684.760326,2012.42493 L-684.760326,2012.42493 Z M-676.432127,2004.09614 L-676.432127,-323.285602 L294.181203,-1293.95887 L2621.62347,-1293.95887 L2621.62347,1033.42346 L1651.01132,2004.09614 L-676.432127,2004.09614 L-676.432127,2004.09614 Z M-668.103927,1995.76912 L-668.103927,-319.835155 L297.631062,-1285.63008 L2613.29527,-1285.63008 L2613.29527,1029.97537 L1647.56087,1995.76912 L-668.103927,1995.76912 L-668.103927,1995.76912 Z M-659.775141,1987.44092 L-659.775141,-316.385884 L301.080922,-1277.30188 L2604.96648,-1277.30188 L2604.96648,1026.52551 L1644.11101,1987.44092 L-659.775141,1987.44092 L-659.775141,1987.44092 Z M-651.446941,1979.11154 L-651.446941,-312.936612 L304.530781,-1268.9731 L2596.6377,-1268.9731 L2596.6377,1023.07565 L1640.66115,1979.11154 L-651.446941,1979.11154 L-651.446941,1979.11154 Z M-643.118742,1970.78334 L-643.118742,-309.486165 L307.980053,-1260.64548 L2588.3095,-1260.64548 L2588.3095,1019.62579 L1637.21188,1970.78334 L-643.118742,1970.78334 L-643.118742,1970.78334 Z M-634.790543,1962.45515 L-634.790543,-306.038068 L311.429325,-1252.31728 L2579.9813,-1252.31728 L2579.9813,1016.17652 L1633.76202,1962.45515 L-634.790543,1962.45515 L-634.790543,1962.45515 Z M-626.461756,1954.12636 L-626.461756,-302.587621 L314.879184,-1243.9885 L2571.65428,-1243.9885 L2571.65428,1012.72842 L1630.31334,1954.12636 L-626.461756,1954.12636 L-626.461756,1954.12636 Z M-618.134145,1945.79757 L-618.134145,-299.138349 L318.329044,-1235.6603 L2563.32549,-1235.6603 L2563.32549,1009.27797 L1626.8623,1945.79757 L-618.134145,1945.79757 L-618.134145,1945.79757 Z M-609.805946,1937.47114 L-609.805946,-295.68849 L321.778903,-1227.3321 L2554.99729,-1227.3321 L2554.99729,1005.82811 L1623.41303,1937.47114 L-609.805946,1937.47114 L-609.805946,1937.47114 Z M-601.478334,1929.14294 L-601.478334,-292.239218 L325.229938,-1219.0039 L2546.66792,-1219.0039 L2546.66792,1002.37825 L1619.96317,1929.14294 L-601.478334,1929.14294 Z M-593.14896,1920.81415 L-593.14896,-288.789359 L328.679797,-1210.67629 L2538.34089,-1210.67629 L2538.34089,998.92957 L1616.51331,1920.81415 L-593.14896,1920.81415 Z M-584.821348,1912.48478 L-584.821348,-285.340675 L332.129656,-1202.3475 L2530.01328,-1202.3475 L2530.01328,995.479123 L1613.06286,1912.48478 L-584.821348,1912.48478 L-584.821348,1912.48478 Z M-576.493149,1904.15775 L-576.493149,-281.890228 L335.578341,-1194.01989 L2521.68449,-1194.01989 L2521.68449,992.029851 L1609.61359,1904.15775 L-576.493149,1904.15775 L-576.493149,1904.15775 Z M-568.164362,1895.82955 L-568.164362,-278.440956 L339.0282,-1185.6911 L2513.35571,-1185.6911 L2513.35571,988.579404 L1606.16314,1895.82955 L-568.164362,1895.82955 L-568.164362,1895.82955 Z M-559.836751,1887.50135 L-559.836751,-274.991096 L342.478647,-1177.3629 L2505.0281,-1177.3629 L2505.0281,985.130133 L1602.71328,1887.50135 L-559.836751,1887.50135 L-559.836751,1887.50135 Z M-551.508551,1879.17257 L-551.508551,-271.541825 L345.928506,-1169.03471 L2496.6999,-1169.03471 L2496.6999,981.681449 L1599.26343,1879.17257 L-551.508551,1879.17257 L-551.508551,1879.17257 Z M-543.180352,1870.84554 L-543.180352,-268.091965 L349.379541,-1160.70651 L2488.37111,-1160.70651 L2488.37111,978.231589 L1595.81239,1870.84554 L-543.180352,1870.84554 L-543.180352,1870.84554 Z M-534.852153,1862.51676 L-534.852153,-264.642106 L352.8294,-1152.37889 L2480.04291,-1152.37889 L2480.04291,974.781142 L1592.36194,1862.51676 L-534.852153,1862.51676 L-534.852153,1862.51676 Z M-526.523954,1854.18797 L-526.523954,-261.193422 L356.27926,-1144.0507 L2471.71589,-1144.0507 L2471.71589,971.332458 L1588.91326,1854.18797 L-526.523954,1854.18797 L-526.523954,1854.18797 Z M-518.195755,1845.86036 L-518.195755,-257.743562 L359.729119,-1135.7225 L2463.3871,-1135.7225 L2463.3871,967.883186 L1585.4634,1845.86036 L-518.195755,1845.86036 L-518.195755,1845.86036 Z M-509.868143,1837.53275 L-509.868143,-254.293703 L363.177803,-1127.3943 L2455.05831,-1127.3943 L2455.05831,964.433914 L1582.01354,1837.53275 L-509.868143,1837.53275 L-509.868143,1837.53275 Z M-501.539357,1829.20396 L-501.539357,-250.843843 L366.627663,-1119.06669 L2446.73129,-1119.06669 L2446.73129,960.983467 L1578.56309,1829.20396 L-501.539357,1829.20396 L-501.539357,1829.20396 Z M-493.211745,1820.87694 L-493.211745,-247.395159 L370.077522,-1110.7379 L2438.40309,-1110.7379 L2438.40309,957.533608 L1575.11441,1820.87694 L-493.211745,1820.87694 L-493.211745,1820.87694 Z M-484.883546,1812.54874 L-484.883546,-243.944712 L373.529144,-1102.4097 L2430.0743,-1102.4097 L2430.0743,954.083749 L1571.66396,1812.54874 L-484.883546,1812.54874 L-484.883546,1812.54874 Z M-476.555347,1804.21995 L-476.555347,-240.496028 L376.979004,-1094.08268 L2421.74669,-1094.08268 L2421.74669,950.635064 L1568.21469,1804.21995 L-476.555347,1804.21995 L-476.555347,1804.21995 Z M-468.227147,1795.89234 L-468.227147,-237.046169 L380.428863,-1085.75389 L2413.41849,-1085.75389 L2413.41849,947.185205 L1564.76424,1795.89234 L-468.227147,1795.89234 Z M-459.899536,1787.56414 L-459.899536,-233.596309 L383.878723,-1077.42628 L2405.09147,-1077.42628 L2405.09147,943.735346 L1561.31321,1787.56414 L-459.899536,1787.56414 Z M-451.571337,1779.23535 L-451.571337,-230.147038 L387.328582,-1069.09808 L2396.76268,-1069.09808 L2396.76268,940.284899 L1557.86335,1779.23535 L-451.571337,1779.23535 L-451.571337,1779.23535 Z M-443.243138,1770.90774 L-443.243138,-226.697766 L390.777266,-1060.76988 L2388.43448,-1060.76988 L2388.43448,936.836802 L1554.41349,1770.90774 L-443.243138,1770.90774 L-443.243138,1770.90774 Z M-434.915526,1762.58013 L-434.915526,-223.247319 L394.227126,-1052.44168 L2380.10687,-1052.44168 L2380.10687,933.38753 L1550.96363,1762.58013 L-434.915526,1762.58013 L-434.915526,1762.58013 Z M-426.587327,1754.2531 L-426.587327,-219.798635 L397.676985,-1044.11348 L2371.77808,-1044.11348 L2371.77808,929.937083 L1547.51377,1754.2531 L-426.587327,1754.2531 L-426.587327,1754.2531 Z M-418.259715,1745.92432 L-418.259715,-216.348775 L401.12802,-1035.78646 L2363.45047,-1035.78646 L2363.45047,926.488399 L1544.06391,1745.92432 L-418.259715,1745.92432 L-418.259715,1745.92432 Z M-409.931516,1737.59671 L-409.931516,-212.899503 L404.576704,-1027.45767 L2355.12286,-1027.45767 L2355.12286,923.039127 L1540.61464,1737.59671 L-409.931516,1737.59671 L-409.931516,1737.59671 Z M-401.603317,1729.26792 L-401.603317,-209.449644 L408.026563,-1019.13006 L2346.79584,-1019.13006 L2346.79584,919.589268 L1537.16419,1729.26792 L-401.603317,1729.26792 L-401.603317,1729.26792 Z M-393.275705,1720.93972 L-393.275705,-206.000372 L411.476423,-1010.80245 L2338.46705,-1010.80245 L2338.46705,916.139408 L1533.71492,1720.93972 L-393.275705,1720.93972 L-393.275705,1720.93972 Z M-384.947506,1712.6127 L-384.947506,-202.550513 L414.92687,-1002.47425 L2330.14003,-1002.47425 L2330.14003,912.689549 L1530.26506,1712.6127 L-384.947506,1712.6127 L-384.947506,1712.6127 Z M-376.619307,1704.2845 L-376.619307,-199.101829 L418.376729,-994.146049 L2321.81065,-994.146049 L2321.81065,909.240277 L1526.81462,1704.2845 L-376.619307,1704.2845 L-376.619307,1704.2845 Z M-368.291696,1695.9563 L-368.291696,-195.651382 L421.826588,-985.81785 L2313.48363,-985.81785 L2313.48363,905.791005 L1523.36476,1695.9563 L-368.291696,1695.9563 L-368.291696,1695.9563 Z M-359.964084,1687.62751 L-359.964084,-192.201522 L425.276448,-977.490826 L2305.15602,-977.490826 L2305.15602,902.340558 L1519.91548,1687.62751 L-359.964084,1687.62751 L-359.964084,1687.62751 Z M-351.635297,1679.2999 L-351.635297,-188.75225 L428.726307,-969.162627 L2296.8284,-969.162627 L2296.8284,898.891287 L1516.46562,1679.2999 L-351.635297,1679.2999 L-351.635297,1679.2999 Z M-343.307686,1670.97288 L-343.307686,-185.302979 L432.174991,-960.83384 L2288.49962,-960.83384 L2288.49962,895.442602 L1513.01577,1670.97288 L-343.307686,1670.97288 L-343.307686,1670.97288 Z M-334.979487,1662.64409 L-334.979487,-181.853707 L435.624851,-952.506228 L2280.17083,-952.506228 L2280.17083,891.992743 L1509.56591,1662.64409 L-334.979487,1662.64409 Z M-326.651287,1654.3153 L-326.651287,-178.403847 L439.075298,-944.178029 L2271.84204,-944.178029 L2271.84204,888.542884 L1506.11605,1654.3153 L-326.651287,1654.3153 Z M-318.323088,1645.9871 L-318.323088,-174.954576 L442.525157,-935.84983 L2263.51502,-935.84983 L2263.51502,885.093612 L1502.6656,1645.9871 L-318.323088,1645.9871 L-318.323088,1645.9871 Z M-309.994889,1637.65949 L-309.994889,-171.504716 L445.975017,-927.521631 L2255.18682,-927.521631 L2255.18682,881.644928 L1499.21692,1637.65949 L-309.994889,1637.65949 L-309.994889,1637.65949 Z M-301.666102,1629.3307 L-301.666102,-168.056032 L449.424876,-919.193432 L2246.85862,-919.193432 L2246.85862,878.195068 L1495.76647,1629.3307 L-301.666102,1629.3307 L-301.666102,1629.3307 Z M-293.338491,1621.00309 L-293.338491,-164.606173 L452.874735,-910.865232 L2238.52984,-910.865232 L2238.52984,874.745209 L1492.31661,1621.00309 L-293.338491,1621.00309 L-293.338491,1621.00309 Z M-285.010879,1612.67431 L-285.010879,-161.156901 L456.324595,-902.536446 L2230.20222,-902.536446 L2230.20222,871.295349 L1488.86675,1612.67431 L-285.010879,1612.67431 L-285.010879,1612.67431 Z M-276.68268,1604.3467 L-276.68268,-157.707041 L459.774454,-894.208834 L2221.87344,-894.208834 L2221.87344,867.846665 L1485.41689,1604.3467 L-276.68268,1604.3467 L-276.68268,1604.3467 Z M-268.354481,1596.01791 L-268.354481,-154.25777 L463.224314,-885.880635 L2213.54583,-885.880635 L2213.54583,864.396218 L1481.96703,1596.01791 L-268.354481,1596.01791 L-268.354481,1596.01791 Z M-260.026282,1587.6903 L-260.026282,-150.80791 L466.674173,-877.553023 L2205.21821,-877.553023 L2205.21821,860.946946 L1478.51776,1587.6903 L-260.026282,1587.6903 L-260.026282,1587.6903 Z M-251.697495,1579.36327 L-251.697495,-147.358638 L470.124032,-869.224824 L2196.88943,-869.224824 L2196.88943,857.497675 L1475.0679,1579.36327 L-251.697495,1579.36327 L-251.697495,1579.36327 Z M-243.369883,1571.0339 L-243.369883,-143.908779 L473.573892,-860.896625 L2188.56123,-860.896625 L2188.56123,854.047815 L1471.61804,1571.0339 L-243.369883,1571.0339 L-243.369883,1571.0339 Z M-235.042859,1562.7057 L-235.042859,-140.459507 L477.023164,-852.569013 L2180.2342,-852.569013 L2180.2342,850.598543 L1468.16818,1562.7057 L-235.042859,1562.7057 L-235.042859,1562.7057 Z M-226.713485,1554.37809 L-226.713485,-137.009648 L480.473611,-844.240814 L2171.90542,-844.240814 L2171.90542,847.148684 L1464.71832,1554.37809 L-226.713485,1554.37809 L-226.713485,1554.37809 Z M-218.385873,1546.04989 L-218.385873,-133.560376 L483.92347,-835.912615 L2163.57663,-835.912615 L2163.57663,843.699412 L1461.26846,1546.04989 L-218.385873,1546.04989 L-218.385873,1546.04989 Z M-210.057674,1537.72345 L-210.057674,-130.110517 L487.373329,-827.584416 L2155.24961,-827.584416 L2155.24961,840.250728 L1457.81801,1537.72345 L-210.057674,1537.72345 L-210.057674,1537.72345 Z M-201.729475,1529.39467 L-201.729475,-126.661245 L490.822601,-819.256217 L2146.92082,-819.256217 L2146.92082,836.800281 L1454.36874,1529.39467 L-201.729475,1529.39467 Z M-193.401276,1521.06588 L-193.401276,-123.211973 L494.272461,-810.928605 L2138.59321,-810.928605 L2138.59321,833.351597 L1450.91888,1521.06588 L-193.401276,1521.06588 Z M-185.073664,1512.73768 L-185.073664,-119.762114 L497.72232,-802.600994 L2130.2656,-802.600994 L2130.2656,829.901738 L1447.46961,1512.73768 L-185.073664,1512.73768 L-185.073664,1512.73768 Z M-176.745465,1504.41007 L-176.745465,-116.31343 L501.171592,-794.272795 L2121.9374,-794.272795 L2121.9374,826.451878 L1444.01916,1504.41007 L-176.745465,1504.41007 L-176.745465,1504.41007 Z M-168.417266,1496.08187 L-168.417266,-112.86357 L504.621451,-785.944595 L2113.60979,-785.944595 L2113.60979,823.003194 L1440.57048,1496.08187 L-168.417266,1496.08187 L-168.417266,1496.08187 Z M-160.090242,1487.75426 L-160.090242,-109.414298 L508.071311,-777.616984 L2105.28159,-777.616984 L2105.28159,819.553335 L1437.12003,1487.75426 L-160.090242,1487.75426 L-160.090242,1487.75426 Z M-151.761455,1479.42606 L-151.761455,-105.964439 L511.52117,-769.288785 L2096.95339,-769.288785 L2096.95339,816.103475 L1433.67135,1479.42606 L-151.761455,1479.42606 L-151.761455,1479.42606 Z M-143.433844,1471.09845 L-143.433844,-102.515755 L514.971029,-760.961173 L2088.62519,-760.961173 L2088.62519,812.654791 L1430.2209,1471.09845 L-143.433844,1471.09845 L-143.433844,1471.09845 Z M-135.105057,1462.76966 L-135.105057,-99.0653077 L518.420889,-752.632974 L2080.29816,-752.632974 L2080.29816,809.204932 L1426.77163,1462.76966 L-135.105057,1462.76966 L-135.105057,1462.76966 Z M-126.777446,1454.44264 L-126.777446,-95.6166236 L521.870748,-744.305362 L2071.96938,-744.305362 L2071.96938,805.755072 L1423.32177,1454.44264 L-126.777446,1454.44264 L-126.777446,1454.44264 Z M-118.449834,1446.11444 L-118.449834,-92.1667642 L525.320608,-735.977163 L2063.64118,-735.977163 L2063.64118,802.3058 L1419.87191,1446.11444 L-118.449834,1446.11444 L-118.449834,1446.11444 Z M-110.122222,1437.78565 L-110.122222,-88.7169048 L528.770467,-727.648964 L2055.31298,-727.648964 L2055.31298,798.856529 L1416.42146,1437.78565 L-110.122222,1437.78565 L-110.122222,1437.78565 Z M-101.794023,1429.45863 L-101.794023,-85.267633 L532.219151,-719.321353 L2046.98537,-719.321353 L2046.98537,795.407257 L1412.97219,1429.45863 L-101.794023,1429.45863 L-101.794023,1429.45863 Z M-93.4652365,1421.12984 L-93.4652365,-81.8183612 L535.669598,-710.992566 L2038.65717,-710.992566 L2038.65717,791.957397 L1409.52175,1421.12984 L-93.4652365,1421.12984 L-93.4652365,1421.12984 Z M-85.1376249,1412.80164 L-85.1376249,-78.3679142 L539.11887,-702.664367 L2030.32956,-702.664367 L2030.32956,788.508713 L1406.07247,1412.80164 L-85.1376249,1412.80164 L-85.1376249,1412.80164 Z M-76.8088382,1404.47403 L-76.8088382,-74.91923 L542.568729,-694.336755 L2022.00136,-694.336755 L2022.00136,785.058266 L1402.62261,1404.47403 L-76.8088382,1404.47403 L-76.8088382,1404.47403 Z M-68.4812266,1396.14583 L-68.4812266,-71.4699582 L546.019176,-686.008556 L2013.67375,-686.008556 L2013.67375,781.608994 L1399.17276,1396.14583 L-68.4812266,1396.14583 Z M-60.1530274,1387.81704 L-60.1530274,-68.0195112 L549.468448,-677.680357 L2005.34496,-677.680357 L2005.34496,778.158547 L1395.72348,1387.81704 L-60.1530274,1387.81704 Z M-51.8248283,1379.48943 L-51.8248283,-64.570827 L552.918308,-669.352158 L1997.01617,-669.352158 L1997.01617,774.710451 L1392.27362,1379.48943 L-51.8248283,1379.48943 L-51.8248283,1379.48943 Z M-43.4972167,1371.16182 L-43.4972167,-61.1209676 L556.368167,-661.024546 L1988.68974,-661.024546 L1988.68974,771.260004 L1388.82435,1371.16182 L-43.4972167,1371.16182 L-43.4972167,1371.16182 Z M-35.1690176,1362.83362 L-35.1690176,-57.6716958 L559.818026,-652.695759 L1980.36095,-652.695759 L1980.36095,767.810144 L1385.37449,1362.83362 L-35.1690176,1362.83362 L-35.1690176,1362.83362 Z M-26.8408184,1354.50542 L-26.8408184,-54.2218364 L563.267298,-644.36756 L1972.03216,-644.36756 L1972.03216,764.36146 L1381.92463,1354.50542 L-26.8408184,1354.50542 L-26.8408184,1354.50542 Z M-18.5126192,1346.17663 L-18.5126192,-50.771977 L566.71657,-636.039949 L1963.70514,-636.039949 L1963.70514,760.912188 L1378.47477,1346.17663 L-18.5126192,1346.17663 L-18.5126192,1346.17663 Z M-10.1844201,1337.84844 L-10.1844201,-47.3227052 L570.166429,-627.711749 L1955.37635,-627.711749 L1955.37635,757.462329 L1375.02433,1337.84844 L-10.1844201,1337.84844 L-10.1844201,1337.84844 Z M-1.85622091,1329.52024 L-1.85622091,-43.874021 L573.616289,-619.38355 L1947.04757,-619.38355 L1947.04757,754.014232 L1371.57506,1329.52024 L-1.85622091,1329.52024 L-1.85622091,1329.52024 Z M6.47197825,1321.19321 L6.47197825,-40.4241616 L577.066148,-611.055351 L1938.71878,-611.055351 L1938.71878,750.564373 L1368.12461,1321.19321 L6.47197825,1321.19321 L6.47197825,1321.19321 Z M14.7995898,1312.86501 L14.7995898,-36.9748899 L580.51542,-602.727152 L1930.39234,-602.727152 L1930.39234,747.115101 L1364.67534,1312.86501 L14.7995898,1312.86501 L14.7995898,1312.86501 Z M23.127789,1304.53623 L23.127789,-33.5256181 L583.965279,-594.398953 L1922.06356,-594.398953 L1922.06356,743.66583 L1361.22548,1304.53623 L23.127789,1304.53623 L23.127789,1304.53623 Z M31.4571633,1296.20744 L31.4571633,-30.0757587 L587.415726,-586.071341 L1913.73477,-586.071341 L1913.73477,740.215382 L1357.77738,1296.20744 L31.4571633,1296.20744 L31.4571633,1296.20744 Z M39.7847749,1287.87983 L39.7847749,-26.6264869 L590.864998,-577.742554 L1905.40716,-577.742554 L1905.40716,736.766698 L1354.32693,1287.87983 L39.7847749,1287.87983 L39.7847749,1287.87983 Z M48.1129741,1279.55163 L48.1129741,-23.1772151 L594.31427,-569.414355 L1897.07955,-569.414355 L1897.07955,733.316839 L1350.87766,1279.55163 L48.1129741,1279.55163 L48.1129741,1279.55163 Z M56.4411732,1271.22343 L56.4411732,-19.7279433 L597.764129,-561.086156 L1888.75135,-561.086156 L1888.75135,729.868155 L1347.42839,1271.22343 L56.4411732,1271.22343 L56.4411732,1271.22343 Z M64.7693724,1262.89464 L64.7693724,-16.2780839 L601.213989,-552.757957 L1880.42197,-552.757957 L1880.42197,726.417708 L1343.97736,1262.89464 L64.7693724,1262.89464 Z M73.0969839,1254.56762 L73.0969839,-12.8293997 L604.663848,-544.429758 L1872.09319,-544.429758 L1872.09319,722.968436 L1340.52867,1254.56762 L73.0969839,1254.56762 Z M81.4245955,1246.23883 L81.4245955,-9.37954031 L608.113708,-536.101559 L1863.76616,-536.101559 L1863.76616,719.520339 L1337.07822,1246.23883 L81.4245955,1246.23883 L81.4245955,1246.23883 Z M89.7533823,1237.91063 L89.7533823,-5.93085613 L611.562979,-527.773947 L1855.43796,-527.773947 L1855.43796,716.069892 L1333.62836,1237.91063 L89.7533823,1237.91063 L89.7533823,1237.91063 Z M98.0815814,1229.58361 L98.0815814,-2.48040912 L615.012839,-519.446335 L1847.11094,-519.446335 L1847.11094,712.620621 L1330.17851,1229.58361 L98.0815814,1229.58361 L98.0815814,1229.58361 Z M106.409781,1221.25482 L106.409781,0.968275062 L618.462698,-511.117549 L1838.78274,-511.117549 L1838.78274,709.171936 L1326.72865,1221.25482 L106.409781,1221.25482 L106.409781,1221.25482 Z M114.73798,1212.92721 L114.73798,4.41813446 L621.913145,-502.78935 L1830.45395,-502.78935 L1830.45395,705.722077 L1323.27879,1212.92721 L114.73798,1212.92721 L114.73798,1212.92721 Z M123.065591,1204.59842 L123.065591,7.86740625 L625.363005,-494.461738 L1822.12634,-494.461738 L1822.12634,702.273393 L1319.82775,1204.59842 L123.065591,1204.59842 L123.065591,1204.59842 Z M131.393203,1196.27199 L131.393203,11.316678 L628.812276,-486.133539 L1813.79755,-486.133539 L1813.79755,698.823533 L1316.37907,1196.27199 L131.393203,1196.27199 Z M139.721402,1187.94379 L139.721402,14.7665374 L632.262136,-477.805927 L1805.46935,-477.805927 L1805.46935,695.373086 L1312.9298,1187.94379 L139.721402,1187.94379 Z M148.049601,1179.61441 L148.049601,18.2158092 L635.711995,-469.477728 L1797.14233,-469.477728 L1797.14233,691.92499 L1309.47935,1179.61441 L148.049601,1179.61441 L148.049601,1179.61441 Z M156.378388,1171.28739 L156.378388,21.6644934 L639.161855,-461.149529 L1788.81413,-461.149529 L1788.81413,688.474543 L1306.03008,1171.28739 L156.378388,1171.28739 L156.378388,1171.28739 Z M164.706,1162.9586 L164.706,25.1149404 L642.611714,-452.82133 L1780.48534,-452.82133 L1780.48534,685.025271 L1302.58022,1162.9586 L164.706,1162.9586 L164.706,1162.9586 Z M173.033023,1154.6304 L173.033023,28.5642122 L646.061573,-444.492543 L1772.15773,-444.492543 L1772.15773,681.575999 L1299.13036,1154.6304 L173.033023,1154.6304 L173.033023,1154.6304 Z M181.361223,1146.30397 L181.361223,32.0123088 L649.51202,-436.164931 L1763.82953,-436.164931 L1763.82953,678.126727 L1295.6805,1146.30397 L181.361223,1146.30397 L181.361223,1146.30397 Z M189.689422,1137.97518 L189.689422,35.4627558 L652.96188,-427.836732 L1755.50192,-427.836732 L1755.50192,674.677456 L1292.23064,1137.97518 L189.689422,1137.97518 L189.689422,1137.97518 Z M198.018209,1129.64639 L198.018209,38.9120276 L656.411739,-419.508533 L1747.17372,-419.508533 L1747.17372,671.228184 L1288.78078,1129.64639 L198.018209,1129.64639 L198.018209,1129.64639 Z M206.34582,1121.31702 L206.34582,42.3612994 L659.861011,-411.180922 L1738.84494,-411.180922 L1738.84494,667.778324 L1285.33092,1121.31702 L206.34582,1121.31702 L206.34582,1121.31702 Z M214.674607,1112.99058 L214.674607,45.8105712 L663.31087,-402.852135 L1730.51791,-402.852135 L1730.51791,664.329053 L1281.88047,1112.99058 L214.674607,1112.99058 L214.674607,1112.99058 Z M223.002218,1104.6618 L223.002218,49.259843 L666.761317,-394.524523 L1722.18971,-394.524523 L1722.18971,660.879193 L1278.43061,1104.6618 L223.002218,1104.6618 L223.002218,1104.6618 Z M231.330418,1096.3336 L231.330418,52.7097024 L670.210589,-386.195737 L1713.86093,-386.195737 L1713.86093,657.429921 L1274.98076,1096.3336 L231.330418,1096.3336 L231.330418,1096.3336 Z M239.658617,1088.00481 L239.658617,56.1589741 L673.659861,-377.868125 L1705.53332,-377.868125 L1705.53332,653.98065 L1271.53207,1088.00481 L239.658617,1088.00481 L239.658617,1088.00481 Z M247.985641,1079.67779 L247.985641,59.6088335 L677.10972,-369.539338 L1697.20512,-369.539338 L1697.20512,650.530203 L1268.08162,1079.67779 L247.985641,1079.67779 L247.985641,1079.67779 Z M256.314427,1071.349 L256.314427,63.0581053 L680.558992,-361.211727 L1688.87574,-361.211727 L1688.87574,647.080931 L1264.63176,1071.349 L256.314427,1071.349 L256.314427,1071.349 Z M264.642627,1063.02139 L264.642627,66.5073771 L684.009439,-352.883527 L1680.54754,-352.883527 L1680.54754,643.631659 L1261.18191,1063.02139 L264.642627,1063.02139 Z M272.970826,1054.69378 L272.970826,69.9578241 L687.459299,-344.555916 L1672.22052,-344.555916 L1672.22052,640.1818 L1257.73263,1054.69378 L272.970826,1054.69378 Z M281.299025,1046.36499 L281.299025,73.4065083 L690.90857,-336.227129 L1663.89232,-336.227129 L1663.89232,636.73194 L1254.28277,1046.36499 L281.299025,1046.36499 L281.299025,1046.36499 Z M289.626636,1038.03738 L289.626636,76.8557801 L694.35843,-327.899518 L1655.56353,-327.899518 L1655.56353,633.282669 L1250.83291,1038.03738 L289.626636,1038.03738 L289.626636,1038.03738 Z M297.954836,1029.70918 L297.954836,80.3056395 L697.808289,-319.571318 L1647.23592,-319.571318 L1647.23592,629.833397 L1247.38247,1029.70918 L297.954836,1029.70918 L297.954836,1029.70918 Z M306.283035,1021.38098 L306.283035,83.7549113 L701.258149,-311.243707 L1638.90772,-311.243707 L1638.90772,626.384125 L1243.93378,1021.38098 L306.283035,1021.38098 L306.283035,1021.38098 Z M314.610646,1013.05396 L314.610646,87.2047707 L704.706833,-302.915508 L1630.57952,-302.915508 L1630.57952,622.934266 L1240.48392,1013.05396 L314.610646,1013.05396 L314.610646,1013.05396 Z M322.939433,1004.72458 L322.939433,90.6540425 L708.15728,-294.587309 L1622.2525,-294.587309 L1622.2525,619.484406 L1237.03406,1004.72458 L322.939433,1004.72458 L322.939433,1004.72458 Z M331.267045,996.396383 L331.267045,94.1039019 L711.607139,-286.258522 L1613.9243,-286.258522 L1613.9243,616.03631 L1233.58421,996.396383 L331.267045,996.396383 L331.267045,996.396383 Z M339.595831,988.067596 L339.595831,97.5525861 L715.056999,-277.931498 L1605.59551,-277.931498 L1605.59551,612.585863 L1230.13435,988.067596 L339.595831,988.067596 L339.595831,988.067596 Z M347.922855,979.740572 L347.922855,101.003033 L718.506858,-269.602123 L1597.26673,-269.602123 L1597.26673,609.136003 L1226.68449,979.740572 L347.922855,979.740572 L347.922855,979.740572 Z M356.25223,971.412961 L356.25223,104.452305 L721.956717,-261.273924 L1588.9397,-261.273924 L1588.9397,605.686144 L1223.23521,971.412961 L356.25223,971.412961 L356.25223,971.412961 Z M364.579254,963.084174 L364.579254,107.901577 L725.405402,-252.946313 L1580.61092,-252.946313 L1580.61092,602.23746 L1219.78477,963.084174 L364.579254,963.084174 L364.579254,963.084174 Z M372.908041,954.756562 L372.908041,111.351436 L728.855261,-244.618701 L1572.28389,-244.618701 L1572.28389,598.7876 L1216.3355,954.756562 L372.908041,954.756562 L372.908041,954.756562 Z M381.235652,946.427775 L381.235652,114.800708 L732.305708,-236.289914 L1563.95569,-236.289914 L1563.95569,595.337741 L1212.88564,946.427775 L381.235652,946.427775 L381.235652,946.427775 Z M389.564439,938.099576 L389.564439,118.250567 L735.756155,-227.961128 L1555.62632,-227.961128 L1555.62632,591.887294 L1209.43519,938.099576 L389.564439,938.099576 L389.564439,938.099576 Z M397.892638,929.771965 L397.892638,121.700427 L739.205427,-219.634104 L1547.29812,-219.634104 L1547.29812,588.439197 L1205.98592,929.771965 L397.892638,929.771965 Z M406.22025,921.443766 L406.22025,125.149698 L742.654699,-211.305317 L1538.97109,-211.305317 L1538.97109,584.989338 L1202.53606,921.443766 L406.22025,921.443766 Z M414.548449,913.115566 L414.548449,128.59897 L746.104558,-202.977118 L1530.64231,-202.977118 L1530.64231,581.539478 L1199.0862,913.115566 L414.548449,913.115566 L414.548449,913.115566 Z M422.877235,904.78678 L422.877235,132.04883 L749.554417,-194.649506 L1522.31411,-194.649506 L1522.31411,578.090207 L1195.63634,904.78678 L422.877235,904.78678 L422.877235,904.78678 Z M431.204847,896.459168 L431.204847,135.497514 L753.004277,-186.321307 L1513.98532,-186.321307 L1513.98532,574.641522 L1192.18589,896.459168 L431.204847,896.459168 L431.204847,896.459168 Z M439.533046,888.130969 L439.533046,138.947373 L756.454136,-177.99252 L1505.6583,-177.99252 L1505.6583,571.191075 L1188.73662,888.130969 L439.533046,888.130969 L439.533046,888.130969 Z M447.861833,879.80277 L447.861833,142.396645 L759.903996,-169.664909 L1497.3301,-169.664909 L1497.3301,567.741804 L1185.28617,879.80277 L447.861833,879.80277 L447.861833,879.80277 Z M456.189445,871.475158 L456.189445,145.846504 L763.354443,-161.337297 L1489.00131,-161.337297 L1489.00131,564.292532 L1181.8369,871.475158 L456.189445,871.475158 L456.189445,871.475158 Z M464.517644,863.146371 L464.517644,149.295776 L766.804302,-153.00851 L1480.67488,-153.00851 L1480.67488,560.84326 L1178.38704,863.146371 L464.517644,863.146371 L464.517644,863.146371 Z M472.845255,854.818172 L472.845255,152.745636 L770.254161,-144.679724 L1472.3455,-144.679724 L1472.3455,557.392813 L1174.93718,854.818172 L472.845255,854.818172 L472.845255,854.818172 Z M481.174042,846.489973 L481.174042,156.194907 L773.703433,-136.3527 L1464.01613,-136.3527 L1464.01613,553.942954 L1171.48732,846.489973 L481.174042,846.489973 L481.174042,846.489973 Z M489.502241,838.162362 L489.502241,159.644767 L777.153293,-128.023913 L1455.68793,-128.023913 L1455.68793,550.494857 L1168.03746,838.162362 L489.502241,838.162362 L489.502241,838.162362 Z M497.83044,829.834162 L497.83044,163.094039 L780.603152,-119.695714 L1447.36149,-119.695714 L1447.36149,547.044998 L1164.58819,829.834162 L497.83044,829.834162 L497.83044,829.834162 Z M506.158639,821.505376 L506.158639,166.543898 L784.052424,-111.368102 L1439.03329,-111.368102 L1439.03329,543.595138 L1161.13833,821.505376 L506.158639,821.505376 L506.158639,821.505376 Z M514.487426,813.176589 L514.487426,169.99317 L787.502871,-103.039903 L1430.70451,-103.039903 L1430.70451,540.145866 L1157.68789,813.176589 L514.487426,813.176589 L514.487426,813.176589 Z M522.81445,804.849565 L522.81445,173.442442 L790.95273,-94.7111163 L1422.37631,-94.7111163 L1422.37631,536.696595 L1154.23861,804.849565 L522.81445,804.849565 L522.81445,804.849565 Z M531.142649,796.521953 L531.142649,176.891713 L794.40259,-86.3829171 L1414.04811,-86.3829171 L1414.04811,533.246735 L1150.78817,796.521953 L531.142649,796.521953 Z M539.471436,788.193167 L539.471436,180.341573 L797.852449,-78.0553055 L1405.71991,-78.0553055 L1405.71991,529.797463 L1147.3389,788.193167 L539.471436,788.193167 Z M547.799048,779.86438 L547.799048,183.790845 L801.302308,-69.7271064 L1397.39171,-69.7271064 L1397.39171,526.347016 L1143.88786,779.86438 L547.799048,779.86438 L547.799048,779.86438 Z M556.127834,771.536768 L556.127834,187.240704 L804.752168,-61.3989072 L1389.06351,-61.3989072 L1389.06351,522.898332 L1140.43859,771.536768 L556.127834,771.536768 L556.127834,771.536768 Z M564.456034,763.208569 L564.456034,190.689976 L808.202027,-53.0712957 L1380.7359,-53.0712957 L1380.7359,519.448473 L1136.98873,763.208569 L564.456034,763.208569 L564.456034,763.208569 Z M572.784233,754.879782 L572.784233,194.139248 L811.651887,-44.7425089 L1372.40711,-44.7425089 L1372.40711,515.998613 L1133.53946,754.879782 L572.784233,754.879782 L572.784233,754.879782 Z M581.112432,746.551583 L581.112432,197.589107 L815.101746,-36.4137221 L1364.07891,-36.4137221 L1364.07891,512.548754 L1130.0896,746.551583 L581.112432,746.551583 L581.112432,746.551583 Z M589.440044,738.224559 L589.440044,201.038379 L818.551018,-28.0861106 L1355.75013,-28.0861106 L1355.75013,509.10007 L1126.63974,738.224559 L589.440044,738.224559 L589.440044,738.224559 Z M597.76883,729.895772 L597.76883,204.48765 L822.000877,-19.7579114 L1347.4231,-19.7579114 L1347.4231,505.649623 L1123.19047,729.895772 L597.76883,729.895772 L597.76883,729.895772 Z M606.096442,721.567573 L606.096442,207.93751 L825.450737,-11.4297122 L1339.09431,-11.4297122 L1339.09431,502.200939 L1119.74061,721.567573 L606.096442,721.567573 L606.096442,721.567573 Z M614.425229,713.239374 L614.425229,211.387369 L828.900596,-3.10151308 L1330.76612,-3.10151308 L1330.76612,498.750492 L1116.29075,713.239374 L614.425229,713.239374 L614.425229,713.239374 Z M622.75284,704.911763 L622.75284,214.836053 L832.350455,5.22609847 L1322.43733,5.22609847 L1322.43733,495.302395 L1112.84089,704.911763 L622.75284,704.911763 L622.75284,704.911763 Z M631.081627,696.582976 L631.081627,218.2865 L835.800315,13.5548852 L1314.11031,13.5548852 L1314.11031,491.853123 L1109.39103,696.582976 L631.081627,696.582976 L631.081627,696.582976 Z M639.408651,688.254189 L639.408651,221.735185 L839.250174,21.8830844 L1305.78269,21.8830844 L1305.78269,488.402676 L1105.94058,688.254189 L639.408651,688.254189 L639.408651,688.254189 Z M647.738613,679.92599 L647.738613,225.185044 L842.700034,30.2112836 L1297.45332,30.2112836 L1297.45332,484.952817 L1102.49014,679.92599 L647.738613,679.92599 L647.738613,679.92599 Z M656.066224,671.599553 L656.066224,228.634903 L846.150481,38.5394827 L1289.12512,38.5394827 L1289.12512,481.504133 L1099.04086,671.599553 L656.066224,671.599553 L656.066224,671.599553 Z M664.394424,663.270767 L664.394424,232.084175 L849.599752,46.8676819 L1280.79692,46.8676819 L1280.79692,478.054273 L1095.59159,663.270767 L664.394424,663.270767 Z M672.722623,654.942568 L672.722623,235.533447 L853.050199,55.1958811 L1272.46872,55.1958811 L1272.46872,474.604414 L1092.14115,654.942568 L672.722623,654.942568 Z M681.050234,646.613193 L681.050234,238.983306 L856.499471,63.5234926 L1264.14052,63.5234926 L1264.14052,471.154555 L1088.69187,646.613193 L681.050234,646.613193 L681.050234,646.613193 Z M689.378433,638.285582 L689.378433,242.433166 L859.949918,71.8522794 L1255.81232,71.8522794 L1255.81232,467.705283 L1085.24201,638.285582 L689.378433,638.285582 L689.378433,638.285582 Z M697.70722,629.957382 L697.70722,245.882438 L863.39919,80.1804785 L1247.48471,80.1804785 L1247.48471,464.256011 L1081.79157,629.957382 L697.70722,629.957382 L697.70722,629.957382 Z M706.034832,621.629771 L706.034832,249.332297 L866.847874,88.5086777 L1239.15592,88.5086777 L1239.15592,460.805564 L1078.34288,621.629771 L706.034832,621.629771 L706.034832,621.629771 Z M714.363619,613.300984 L714.363619,252.781569 L870.298321,96.8368769 L1230.82773,96.8368769 L1230.82773,457.356292 L1074.89302,613.300984 L714.363619,613.300984 L714.363619,613.300984 Z M722.69123,604.973373 L722.69123,256.230841 L873.747593,105.164488 L1222.49894,105.164488 L1222.49894,453.907608 L1071.44258,604.973373 L722.69123,604.973373 L722.69123,604.973373 Z M731.020017,596.645173 L731.020017,259.6807 L877.199215,113.493275 L1214.1725,113.493275 L1214.1725,450.457749 L1067.9933,596.645173 L731.020017,596.645173 L731.020017,596.645173 Z M739.347041,588.316387 L739.347041,263.129972 L880.647899,121.820887 L1205.84372,121.820887 L1205.84372,447.008477 L1064.54286,588.316387 L739.347041,588.316387 L739.347041,588.316387 Z M747.675828,579.9876 L747.675828,266.579244 L884.097759,130.149674 L1197.51493,130.149674 L1197.51493,443.558617 L1061.093,579.9876 L747.675828,579.9876 L747.675828,579.9876 Z M756.004614,571.660576 L756.004614,270.029103 L887.547618,138.477285 L1189.18673,138.477285 L1189.18673,440.109346 L1057.64314,571.660576 L756.004614,571.660576 L756.004614,571.660576 Z M764.332814,563.332377 L764.332814,273.478375 L890.997478,146.806072 L1180.85912,146.806072 L1180.85912,436.660074 L1054.19328,563.332377 L764.332814,563.332377 L764.332814,563.332377 Z M772.660425,555.00359 L772.660425,276.928234 L894.447337,155.133683 L1172.53092,155.133683 L1172.53092,433.209627 L1050.74342,555.00359 L772.660425,555.00359 L772.660425,555.00359 Z M780.989212,546.675391 L780.989212,280.377506 L897.897784,163.461883 L1164.20213,163.461883 L1164.20213,429.759767 L1047.29356,546.675391 L780.989212,546.675391 L780.989212,546.675391 Z M789.317411,538.348367 L789.317411,283.827365 L901.347056,171.790669 L1155.87393,171.790669 L1155.87393,426.311671 L1043.84429,538.348367 L789.317411,538.348367 L789.317411,538.348367 Z M797.644435,530.020168 L797.644435,287.27605 L904.797503,180.117693 L1147.54632,180.117693 L1147.54632,422.861224 L1040.39384,530.020168 L797.644435,530.020168 Z M805.973222,521.690793 L805.973222,290.726497 L908.246775,188.447068 L1139.21754,188.447068 L1139.21754,419.411952 L1036.94398,521.690793 L805.973222,521.690793 Z M814.302009,513.362007 L814.302009,294.175768 L911.697222,196.774679 L1130.88992,196.774679 L1130.88992,415.962093 L1033.4953,513.362007 L814.302009,513.362007 L814.302009,513.362007 Z M822.62962,505.034983 L822.62962,297.625628 L915.145906,205.103466 L1122.56172,205.103466 L1122.56172,412.513408 L1030.04485,505.034983 L822.62962,505.034983 L822.62962,505.034983 Z M830.957819,496.706783 L830.957819,301.0749 L918.596353,213.431078 L1114.23411,213.431078 L1114.23411,409.062961 L1026.59558,496.706783 L830.957819,496.706783 L830.957819,496.706783 Z M839.286018,488.378584 L839.286018,304.524759 L922.045625,221.759277 L1105.90474,221.759277 L1105.90474,405.61369 L1023.14513,488.378584 L839.286018,488.378584 L839.286018,488.378584 Z M847.614805,480.050385 L847.614805,307.974031 L925.495484,230.087476 L1097.57713,230.087476 L1097.57713,402.16383 L1019.69527,480.050385 L847.614805,480.050385 L847.614805,480.050385 Z M855.942417,471.722774 L855.942417,311.42389 L928.945343,238.415087 L1089.24834,238.415087 L1089.24834,398.715146 L1016.24541,471.722774 L855.942417,471.722774 L855.942417,471.722774 Z M864.270616,463.393987 L864.270616,314.873162 L932.39579,246.743874 L1080.92014,246.743874 L1080.92014,395.265287 L1012.79555,463.393987 L864.270616,463.393987 L864.270616,463.393987 Z M872.598815,455.0652 L872.598815,318.321846 L935.845062,255.072073 L1072.59312,255.072073 L1072.59312,391.815427 L1009.34569,455.0652 L872.598815,455.0652 L872.598815,455.0652 Z M880.927014,446.737588 L880.927014,321.772293 L939.295509,263.40086 L1064.26433,263.40086 L1064.26433,388.365568 L1005.89584,446.737588 L880.927014,446.737588 L880.927014,446.737588 Z M889.254626,438.409977 L889.254626,325.221565 L942.744781,271.728472 L1055.93554,271.728472 L1055.93554,384.916884 L1002.44539,438.409977 L889.254626,438.409977 L889.254626,438.409977 Z M897.582825,430.08119 L897.582825,328.670837 L946.195228,280.056671 L1047.60734,280.056671 L1047.60734,381.466437 L998.996116,430.08119 L897.582825,430.08119 L897.582825,430.08119 Z M905.911612,421.752991 L905.911612,332.120696 L949.645087,288.38487 L1039.27973,288.38487 L1039.27973,378.017165 L995.546257,421.752991 L905.911612,421.752991 L905.911612,421.752991 Z M914.239811,413.424792 L914.239811,335.570556 L953.094947,296.712482 L1030.95153,296.712482 L1030.95153,374.566718 L992.096398,413.424792 L914.239811,413.424792 L914.239811,413.424792 Z M922.56801,405.09718 L922.56801,339.01924 L956.543631,305.041268 L1022.62216,305.041268 L1022.62216,371.119209 L988.646538,405.09718 L922.56801,405.09718 L922.56801,405.09718 Z M930.896797,396.768394 L930.896797,342.469687 L959.994078,313.36888 L1014.29572,313.36888 L1014.29572,367.66935 L985.197854,396.768394 L930.896797,396.768394 Z M939.224408,388.440194 L939.224408,345.918371 L963.443937,321.698254 L1005.96635,321.698254 L1005.96635,364.218903 L981.746819,388.440194 L939.224408,388.440194 Z M947.552607,380.111408 L947.552607,349.368818 L966.893797,330.024691 L997.638737,330.024691 L997.638737,360.770218 L978.29696,380.111408 L947.552607,380.111408 L947.552607,380.111408 Z M955.880219,371.784384 L955.880219,352.81809 L970.343656,338.354065 L989.30995,338.354065 L989.30995,357.320947 L974.847101,371.784384 L955.880219,371.784384 L955.880219,371.784384 Z M964.209006,356.267361 L964.209006,363.456184 L971.397241,363.456184 L980.982339,353.871087 L980.982339,346.682264 L973.793516,346.682264 L964.209006,356.267361 L964.209006,356.267361 Z" id="raster"></path>
        </g>
    </g>
</svg>