<?xml version="1.0" encoding="UTF-8" standalone="no"?>
<svg width="2400px" height="2000px" viewBox="0 0 2400 2000" version="1.1" xmlns="http://www.w3.org/2000/svg" xmlns:xlink="http://www.w3.org/1999/xlink">
    <title>bg-homepage</title>
    <defs></defs>
    <g id="backgrounds" stroke="none" stroke-width="1" fill="none" fill-rule="evenodd">
        <g id="homepage" stroke="#FFFFFF" stroke-width="0.5">
            <path d="M-1298,2854 L-1298,-674.726089 L170.214562,-2143 L3698.99941,-2143 L3698.99941,1385.7255 L2230.78603,2854 L-1298,2854 L-1298,2854 Z M-1289.67239,2845.67121 L-1289.67239,-671.276817 L173.664422,-2134.6718 L3690.6718,-2134.6718 L3690.6718,1382.27564 L2227.33617,2845.67121 L-1289.67239,2845.67121 L-1289.67239,2845.67121 Z M-1281.3436,2837.34419 L-1281.3436,-667.826958 L177.114281,-2126.3436 L3682.3436,-2126.3436 L3682.3436,1378.82578 L2223.88689,2837.34419 L-1281.3436,2837.34419 L-1281.3436,2837.34419 Z M-1273.0154,2829.0154 L-1273.0154,-664.377099 L180.56414,-2118.0154 L3674.0154,-2118.0154 L3674.0154,1375.37592 L2220.43703,2829.0154 L-1273.0154,2829.0154 L-1273.0154,2829.0154 Z M-1264.68779,2820.6872 L-1264.68779,-660.927239 L184.014,-2109.68662 L3665.68662,-2109.68662 L3665.68662,1371.92665 L2216.98659,2820.6872 L-1264.68779,2820.6872 L-1264.68779,2820.6872 Z M-1256.359,2812.35842 L-1256.359,-657.476792 L187.463859,-2101.359 L3657.35842,-2101.359 L3657.35842,1368.4762 L2213.5379,2812.35842 L-1256.359,2812.35842 L-1256.359,2812.35842 Z M-1248.03081,2804.03139 L-1248.03081,-654.02752 L190.913719,-2093.03081 L3649.03081,-2093.03081 L3649.03081,1365.02752 L2210.08746,2804.03139 L-1248.03081,2804.03139 L-1248.03081,2804.03139 Z M-1239.70261,2795.70319 L-1239.70261,-650.577661 L194.36299,-2084.70261 L3640.70261,-2084.70261 L3640.70261,1361.57707 L2206.63818,2795.70319 L-1239.70261,2795.70319 L-1239.70261,2795.70319 Z M-1231.37441,2787.37441 L-1231.37441,-647.127802 L197.81285,-2076.37441 L3632.37441,-2076.37441 L3632.37441,1358.12721 L2203.18774,2787.37441 L-1231.37441,2787.37441 L-1231.37441,2787.37441 Z M-1223.04621,2779.04621 L-1223.04621,-643.677942 L201.262709,-2068.04621 L3624.04621,-2068.04621 L3624.04621,1354.67735 L2199.73788,2779.04621 L-1223.04621,2779.04621 L-1223.04621,2779.04621 Z M-1214.7186,2770.7186 L-1214.7186,-640.228083 L204.712569,-2059.71801 L3615.71801,-2059.71801 L3615.71801,1351.2275 L2196.28684,2770.7186 L-1214.7186,2770.7186 L-1214.7186,2770.7186 Z M-1206.3904,2762.38981 L-1206.3904,-636.778223 L208.162428,-2051.38922 L3607.38981,-2051.38922 L3607.38981,1347.77764 L2192.83698,2762.38981 L-1206.3904,2762.38981 L-1206.3904,2762.38981 Z M-1198.0622,2754.06161 L-1198.0622,-633.328952 L211.612287,-2043.06161 L3599.06161,-2043.06161 L3599.06161,1344.32778 L2189.38712,2754.06161 L-1198.0622,2754.06161 L-1198.0622,2754.06161 Z M-1189.73459,2745.73459 L-1189.73459,-629.879092 L215.062147,-2034.734 L3590.734,-2034.734 L3590.734,1340.87733 L2185.93668,2745.73459 L-1189.73459,2745.73459 L-1189.73459,2745.73459 Z M-1181.40639,2737.4058 L-1181.40639,-626.429233 L218.512006,-2026.4058 L3582.40639,-2026.4058 L3582.40639,1337.42806 L2182.48799,2737.4058 L-1181.40639,2737.4058 L-1181.40639,2737.4058 Z M-1173.07819,2729.07878 L-1173.07819,-622.979373 L221.961866,-2018.0776 L3574.0776,-2018.0776 L3574.0776,1333.97761 L2179.03931,2729.07878 L-1173.07819,2729.07878 Z M-1164.74999,2720.74999 L-1164.74999,-619.528926 L225.411725,-2009.7494 L3565.74999,-2009.7494 L3565.74999,1330.52893 L2175.58827,2720.74999 L-1164.74999,2720.74999 Z M-1156.42238,2712.42179 L-1156.42238,-616.079655 L228.861584,-2001.42179 L3557.42238,-2001.42179 L3557.42238,1327.07848 L2172.13959,2712.42179 L-1156.42238,2712.42179 L-1156.42238,2712.42179 Z M-1148.09418,2704.09418 L-1148.09418,-612.629795 L232.311444,-1993.09359 L3549.09418,-1993.09359 L3549.09418,1323.62862 L2168.68973,2704.09418 L-1148.09418,2704.09418 L-1148.09418,2704.09418 Z M-1139.76657,2695.76539 L-1139.76657,-609.179936 L235.760716,-1984.76598 L3540.76598,-1984.76598 L3540.76598,1320.17994 L2165.23987,2695.76539 L-1139.76657,2695.76539 L-1139.76657,2695.76539 Z M-1131.43837,2687.43895 L-1131.43837,-605.730664 L239.210575,-1976.43778 L3532.43778,-1976.43778 L3532.43778,1316.72949 L2161.79001,2687.43895 L-1131.43837,2687.43895 L-1131.43837,2687.43895 Z M-1123.11017,2679.11017 L-1123.11017,-602.280217 L242.660434,-1968.10958 L3524.11076,-1968.10958 L3524.11076,1313.28022 L2158.34015,2679.11017 L-1123.11017,2679.11017 L-1123.11017,2679.11017 Z M-1114.78256,2670.78138 L-1114.78256,-598.830945 L246.110294,-1959.78197 L3515.78197,-1959.78197 L3515.78197,1309.82977 L2154.88971,2670.78138 L-1114.78256,2670.78138 L-1114.78256,2670.78138 Z M-1106.45436,2662.45436 L-1106.45436,-595.381086 L249.558978,-1951.45436 L3507.45318,-1951.45436 L3507.45318,1306.37991 L2151.44043,2662.45436 L-1106.45436,2662.45436 L-1106.45436,2662.45436 Z M-1098.12675,2654.12557 L-1098.12675,-591.931226 L253.009425,-1943.12557 L3499.12616,-1943.12557 L3499.12616,1302.93005 L2147.98999,2654.12557 L-1098.12675,2654.12557 L-1098.12675,2654.12557 Z M-1089.79796,2645.79796 L-1089.79796,-588.481955 L256.459872,-1934.79796 L3490.79737,-1934.79796 L3490.79737,1299.48019 L2144.54072,2645.79796 L-1089.79796,2645.79796 L-1089.79796,2645.79796 Z M-1081.47035,2637.47035 L-1081.47035,-585.031508 L259.909144,-1926.47035 L3482.47035,-1926.47035 L3482.47035,1296.03033 L2141.09027,2637.47035 L-1081.47035,2637.47035 L-1081.47035,2637.47035 Z M-1073.14274,2629.14332 L-1073.14274,-581.581648 L263.359003,-1918.14215 L3474.14156,-1918.14215 L3474.14156,1292.58047 L2137.641,2629.14332 L-1073.14274,2629.14332 L-1073.14274,2629.14332 Z M-1064.81454,2620.81454 L-1064.81454,-578.131789 L266.808863,-1909.81395 L3465.81336,-1909.81395 L3465.81336,1289.13061 L2134.19055,2620.81454 L-1064.81454,2620.81454 L-1064.81454,2620.81454 Z M-1056.48634,2612.48575 L-1056.48634,-574.681929 L270.258722,-1901.48575 L3457.48516,-1901.48575 L3457.48516,1285.68252 L2130.74128,2612.48575 L-1056.48634,2612.48575 L-1056.48634,2612.48575 Z M-1048.15873,2604.15814 L-1048.15873,-571.232658 L273.708581,-1893.15814 L3449.15755,-1893.15814 L3449.15755,1282.23207 L2127.29201,2604.15814 L-1048.15873,2604.15814 L-1048.15873,2604.15814 Z M-1039.83053,2595.82994 L-1039.83053,-567.782798 L277.158441,-1884.82994 L3440.83111,-1884.82994 L3440.83111,1278.7828 L2123.84215,2595.82994 L-1039.83053,2595.82994 Z M-1031.50233,2587.50292 L-1031.50233,-564.332939 L280.607713,-1876.50174 L3432.50174,-1876.50174 L3432.50174,1275.33294 L2120.39287,2587.50292 L-1031.50233,2587.50292 Z M-1023.17413,2579.17472 L-1023.17413,-560.883667 L284.057572,-1868.17413 L3424.17413,-1868.17413 L3424.17413,1271.88308 L2116.94184,2579.17472 L-1023.17413,2579.17472 L-1023.17413,2579.17472 Z M-1014.84652,2570.8471 L-1014.84652,-557.433808 L287.507431,-1859.84593 L3415.84534,-1859.84593 L3415.84534,1268.43322 L2113.49257,2570.8471 L-1014.84652,2570.8471 L-1014.84652,2570.8471 Z M-1006.51832,2562.51832 L-1006.51832,-553.983948 L290.957291,-1851.51891 L3407.51773,-1851.51891 L3407.51773,1264.98336 L2110.04388,2562.51832 L-1006.51832,2562.51832 L-1006.51832,2562.51832 Z M-998.190119,2554.19129 L-998.190119,-550.534089 L294.40715,-1843.19012 L3399.19012,-1843.19012 L3399.19012,1261.53174 L2106.59402,2554.19129 L-998.190119,2554.19129 L-998.190119,2554.19129 Z M-989.862507,2545.86251 L-989.862507,-547.084229 L297.85701,-1834.86251 L3390.86192,-1834.86251 L3390.86192,1258.08247 L2103.14299,2545.86251 L-989.862507,2545.86251 L-989.862507,2545.86251 Z M-981.534308,2537.53431 L-981.534308,-543.634958 L301.306869,-1826.53431 L3382.53372,-1826.53431 L3382.53372,1254.63202 L2099.69313,2537.53431 L-981.534308,2537.53431 L-981.534308,2537.53431 Z M-973.205521,2529.20552 L-973.205521,-540.185098 L304.756728,-1818.20552 L3374.20435,-1818.20552 L3374.20435,1251.18275 L2096.24327,2529.20552 L-973.205521,2529.20552 L-973.205521,2529.20552 Z M-964.877322,2520.87732 L-964.877322,-536.735239 L308.206588,-1809.87791 L3365.87673,-1809.87791 L3365.87673,1247.73348 L2092.79459,2520.87732 L-964.877322,2520.87732 L-964.877322,2520.87732 Z M-956.549123,2512.54854 L-956.549123,-533.285379 L311.655272,-1801.54912 L3357.54854,-1801.54912 L3357.54854,1244.2842 L2089.34473,2512.54854 L-956.549123,2512.54854 L-956.549123,2512.54854 Z M-948.220336,2504.22092 L-948.220336,-529.836108 L315.105131,-1793.22092 L3349.22092,-1793.22092 L3349.22092,1240.83434 L2085.89487,2504.22092 L-948.220336,2504.22092 L-948.220336,2504.22092 Z M-939.892137,2495.89331 L-939.892137,-526.386248 L318.554991,-1784.89272 L3340.89214,-1784.89272 L3340.89214,1237.38449 L2082.44501,2495.89331 L-939.892137,2495.89331 L-939.892137,2495.89331 Z M-931.563938,2487.56453 L-931.563938,-522.936976 L322.00485,-1776.56394 L3332.56394,-1776.56394 L3332.56394,1233.93463 L2078.99574,2487.56453 L-931.563938,2487.56453 L-931.563938,2487.56453 Z M-923.235739,2479.23574 L-923.235739,-519.486529 L325.455297,-1768.23574 L3324.23456,-1768.23574 L3324.23456,1230.48535 L2075.54588,2479.23574 L-923.235739,2479.23574 L-923.235739,2479.23574 Z M-914.907539,2470.90695 L-914.907539,-516.03667 L328.903981,-1759.90695 L3315.90636,-1759.90695 L3315.90636,1227.03491 L2072.09602,2470.90695 L-914.907539,2470.90695 L-914.907539,2470.90695 Z M-906.578753,2462.57934 L-906.578753,-512.586811 L332.353841,-1751.57875 L3307.57817,-1751.57875 L3307.57817,1223.58564 L2068.64616,2462.57934 L-906.578753,2462.57934 Z M-898.250553,2454.25114 L-898.250553,-509.137539 L335.8037,-1743.25114 L3299.24997,-1743.25114 L3299.24997,1220.13519 L2065.1963,2454.25114 L-898.250553,2454.25114 Z M-889.921767,2445.92235 L-889.921767,-505.688267 L339.25356,-1734.92177 L3290.92118,-1734.92177 L3290.92118,1216.68533 L2061.74527,2445.92235 L-889.921767,2445.92235 L-889.921767,2445.92235 Z M-881.594155,2437.59357 L-881.594155,-502.238408 L342.703419,-1726.59416 L3282.59298,-1726.59416 L3282.59298,1213.23547 L2058.29717,2437.59357 L-881.594155,2437.59357 L-881.594155,2437.59357 Z M-873.264781,2429.26537 L-873.264781,-498.788548 L346.153278,-1718.26537 L3274.26478,-1718.26537 L3274.26478,1209.78679 L2054.84731,2429.26537 L-873.264781,2429.26537 L-873.264781,2429.26537 Z M-864.936582,2420.93776 L-864.936582,-495.338689 L349.603138,-1709.93717 L3265.93658,-1709.93717 L3265.93658,1206.33693 L2051.39745,2420.93776 L-864.936582,2420.93776 L-864.936582,2420.93776 Z M-856.608382,2412.60956 L-856.608382,-491.889417 L353.052997,-1701.60897 L3257.60838,-1701.60897 L3257.60838,1202.88707 L2047.94759,2412.60956 L-856.608382,2412.60956 L-856.608382,2412.60956 Z M-848.280183,2404.28136 L-848.280183,-488.439558 L356.502857,-1693.28018 L3249.28018,-1693.28018 L3249.28018,1199.43721 L2044.49832,2404.28136 L-848.280183,2404.28136 L-848.280183,2404.28136 Z M-839.951984,2395.95257 L-839.951984,-484.989698 L359.951541,-1684.95257 L3240.95257,-1684.95257 L3240.95257,1195.98794 L2041.04787,2395.95257 L-839.951984,2395.95257 L-839.951984,2395.95257 Z M-831.623197,2387.62378 L-831.623197,-481.539839 L363.4014,-1676.62378 L3232.62378,-1676.62378 L3232.62378,1192.53749 L2037.5986,2387.62378 L-831.623197,2387.62378 L-831.623197,2387.62378 Z M-823.294998,2379.29559 L-823.294998,-478.090567 L366.85126,-1668.295 L3224.29559,-1668.295 L3224.29559,1189.08822 L2034.14815,2379.29559 L-823.294998,2379.29559 L-823.294998,2379.29559 Z M-814.966799,2370.96739 L-814.966799,-474.64012 L370.301119,-1659.96739 L3215.9668,-1659.96739 L3215.9668,1185.63836 L2030.69888,2370.96739 L-814.966799,2370.96739 L-814.966799,2370.96739 Z M-806.638012,2362.63919 L-806.638012,-471.190848 L373.750978,-1651.63919 L3207.6386,-1651.63919 L3207.6386,1182.1885 L2027.2502,2362.63919 L-806.638012,2362.63919 L-806.638012,2362.63919 Z M-798.310401,2354.3104 L-798.310401,-467.740401 L377.201425,-1643.31158 L3199.31099,-1643.31158 L3199.31099,1178.7404 L2023.80034,2354.3104 L-798.310401,2354.3104 L-798.310401,2354.3104 Z M-789.981614,2345.98279 L-789.981614,-464.291129 L380.65011,-1634.98279 L3190.98279,-1634.98279 L3190.98279,1175.28995 L2020.35048,2345.98279 L-789.981614,2345.98279 L-789.981614,2345.98279 Z M-781.653415,2337.65459 L-781.653415,-460.84127 L384.099969,-1626.65459 L3182.654,-1626.65459 L3182.654,1171.84009 L2016.90003,2337.65459 L-781.653415,2337.65459 L-781.653415,2337.65459 Z M-773.325803,2329.3258 L-773.325803,-457.391998 L387.549241,-1618.32639 L3174.3258,-1618.32639 L3174.3258,1168.39024 L2013.45076,2329.3258 L-773.325803,2329.3258 Z M-764.997604,2320.9976 L-764.997604,-453.942139 L390.998513,-1609.99819 L3165.99937,-1609.99819 L3165.99937,1164.94038 L2010.0009,2320.9976 L-764.997604,2320.9976 Z M-756.669405,2312.67058 L-756.669405,-450.492279 L394.44896,-1601.66999 L3157.66999,-1601.66999 L3157.66999,1161.49052 L2006.55045,2312.67058 L-756.669405,2312.67058 L-756.669405,2312.67058 Z M-748.341206,2304.34179 L-748.341206,-447.04242 L397.898819,-1593.34179 L3149.34121,-1593.34179 L3149.34121,1158.04124 L2003.10177,2304.34179 L-748.341206,2304.34179 L-748.341206,2304.34179 Z M-740.012419,2296.01301 L-740.012419,-443.593148 L401.348678,-1585.01359 L3141.01301,-1585.01359 L3141.01301,1154.5908 L1999.65308,2296.01301 L-740.012419,2296.01301 L-740.012419,2296.01301 Z M-731.684807,2287.68481 L-731.684807,-440.143289 L404.798538,-1576.6854 L3132.68598,-1576.6854 L3132.68598,1151.14153 L1996.20264,2287.68481 L-731.684807,2287.68481 L-731.684807,2287.68481 Z M-723.356608,2279.35661 L-723.356608,-436.694017 L408.24781,-1568.3572 L3124.3572,-1568.3572 L3124.3572,1147.69167 L1992.75337,2279.35661 L-723.356608,2279.35661 L-723.356608,2279.35661 Z M-715.028409,2271.02782 L-715.028409,-433.244158 L411.697081,-1560.029 L3116.02958,-1560.029 L3116.02958,1144.24298 L1989.30292,2271.02782 L-715.028409,2271.02782 L-715.028409,2271.02782 Z M-706.70021,2262.70021 L-706.70021,-429.794298 L415.146941,-1551.7008 L3107.70021,-1551.7008 L3107.70021,1140.79312 L1985.85423,2262.70021 L-706.70021,2262.70021 L-706.70021,2262.70021 Z M-698.372011,2254.37201 L-698.372011,-426.345026 L418.5968,-1543.3726 L3099.3726,-1543.3726 L3099.3726,1137.34326 L1982.40379,2254.37201 L-698.372011,2254.37201 L-698.372011,2254.37201 Z M-690.043812,2246.04381 L-690.043812,-422.895167 L422.04666,-1535.0444 L3091.04381,-1535.0444 L3091.04381,1133.8934 L1978.9551,2246.04381 L-690.043812,2246.04381 L-690.043812,2246.04381 Z M-681.715025,2237.71561 L-681.715025,-419.445895 L425.495344,-1526.7162 L3082.7162,-1526.7162 L3082.7162,1130.44354 L1975.50524,2237.71561 L-681.715025,2237.71561 L-681.715025,2237.71561 Z M-673.387413,2229.388 L-673.387413,-415.995448 L428.945791,-1518.38741 L3074.388,-1518.38741 L3074.388,1126.9931 L1972.0548,2229.388 L-673.387413,2229.388 L-673.387413,2229.388 Z M-665.058626,2221.05921 L-665.058626,-412.546176 L432.39565,-1510.0598 L3066.06039,-1510.0598 L3066.06039,1123.54383 L1968.60553,2221.05921 L-665.058626,2221.05921 L-665.058626,2221.05921 Z M-656.731015,2212.73043 L-656.731015,-409.096317 L435.84551,-1501.7316 L3057.73219,-1501.7316 L3057.73219,1120.09455 L1965.15567,2212.73043 L-656.731015,2212.73043 L-656.731015,2212.73043 Z M-648.402816,2204.40223 L-648.402816,-405.646458 L439.294194,-1493.4034 L3049.40282,-1493.4034 L3049.40282,1116.64469 L1961.70522,2204.40223 L-648.402816,2204.40223 L-648.402816,2204.40223 Z M-640.074617,2196.07403 L-640.074617,-402.196598 L442.745228,-1485.07638 L3041.07579,-1485.07638 L3041.07579,1113.19542 L1958.25536,2196.07403 L-640.074617,2196.07403 Z M-631.747005,2187.74701 L-631.747005,-398.746739 L446.193913,-1476.74759 L3032.74759,-1476.74759 L3032.74759,1109.74556 L1954.80609,2187.74701 L-631.747005,2187.74701 Z M-623.418806,2179.41822 L-623.418806,-395.297467 L449.643772,-1468.41998 L3024.41998,-1468.41998 L3024.41998,1106.29629 L1951.3574,2179.41822 L-623.418806,2179.41822 L-623.418806,2179.41822 Z M-615.090607,2171.08943 L-615.090607,-391.848195 L453.094219,-1460.09119 L3016.09178,-1460.09119 L3016.09178,1102.84761 L1947.90754,2171.08943 L-615.090607,2171.08943 L-615.090607,2171.08943 Z M-606.762995,2162.76182 L-606.762995,-388.398336 L456.542316,-1451.76358 L3007.76417,-1451.76358 L3007.76417,1099.39716 L1944.45768,2162.76182 L-606.762995,2162.76182 L-606.762995,2162.76182 Z M-598.434796,2154.43362 L-598.434796,-384.949064 L459.992175,-1443.43538 L2999.43597,-1443.43538 L2999.43597,1095.94789 L1941.00783,2154.43362 L-598.434796,2154.43362 L-598.434796,2154.43362 Z M-590.106597,2146.10542 L-590.106597,-381.498617 L463.442034,-1435.10718 L2991.10836,-1435.10718 L2991.10836,1092.49744 L1937.55973,2146.10542 L-590.106597,2146.10542 L-590.106597,2146.10542 Z M-581.778398,2137.77722 L-581.778398,-378.049933 L466.891306,-1426.77957 L2982.78016,-1426.77957 L2982.78016,1089.04758 L1934.10928,2137.77722 L-581.778398,2137.77722 L-581.778398,2137.77722 Z M-573.450786,2129.44961 L-573.450786,-374.600073 L470.341166,-1418.45196 L2974.45137,-1418.45196 L2974.45137,1085.59949 L1930.65942,2129.44961 L-573.450786,2129.44961 L-573.450786,2129.44961 Z M-565.123175,2121.12082 L-565.123175,-371.150802 L473.791025,-1410.12376 L2966.12259,-1410.12376 L2966.12259,1082.14904 L1927.20898,2121.12082 L-565.123175,2121.12082 L-565.123175,2121.12082 Z M-556.794388,2112.79262 L-556.794388,-367.700355 L477.240297,-1401.79556 L2957.79439,-1401.79556 L2957.79439,1078.69977 L1923.7597,2112.79262 L-556.794388,2112.79262 L-556.794388,2112.79262 Z M-548.466189,2104.4656 L-548.466189,-364.251083 L480.689568,-1393.46736 L2949.46736,-1393.46736 L2949.46736,1075.24932 L1920.31161,2104.4656 L-548.466189,2104.4656 L-548.466189,2104.4656 Z M-540.137989,2096.13681 L-540.137989,-360.801223 L484.139428,-1385.13916 L2941.13916,-1385.13916 L2941.13916,1071.79946 L1916.86057,2096.13681 L-540.137989,2096.13681 L-540.137989,2096.13681 Z M-531.810378,2087.8092 L-531.810378,-357.351952 L487.589287,-1376.81097 L2932.81155,-1376.81097 L2932.81155,1068.35019 L1913.4113,2087.8092 L-531.810378,2087.8092 L-531.810378,2087.8092 Z M-523.482766,2079.481 L-523.482766,-353.902092 L491.039147,-1368.48335 L2924.48277,-1368.48335 L2924.48277,1064.9015 L1909.96144,2079.481 L-523.482766,2079.481 L-523.482766,2079.481 Z M-515.154567,2071.1528 L-515.154567,-350.452233 L494.488418,-1360.15515 L2916.15515,-1360.15515 L2916.15515,1061.45106 L1906.51217,2071.1528 L-515.154567,2071.1528 L-515.154567,2071.1528 Z M-506.826368,2062.82461 L-506.826368,-347.002373 L497.938278,-1351.82696 L2907.82754,-1351.82696 L2907.82754,1058.00237 L1903.06231,2062.82461 L-506.826368,2062.82461 Z M-498.498169,2054.49699 L-498.498169,-343.553102 L501.388137,-1343.49876 L2899.49876,-1343.49876 L2899.49876,1054.55193 L1899.61363,2054.49699 L-498.498169,2054.49699 Z M-490.169382,2046.16821 L-490.169382,-340.103242 L504.837409,-1335.17056 L2891.17056,-1335.17056 L2891.17056,1051.10265 L1896.16377,2046.16821 L-490.169382,2046.16821 L-490.169382,2046.16821 Z M-481.841183,2037.83942 L-481.841183,-336.652795 L508.287856,-1326.84177 L2882.84177,-1326.84177 L2882.84177,1047.65338 L1892.71391,2037.83942 L-481.841183,2037.83942 L-481.841183,2037.83942 Z M-473.512984,2029.51122 L-473.512984,-333.204699 L511.73654,-1318.51357 L2874.51357,-1318.51357 L2874.51357,1044.20352 L1889.26405,2029.51122 L-473.512984,2029.51122 L-473.512984,2029.51122 Z M-465.184197,2021.18302 L-465.184197,-329.754839 L515.1864,-1310.18537 L2866.1842,-1310.18537 L2866.1842,1040.75308 L1885.8136,2021.18302 L-465.184197,2021.18302 L-465.184197,2021.18302 Z M-456.855998,2012.85482 L-456.855998,-326.30498 L518.636259,-1301.85717 L2857.85659,-1301.85717 L2857.85659,1037.3038 L1882.36433,2012.85482 L-456.855998,2012.85482 L-456.855998,2012.85482 Z M-448.527799,2004.52604 L-448.527799,-322.855708 L522.085531,-1293.52897 L2849.5278,-1293.52897 L2849.5278,1033.85336 L1878.91564,2004.52604 L-448.527799,2004.52604 L-448.527799,2004.52604 Z M-440.1996,1996.19901 L-440.1996,-319.405261 L525.53539,-1285.20019 L2841.1996,-1285.20019 L2841.1996,1030.40526 L1875.4652,1996.19901 L-440.1996,1996.19901 L-440.1996,1996.19901 Z M-431.870813,1987.87081 L-431.870813,-315.955989 L528.98525,-1276.87199 L2832.87081,-1276.87199 L2832.87081,1026.9554 L1872.01534,1987.87081 L-431.870813,1987.87081 L-431.870813,1987.87081 Z M-423.542614,1979.54144 L-423.542614,-312.506718 L532.435109,-1268.5432 L2824.54203,-1268.5432 L2824.54203,1023.50554 L1868.56548,1979.54144 L-423.542614,1979.54144 L-423.542614,1979.54144 Z M-415.214414,1971.21324 L-415.214414,-309.056271 L535.884381,-1260.21559 L2816.21383,-1260.21559 L2816.21383,1020.05568 L1865.11621,1971.21324 L-415.214414,1971.21324 L-415.214414,1971.21324 Z M-406.886215,1962.88504 L-406.886215,-305.608174 L539.333653,-1251.88739 L2807.88563,-1251.88739 L2807.88563,1016.60641 L1861.66635,1962.88504 L-406.886215,1962.88504 L-406.886215,1962.88504 Z M-398.557429,1954.55625 L-398.557429,-302.157727 L542.783512,-1243.5586 L2799.5586,-1243.5586 L2799.5586,1013.15831 L1858.21766,1954.55625 L-398.557429,1954.55625 L-398.557429,1954.55625 Z M-390.229817,1946.22747 L-390.229817,-298.708455 L546.233371,-1235.2304 L2791.22982,-1235.2304 L2791.22982,1009.70787 L1854.76663,1946.22747 L-390.229817,1946.22747 L-390.229817,1946.22747 Z M-381.901618,1937.90103 L-381.901618,-295.258596 L549.683231,-1226.90221 L2782.90162,-1226.90221 L2782.90162,1006.25801 L1851.31736,1937.90103 L-381.901618,1937.90103 L-381.901618,1937.90103 Z M-373.574006,1929.57283 L-373.574006,-291.809324 L553.134265,-1218.57401 L2774.57224,-1218.57401 L2774.57224,1002.80815 L1847.8675,1929.57283 L-373.574006,1929.57283 Z M-365.244632,1921.24404 L-365.244632,-288.359465 L556.584125,-1210.24639 L2766.24522,-1210.24639 L2766.24522,999.359465 L1844.41764,1921.24404 L-365.244632,1921.24404 Z M-356.91702,1912.91467 L-356.91702,-284.91078 L560.033984,-1201.91761 L2757.91761,-1201.91761 L2757.91761,995.909018 L1840.96719,1912.91467 L-356.91702,1912.91467 L-356.91702,1912.91467 Z M-348.588821,1904.58765 L-348.588821,-281.460333 L563.482668,-1193.59 L2749.58882,-1193.59 L2749.58882,992.459746 L1837.51792,1904.58765 L-348.588821,1904.58765 L-348.588821,1904.58765 Z M-340.260034,1896.25945 L-340.260034,-278.011062 L566.932528,-1185.26121 L2741.26003,-1185.26121 L2741.26003,989.009299 L1834.06747,1896.25945 L-340.260034,1896.25945 L-340.260034,1896.25945 Z M-331.932423,1887.93125 L-331.932423,-274.561202 L570.382975,-1176.93301 L2732.93242,-1176.93301 L2732.93242,985.560027 L1830.61761,1887.93125 L-331.932423,1887.93125 L-331.932423,1887.93125 Z M-323.604224,1879.60246 L-323.604224,-271.11193 L573.832834,-1168.60481 L2724.60422,-1168.60481 L2724.60422,982.111343 L1827.16775,1879.60246 L-323.604224,1879.60246 L-323.604224,1879.60246 Z M-315.276025,1871.27544 L-315.276025,-267.662071 L577.283869,-1160.27661 L2716.27544,-1160.27661 L2716.27544,978.661483 L1823.71672,1871.27544 L-315.276025,1871.27544 L-315.276025,1871.27544 Z M-306.947825,1862.94665 L-306.947825,-264.212212 L580.733728,-1151.949 L2707.94724,-1151.949 L2707.94724,975.211036 L1820.26627,1862.94665 L-306.947825,1862.94665 L-306.947825,1862.94665 Z M-298.619626,1854.61786 L-298.619626,-260.763527 L584.183588,-1143.6208 L2699.62021,-1143.6208 L2699.62021,971.762352 L1816.81759,1854.61786 L-298.619626,1854.61786 L-298.619626,1854.61786 Z M-290.291427,1846.29025 L-290.291427,-257.313668 L587.633447,-1135.2926 L2691.29143,-1135.2926 L2691.29143,968.31308 L1813.36773,1846.29025 L-290.291427,1846.29025 L-290.291427,1846.29025 Z M-281.963815,1837.96264 L-281.963815,-253.863809 L591.082131,-1126.9644 L2682.96264,-1126.9644 L2682.96264,964.863809 L1809.91787,1837.96264 L-281.963815,1837.96264 L-281.963815,1837.96264 Z M-273.635029,1829.63385 L-273.635029,-250.413949 L594.531991,-1118.63679 L2674.63562,-1118.63679 L2674.63562,961.413362 L1806.46742,1829.63385 L-273.635029,1829.63385 L-273.635029,1829.63385 Z M-265.307417,1821.30683 L-265.307417,-246.965265 L597.98185,-1110.308 L2666.30742,-1110.308 L2666.30742,957.963502 L1803.01874,1821.30683 L-265.307417,1821.30683 L-265.307417,1821.30683 Z M-256.979218,1812.97863 L-256.979218,-243.514818 L601.433472,-1101.97981 L2657.97863,-1101.97981 L2657.97863,954.513643 L1799.56829,1812.97863 L-256.979218,1812.97863 L-256.979218,1812.97863 Z M-248.651019,1804.64984 L-248.651019,-240.066134 L604.883332,-1093.65278 L2649.65102,-1093.65278 L2649.65102,951.064959 L1796.11902,1804.64984 L-248.651019,1804.64984 L-248.651019,1804.64984 Z M-240.32282,1796.32223 L-240.32282,-236.616274 L608.333191,-1085.32399 L2641.32282,-1085.32399 L2641.32282,947.615099 L1792.66857,1796.32223 L-240.32282,1796.32223 Z M-231.995208,1787.99403 L-231.995208,-233.166415 L611.78305,-1076.99638 L2632.9958,-1076.99638 L2632.9958,944.16524 L1789.21754,1787.99403 L-231.995208,1787.99403 Z M-223.667009,1779.66525 L-223.667009,-229.717143 L615.23291,-1068.66818 L2624.66701,-1068.66818 L2624.66701,940.714793 L1785.76768,1779.66525 L-223.667009,1779.66525 L-223.667009,1779.66525 Z M-215.33881,1771.33763 L-215.33881,-226.267871 L618.681594,-1060.33998 L2616.33881,-1060.33998 L2616.33881,937.266696 L1782.31782,1771.33763 L-215.33881,1771.33763 L-215.33881,1771.33763 Z M-207.011198,1763.01002 L-207.011198,-222.817424 L622.131453,-1052.01179 L2608.0112,-1052.01179 L2608.0112,933.817424 L1778.86796,1763.01002 L-207.011198,1763.01002 L-207.011198,1763.01002 Z M-198.682999,1754.683 L-198.682999,-219.36874 L625.581313,-1043.68359 L2599.68241,-1043.68359 L2599.68241,930.366977 L1775.4181,1754.683 L-198.682999,1754.683 L-198.682999,1754.683 Z M-190.355388,1746.35421 L-190.355388,-215.918881 L629.032347,-1035.35656 L2591.3548,-1035.35656 L2591.3548,926.918293 L1771.96824,1746.35421 L-190.355388,1746.35421 L-190.355388,1746.35421 Z M-182.027188,1738.0266 L-182.027188,-212.469609 L632.481032,-1027.02778 L2583.02719,-1027.02778 L2583.02719,923.469021 L1768.51897,1738.0266 L-182.027188,1738.0266 L-182.027188,1738.0266 Z M-173.698989,1729.69781 L-173.698989,-209.01975 L635.930891,-1018.70016 L2574.70016,-1018.70016 L2574.70016,920.019162 L1765.06852,1729.69781 L-173.698989,1729.69781 L-173.698989,1729.69781 Z M-165.371378,1721.36961 L-165.371378,-205.570478 L639.38075,-1010.37255 L2566.37138,-1010.37255 L2566.37138,916.569303 L1761.61925,1721.36961 L-165.371378,1721.36961 L-165.371378,1721.36961 Z M-157.043178,1713.04259 L-157.043178,-202.120618 L642.831197,-1002.04435 L2558.04435,-1002.04435 L2558.04435,913.119443 L1758.16939,1713.04259 L-157.043178,1713.04259 L-157.043178,1713.04259 Z M-148.714979,1704.71439 L-148.714979,-198.671934 L646.281057,-993.716155 L2549.71498,-993.716155 L2549.71498,909.670171 L1754.71894,1704.71439 L-148.714979,1704.71439 L-148.714979,1704.71439 Z M-140.387368,1696.38619 L-140.387368,-195.221487 L649.730916,-985.387955 L2541.38796,-985.387955 L2541.38796,906.2209 L1751.26908,1696.38619 L-140.387368,1696.38619 L-140.387368,1696.38619 Z M-132.059756,1688.05741 L-132.059756,-191.771628 L653.180776,-977.060931 L2533.06034,-977.060931 L2533.06034,902.770453 L1747.81981,1688.05741 L-132.059756,1688.05741 L-132.059756,1688.05741 Z M-123.730969,1679.72979 L-123.730969,-188.322356 L656.630635,-968.732732 L2524.73273,-968.732732 L2524.73273,899.321181 L1744.36995,1679.72979 L-123.730969,1679.72979 L-123.730969,1679.72979 Z M-115.403358,1671.40277 L-115.403358,-184.873084 L660.079319,-960.403945 L2516.40395,-960.403945 L2516.40395,895.872497 L1740.92009,1671.40277 L-115.403358,1671.40277 L-115.403358,1671.40277 Z M-107.075159,1663.07398 L-107.075159,-181.423813 L663.529179,-952.076334 L2508.07516,-952.076334 L2508.07516,892.422637 L1737.47023,1663.07398 L-107.075159,1663.07398 Z M-98.7469596,1654.7452 L-98.7469596,-177.973953 L666.979626,-943.748135 L2499.74637,-943.748135 L2499.74637,888.972778 L1734.02037,1654.7452 L-98.7469596,1654.7452 Z M-90.4187604,1646.417 L-90.4187604,-174.524681 L670.429485,-935.419936 L2491.41935,-935.419936 L2491.41935,885.523506 L1730.56993,1646.417 L-90.4187604,1646.417 L-90.4187604,1646.417 Z M-82.0905612,1638.08939 L-82.0905612,-171.074822 L673.879344,-927.091736 L2483.09115,-927.091736 L2483.09115,882.074822 L1727.12124,1638.08939 L-82.0905612,1638.08939 L-82.0905612,1638.08939 Z M-73.7617745,1629.7606 L-73.7617745,-167.626138 L677.329204,-918.763537 L2474.76295,-918.763537 L2474.76295,878.624963 L1723.6708,1629.7606 L-73.7617745,1629.7606 L-73.7617745,1629.7606 Z M-65.4341629,1621.43299 L-65.4341629,-164.176278 L680.779063,-910.435338 L2466.43416,-910.435338 L2466.43416,875.175103 L1720.22094,1621.43299 L-65.4341629,1621.43299 L-65.4341629,1621.43299 Z M-57.1065514,1613.1042 L-57.1065514,-160.727007 L684.228923,-902.106551 L2458.10655,-902.106551 L2458.10655,871.725244 L1716.77108,1613.1042 L-57.1065514,1613.1042 L-57.1065514,1613.1042 Z M-48.7783522,1604.77659 L-48.7783522,-157.277147 L687.678782,-893.77894 L2449.77776,-893.77894 L2449.77776,868.27656 L1713.32122,1604.77659 L-48.7783522,1604.77659 L-48.7783522,1604.77659 Z M-40.450153,1596.4478 L-40.450153,-153.827875 L691.128641,-885.450741 L2441.45015,-885.450741 L2441.45015,864.826113 L1709.87136,1596.4478 L-40.450153,1596.4478 L-40.450153,1596.4478 Z M-32.1219539,1588.12019 L-32.1219539,-150.378016 L694.578501,-877.123129 L2433.12254,-877.123129 L2433.12254,861.376841 L1706.42209,1588.12019 L-32.1219539,1588.12019 L-32.1219539,1588.12019 Z M-23.7931671,1579.79317 L-23.7931671,-146.928744 L698.02836,-868.79493 L2424.79375,-868.79493 L2424.79375,857.927569 L1702.97223,1579.79317 L-23.7931671,1579.79317 L-23.7931671,1579.79317 Z M-15.4655555,1571.46379 L-15.4655555,-143.478885 L701.47822,-860.466731 L2416.46556,-860.466731 L2416.46556,854.47771 L1699.52237,1571.46379 L-15.4655555,1571.46379 L-15.4655555,1571.46379 Z M-7.1385316,1563.13559 L-7.1385316,-140.029613 L704.927491,-852.139119 L2408.13853,-852.139119 L2408.13853,851.028438 L1696.07251,1563.13559 L-7.1385316,1563.13559 L-7.1385316,1563.13559 Z M1.19084278,1554.80798 L1.19084278,-136.579754 L708.377938,-843.81092 L2399.80974,-843.81092 L2399.80974,847.578578 L1692.62265,1554.80798 L1.19084278,1554.80798 L1.19084278,1554.80798 Z M9.51845433,1546.47978 L9.51845433,-133.130482 L711.827798,-835.482721 L2391.48096,-835.482721 L2391.48096,844.129307 L1689.17279,1546.47978 L9.51845433,1546.47978 L9.51845433,1546.47978 Z M17.8466535,1538.15335 L17.8466535,-129.680622 L715.277657,-827.154522 L2383.15393,-827.154522 L2383.15393,840.680622 L1685.72234,1538.15335 L17.8466535,1538.15335 L17.8466535,1538.15335 Z M26.1748527,1529.82456 L26.1748527,-126.231351 L718.726929,-818.826323 L2374.82515,-818.826323 L2374.82515,837.230175 L1682.27307,1529.82456 L26.1748527,1529.82456 Z M34.5030518,1521.49577 L34.5030518,-122.782079 L722.176788,-810.498711 L2366.49754,-810.498711 L2366.49754,833.781491 L1678.82321,1521.49577 L34.5030518,1521.49577 Z M42.8306634,1513.16757 L42.8306634,-119.332219 L725.626648,-802.171099 L2358.16992,-802.171099 L2358.16992,830.331632 L1675.37394,1513.16757 L42.8306634,1513.16757 L42.8306634,1513.16757 Z M51.1588625,1504.83996 L51.1588625,-115.883535 L729.07592,-793.8429 L2349.84173,-793.8429 L2349.84173,826.881772 L1671.92349,1504.83996 L51.1588625,1504.83996 L51.1588625,1504.83996 Z M59.4870617,1496.51176 L59.4870617,-112.433676 L732.525779,-785.514701 L2341.51411,-785.514701 L2341.51411,823.433088 L1668.47481,1496.51176 L59.4870617,1496.51176 L59.4870617,1496.51176 Z M67.8140856,1488.18415 L67.8140856,-108.984404 L735.975638,-777.18709 L2333.18591,-777.18709 L2333.18591,819.983229 L1665.02436,1488.18415 L67.8140856,1488.18415 L67.8140856,1488.18415 Z M76.1428724,1479.85595 L76.1428724,-105.534545 L739.425498,-768.85889 L2324.85772,-768.85889 L2324.85772,816.533369 L1661.57568,1479.85595 L76.1428724,1479.85595 L76.1428724,1479.85595 Z M84.470484,1471.52834 L84.470484,-102.08586 L742.875357,-760.531279 L2316.52952,-760.531279 L2316.52952,813.084685 L1658.12523,1471.52834 L84.470484,1471.52834 L84.470484,1471.52834 Z M92.7992707,1463.19955 L92.7992707,-98.6354135 L746.325217,-752.20308 L2308.20249,-752.20308 L2308.20249,809.634826 L1654.67596,1463.19955 L92.7992707,1463.19955 L92.7992707,1463.19955 Z M101.126882,1454.87253 L101.126882,-95.1867293 L749.775076,-743.875468 L2299.87371,-743.875468 L2299.87371,806.184966 L1651.2261,1454.87253 L101.126882,1454.87253 L101.126882,1454.87253 Z M109.454494,1446.54433 L109.454494,-91.7368699 L753.224935,-735.547269 L2291.54551,-735.547269 L2291.54551,802.735695 L1647.77624,1446.54433 L109.454494,1446.54433 L109.454494,1446.54433 Z M117.782105,1438.21554 L117.782105,-88.2870105 L756.674795,-727.21907 L2283.21731,-727.21907 L2283.21731,799.286423 L1644.32579,1438.21554 L117.782105,1438.21554 L117.782105,1438.21554 Z M126.110305,1429.88852 L126.110305,-84.8377387 L760.123479,-718.891458 L2274.8897,-718.891458 L2274.8897,795.837151 L1640.87652,1429.88852 L126.110305,1429.88852 L126.110305,1429.88852 Z M134.439091,1421.55973 L134.439091,-81.3884669 L763.573926,-710.562672 L2266.5615,-710.562672 L2266.5615,792.387292 L1637.42607,1421.55973 L134.439091,1421.55973 L134.439091,1421.55973 Z M142.766703,1413.23153 L142.766703,-77.9380199 L767.023198,-702.234472 L2258.23388,-702.234472 L2258.23388,788.938607 L1633.9768,1413.23153 L142.766703,1413.23153 L142.766703,1413.23153 Z M151.09549,1404.90392 L151.09549,-74.4893357 L770.473057,-693.906861 L2249.90569,-693.906861 L2249.90569,785.48816 L1630.52694,1404.90392 L151.09549,1404.90392 L151.09549,1404.90392 Z M159.423101,1396.57572 L159.423101,-71.0400639 L773.923504,-685.578662 L2241.57807,-685.578662 L2241.57807,782.038889 L1627.07708,1396.57572 L159.423101,1396.57572 Z M167.7513,1388.24694 L167.7513,-67.5896169 L777.372776,-677.250462 L2233.24929,-677.250462 L2233.24929,778.588442 L1623.62781,1388.24694 L167.7513,1388.24694 Z M176.0795,1379.91933 L176.0795,-64.1409327 L780.822635,-668.922263 L2224.9205,-668.922263 L2224.9205,775.140345 L1620.17795,1379.91933 L176.0795,1379.91933 L176.0795,1379.91933 Z M184.407111,1371.59171 L184.407111,-60.6910733 L784.272495,-660.594652 L2216.59406,-660.594652 L2216.59406,771.689898 L1616.72868,1371.59171 L184.407111,1371.59171 L184.407111,1371.59171 Z M192.73531,1363.26351 L192.73531,-57.2418015 L787.722354,-652.265865 L2208.26528,-652.265865 L2208.26528,768.240039 L1613.27882,1363.26351 L192.73531,1363.26351 L192.73531,1363.26351 Z M201.063509,1354.93532 L201.063509,-53.7919421 L791.171626,-643.937666 L2199.93649,-643.937666 L2199.93649,764.791355 L1609.82896,1354.93532 L201.063509,1354.93532 L201.063509,1354.93532 Z M209.391709,1346.60653 L209.391709,-50.3420827 L794.620898,-635.610054 L2191.60947,-635.610054 L2191.60947,761.342083 L1606.3791,1346.60653 L209.391709,1346.60653 L209.391709,1346.60653 Z M217.719908,1338.27833 L217.719908,-46.8928109 L798.070757,-627.281855 L2183.28068,-627.281855 L2183.28068,757.892223 L1602.92866,1338.27833 L217.719908,1338.27833 L217.719908,1338.27833 Z M226.048107,1329.95013 L226.048107,-43.4441268 L801.520617,-618.953656 L2174.95189,-618.953656 L2174.95189,754.444127 L1599.47938,1329.95013 L226.048107,1329.95013 L226.048107,1329.95013 Z M234.376306,1321.62311 L234.376306,-39.9942674 L804.970476,-610.625457 L2166.62311,-610.625457 L2166.62311,750.994267 L1596.02894,1321.62311 L234.376306,1321.62311 L234.376306,1321.62311 Z M242.703918,1313.29491 L242.703918,-36.5449956 L808.419748,-602.297258 L2158.29667,-602.297258 L2158.29667,747.544996 L1592.57966,1313.29491 L242.703918,1313.29491 L242.703918,1313.29491 Z M251.032117,1304.96612 L251.032117,-33.0957238 L811.869607,-593.969058 L2149.96788,-593.969058 L2149.96788,744.095724 L1589.12981,1304.96612 L251.032117,1304.96612 L251.032117,1304.96612 Z M259.361491,1296.63733 L259.361491,-29.6458644 L815.320054,-585.641447 L2141.6391,-585.641447 L2141.6391,740.645277 L1585.68171,1296.63733 L259.361491,1296.63733 L259.361491,1296.63733 Z M267.689103,1288.30972 L267.689103,-26.1965926 L818.769326,-577.31266 L2133.31148,-577.31266 L2133.31148,737.196593 L1582.23126,1288.30972 L267.689103,1288.30972 L267.689103,1288.30972 Z M276.017302,1279.98152 L276.017302,-22.7473208 L822.218598,-568.984461 L2124.98387,-568.984461 L2124.98387,733.746733 L1578.78199,1279.98152 L276.017302,1279.98152 L276.017302,1279.98152 Z M284.345501,1271.65332 L284.345501,-19.298049 L825.668457,-560.656262 L2116.65567,-560.656262 L2116.65567,730.298049 L1575.33272,1271.65332 L284.345501,1271.65332 L284.345501,1271.65332 Z M292.6737,1263.32454 L292.6737,-15.8481896 L829.118317,-552.328063 L2108.3263,-552.328063 L2108.3263,726.847602 L1571.88168,1263.32454 L292.6737,1263.32454 Z M301.001312,1254.99751 L301.001312,-12.3995054 L832.568176,-543.999863 L2099.99751,-543.999863 L2099.99751,723.39833 L1568.433,1254.99751 L301.001312,1254.99751 Z M309.328923,1246.66873 L309.328923,-8.94964603 L836.018035,-535.671664 L2091.67049,-535.671664 L2091.67049,719.950234 L1564.98255,1246.66873 L309.328923,1246.66873 L309.328923,1246.66873 Z M317.65771,1238.34053 L317.65771,-5.50096185 L839.467307,-527.344053 L2083.34229,-527.344053 L2083.34229,716.499787 L1561.53269,1238.34053 L317.65771,1238.34053 L317.65771,1238.34053 Z M325.985909,1230.0135 L325.985909,-2.05051484 L842.917167,-519.016441 L2075.01527,-519.016441 L2075.01527,713.050515 L1558.08283,1230.0135 L325.985909,1230.0135 L325.985909,1230.0135 Z M334.314108,1221.68472 L334.314108,1.39816934 L846.367026,-510.687654 L2066.68707,-510.687654 L2066.68707,709.601831 L1554.63297,1221.68472 L334.314108,1221.68472 L334.314108,1221.68472 Z M342.642308,1213.3571 L342.642308,4.84802874 L849.817473,-502.359455 L2058.35828,-502.359455 L2058.35828,706.151971 L1551.18311,1213.3571 L342.642308,1213.3571 L342.642308,1213.3571 Z M350.969919,1205.02832 L350.969919,8.29730053 L853.267332,-494.031844 L2050.03067,-494.031844 L2050.03067,702.703287 L1547.73208,1205.02832 L350.969919,1205.02832 L350.969919,1205.02832 Z M359.297531,1196.70188 L359.297531,11.7465723 L856.716604,-485.703645 L2041.70188,-485.703645 L2041.70188,699.253428 L1544.2834,1196.70188 L359.297531,1196.70188 Z M367.62573,1188.37368 L367.62573,15.1964317 L860.166464,-477.376033 L2033.37368,-477.376033 L2033.37368,695.802981 L1540.83412,1188.37368 L367.62573,1188.37368 Z M375.953929,1180.04431 L375.953929,18.6457035 L863.616323,-469.047834 L2025.04666,-469.047834 L2025.04666,692.354884 L1537.38368,1180.04431 L375.953929,1180.04431 L375.953929,1180.04431 Z M384.282716,1171.71728 L384.282716,22.0943877 L867.066182,-460.719635 L2016.71846,-460.719635 L2016.71846,688.904437 L1533.93441,1171.71728 L384.282716,1171.71728 L384.282716,1171.71728 Z M392.610327,1163.3885 L392.610327,25.5448347 L870.516042,-452.391436 L2008.38967,-452.391436 L2008.38967,685.455165 L1530.48455,1163.3885 L392.610327,1163.3885 L392.610327,1163.3885 Z M400.937351,1155.0603 L400.937351,28.9941065 L873.965901,-444.062649 L2000.06206,-444.062649 L2000.06206,682.005894 L1527.03469,1155.0603 L400.937351,1155.0603 L400.937351,1155.0603 Z M409.26555,1146.73386 L409.26555,32.4422031 L877.416348,-435.735037 L1991.73386,-435.735037 L1991.73386,678.556622 L1523.58483,1146.73386 L409.26555,1146.73386 L409.26555,1146.73386 Z M417.59375,1138.40508 L417.59375,35.8926501 L880.866208,-427.406838 L1983.40625,-427.406838 L1983.40625,675.10735 L1520.13497,1138.40508 L417.59375,1138.40508 L417.59375,1138.40508 Z M425.922536,1130.07629 L425.922536,39.3419219 L884.316067,-419.078639 L1975.07805,-419.078639 L1975.07805,671.658078 L1516.68511,1130.07629 L425.922536,1130.07629 L425.922536,1130.07629 Z M434.250148,1121.74691 L434.250148,42.7911937 L887.765339,-410.751027 L1966.74926,-410.751027 L1966.74926,668.208219 L1513.23525,1121.74691 L434.250148,1121.74691 L434.250148,1121.74691 Z M442.578935,1113.42048 L442.578935,46.2404654 L891.215198,-402.422241 L1958.42224,-402.422241 L1958.42224,664.758947 L1509.7848,1113.42048 L442.578935,1113.42048 L442.578935,1113.42048 Z M450.906546,1105.09169 L450.906546,49.6897372 L894.665645,-394.094629 L1950.09404,-394.094629 L1950.09404,661.309088 L1506.33494,1105.09169 L450.906546,1105.09169 L450.906546,1105.09169 Z M459.234745,1096.76349 L459.234745,53.1395966 L898.114917,-385.765842 L1941.76525,-385.765842 L1941.76525,657.859816 L1502.88508,1096.76349 L459.234745,1096.76349 L459.234745,1096.76349 Z M467.562945,1088.43471 L467.562945,56.5888684 L901.564189,-377.438231 L1933.43764,-377.438231 L1933.43764,654.410544 L1499.4364,1088.43471 L467.562945,1088.43471 L467.562945,1088.43471 Z M475.889968,1080.10768 L475.889968,60.0387278 L905.014048,-369.109444 L1925.10944,-369.109444 L1925.10944,650.960097 L1495.98595,1080.10768 L475.889968,1080.10768 L475.889968,1080.10768 Z M484.218755,1071.77889 L484.218755,63.4879996 L908.46332,-360.781832 L1916.78007,-360.781832 L1916.78007,647.510825 L1492.53609,1071.77889 L484.218755,1071.77889 L484.218755,1071.77889 Z M492.546954,1063.45128 L492.546954,66.9372714 L911.913767,-352.453633 L1908.45187,-352.453633 L1908.45187,644.061553 L1489.08623,1063.45128 L492.546954,1063.45128 Z M500.875154,1055.12367 L500.875154,70.3877184 L915.363626,-344.126022 L1900.12485,-344.126022 L1900.12485,640.611694 L1485.63696,1055.12367 L500.875154,1055.12367 Z M509.203353,1046.79488 L509.203353,73.8364026 L918.812898,-335.797235 L1891.79665,-335.797235 L1891.79665,637.161835 L1482.1871,1046.79488 L509.203353,1046.79488 L509.203353,1046.79488 Z M517.530964,1038.46727 L517.530964,77.2856744 L922.262758,-327.469623 L1883.46786,-327.469623 L1883.46786,633.712563 L1478.73724,1038.46727 L517.530964,1038.46727 L517.530964,1038.46727 Z M525.859163,1030.13907 L525.859163,80.7355338 L925.712617,-319.141424 L1875.14025,-319.141424 L1875.14025,630.263291 L1475.2868,1030.13907 L525.859163,1030.13907 L525.859163,1030.13907 Z M534.187363,1021.81087 L534.187363,84.1848056 L929.162476,-310.813813 L1866.81205,-310.813813 L1866.81205,626.814019 L1471.83811,1021.81087 L534.187363,1021.81087 L534.187363,1021.81087 Z M542.514974,1013.48385 L542.514974,87.634665 L932.611161,-302.485613 L1858.48385,-302.485613 L1858.48385,623.36416 L1468.38825,1013.48385 L542.514974,1013.48385 L542.514974,1013.48385 Z M550.843761,1005.15448 L550.843761,91.0839368 L936.061608,-294.157414 L1850.15683,-294.157414 L1850.15683,619.9143 L1464.93839,1005.15448 L550.843761,1005.15448 L550.843761,1005.15448 Z M559.171373,996.826277 L559.171373,94.5337962 L939.511467,-285.828627 L1841.82863,-285.828627 L1841.82863,616.466204 L1461.48853,996.826277 L559.171373,996.826277 L559.171373,996.826277 Z M567.500159,988.49749 L567.500159,97.9824803 L942.961326,-277.501604 L1833.49984,-277.501604 L1833.49984,613.015757 L1458.03867,988.49749 L567.500159,988.49749 L567.500159,988.49749 Z M575.827183,980.170466 L575.827183,101.432927 L946.411186,-269.172229 L1825.17105,-269.172229 L1825.17105,609.565897 L1454.58881,980.170466 L575.827183,980.170466 L575.827183,980.170466 Z M584.156558,971.842855 L584.156558,104.882199 L949.861045,-260.84403 L1816.84403,-260.84403 L1816.84403,606.116038 L1451.13954,971.842855 L584.156558,971.842855 L584.156558,971.842855 Z M592.483582,963.514068 L592.483582,108.331471 L953.309729,-252.516418 L1808.51524,-252.516418 L1808.51524,602.667354 L1447.6891,963.514068 L592.483582,963.514068 L592.483582,963.514068 Z M600.812368,955.186456 L600.812368,111.78133 L956.759589,-244.188807 L1800.18822,-244.188807 L1800.18822,599.217494 L1444.23982,955.186456 L600.812368,955.186456 L600.812368,955.186456 Z M609.13998,946.85767 L609.13998,115.230602 L960.210036,-235.86002 L1791.86002,-235.86002 L1791.86002,595.767635 L1440.78996,946.85767 L609.13998,946.85767 L609.13998,946.85767 Z M617.468767,938.529471 L617.468767,118.680462 L963.660483,-227.531233 L1783.53065,-227.531233 L1783.53065,592.317188 L1437.33952,938.529471 L617.468767,938.529471 L617.468767,938.529471 Z M625.796966,930.201859 L625.796966,122.130321 L967.109755,-219.204209 L1775.20245,-219.204209 L1775.20245,588.869091 L1433.89025,930.201859 L625.796966,930.201859 Z M634.124577,921.87366 L634.124577,125.579593 L970.559026,-210.875423 L1766.87542,-210.875423 L1766.87542,585.419232 L1430.44039,921.87366 L634.124577,921.87366 Z M642.452777,913.545461 L642.452777,129.028865 L974.008886,-202.547223 L1758.54664,-202.547223 L1758.54664,581.969373 L1426.99053,913.545461 L642.452777,913.545461 L642.452777,913.545461 Z M650.781563,905.216674 L650.781563,132.478724 L977.458745,-194.219612 L1750.21844,-194.219612 L1750.21844,578.520101 L1423.54067,905.216674 L650.781563,905.216674 L650.781563,905.216674 Z M659.109175,896.889062 L659.109175,135.927408 L980.908605,-185.891413 L1741.88965,-185.891413 L1741.88965,575.071417 L1420.09022,896.889062 L659.109175,896.889062 L659.109175,896.889062 Z M667.437374,888.560863 L667.437374,139.377267 L984.358464,-177.562626 L1733.56263,-177.562626 L1733.56263,571.62097 L1416.64095,888.560863 L667.437374,888.560863 L667.437374,888.560863 Z M675.766161,880.232664 L675.766161,142.826539 L987.808323,-169.235014 L1725.23443,-169.235014 L1725.23443,568.171698 L1413.1905,880.232664 L675.766161,880.232664 L675.766161,880.232664 Z M684.093772,871.905052 L684.093772,146.276399 L991.25877,-160.907403 L1716.90564,-160.907403 L1716.90564,564.722426 L1409.74123,871.905052 L684.093772,871.905052 L684.093772,871.905052 Z M692.421971,863.576266 L692.421971,149.72567 L994.70863,-152.578616 L1708.5792,-152.578616 L1708.5792,561.273154 L1406.29137,863.576266 L692.421971,863.576266 L692.421971,863.576266 Z M700.749583,855.248067 L700.749583,153.17553 L998.158489,-144.249829 L1700.24983,-144.249829 L1700.24983,557.822707 L1402.84151,855.248067 L700.749583,855.248067 L700.749583,855.248067 Z M709.07837,846.919867 L709.07837,156.624802 L1001.60776,-135.922805 L1691.92045,-135.922805 L1691.92045,554.372848 L1399.39165,846.919867 L709.07837,846.919867 L709.07837,846.919867 Z M717.406569,838.592256 L717.406569,160.074661 L1005.05762,-127.594019 L1683.59226,-127.594019 L1683.59226,550.924751 L1395.94179,838.592256 L717.406569,838.592256 L717.406569,838.592256 Z M725.734768,830.264057 L725.734768,163.523933 L1008.50748,-119.265819 L1675.26582,-119.265819 L1675.26582,547.474892 L1392.49252,830.264057 L725.734768,830.264057 L725.734768,830.264057 Z M734.062967,821.93527 L734.062967,166.973792 L1011.95675,-110.938208 L1666.93762,-110.938208 L1666.93762,544.025033 L1389.04266,821.93527 L734.062967,821.93527 L734.062967,821.93527 Z M742.391754,813.606483 L742.391754,170.423064 L1015.4072,-102.610009 L1658.60883,-102.610009 L1658.60883,540.575761 L1385.59221,813.606483 L742.391754,813.606483 L742.391754,813.606483 Z M750.718778,805.279459 L750.718778,173.872336 L1018.85706,-94.281222 L1650.28063,-94.281222 L1650.28063,537.126489 L1382.14294,805.279459 L750.718778,805.279459 L750.718778,805.279459 Z M759.046977,796.951848 L759.046977,177.321608 L1022.30692,-85.9530228 L1641.95244,-85.9530228 L1641.95244,533.67663 L1378.6925,796.951848 L759.046977,796.951848 Z M767.375764,788.623061 L767.375764,180.771467 L1025.75678,-77.6254113 L1633.62424,-77.6254113 L1633.62424,530.227358 L1375.24322,788.623061 L767.375764,788.623061 Z M775.703376,780.294274 L775.703376,184.220739 L1029.20664,-69.2972121 L1625.29604,-69.2972121 L1625.29604,526.776911 L1371.79219,780.294274 L775.703376,780.294274 L775.703376,780.294274 Z M784.032162,771.966662 L784.032162,187.670598 L1032.6565,-60.9690129 L1616.96784,-60.9690129 L1616.96784,523.328227 L1368.34292,771.966662 L784.032162,771.966662 L784.032162,771.966662 Z M792.360361,763.638463 L792.360361,191.11987 L1036.10635,-52.6414014 L1608.64023,-52.6414014 L1608.64023,519.878367 L1364.89306,763.638463 L792.360361,763.638463 L792.360361,763.638463 Z M800.688561,755.309677 L800.688561,194.569142 L1039.55621,-44.3126146 L1600.31144,-44.3126146 L1600.31144,516.428508 L1361.44379,755.309677 L800.688561,755.309677 L800.688561,755.309677 Z M809.01676,746.981477 L809.01676,198.019001 L1043.00607,-35.9838278 L1591.98324,-35.9838278 L1591.98324,512.978648 L1357.99393,746.981477 L809.01676,746.981477 L809.01676,746.981477 Z M817.344371,738.654453 L817.344371,201.468273 L1046.45535,-27.6562163 L1583.65445,-27.6562163 L1583.65445,509.529964 L1354.54407,738.654453 L817.344371,738.654453 L817.344371,738.654453 Z M825.673158,730.325667 L825.673158,204.917545 L1049.9052,-19.3280171 L1575.32743,-19.3280171 L1575.32743,506.079517 L1351.0948,730.325667 L825.673158,730.325667 L825.673158,730.325667 Z M834.00077,721.997468 L834.00077,208.367404 L1053.35506,-10.999818 L1566.99864,-10.999818 L1566.99864,502.630833 L1347.64494,721.997468 L834.00077,721.997468 L834.00077,721.997468 Z M842.329556,713.669268 L842.329556,211.817264 L1056.80492,-2.6716188 L1558.67044,-2.6716188 L1558.67044,499.180386 L1344.19508,713.669268 L842.329556,713.669268 L842.329556,713.669268 Z M850.657168,705.341657 L850.657168,215.265948 L1060.25478,5.65599275 L1550.34166,5.65599275 L1550.34166,495.732289 L1340.74522,705.341657 L850.657168,705.341657 L850.657168,705.341657 Z M858.985955,697.01287 L858.985955,218.716395 L1063.70464,13.9847795 L1542.01463,13.9847795 L1542.01463,492.283018 L1337.29536,697.01287 L858.985955,697.01287 L858.985955,697.01287 Z M867.312979,688.684083 L867.312979,222.165079 L1067.1545,22.3129787 L1533.68702,22.3129787 L1533.68702,488.832571 L1333.84491,688.684083 L867.312979,688.684083 L867.312979,688.684083 Z M875.642941,680.355884 L875.642941,225.614938 L1070.60436,30.6411778 L1525.35765,30.6411778 L1525.35765,485.382711 L1330.39446,680.355884 L875.642941,680.355884 L875.642941,680.355884 Z M883.970552,672.029448 L883.970552,229.064798 L1074.05481,38.969377 L1517.02945,38.969377 L1517.02945,481.934027 L1326.94519,672.029448 L883.970552,672.029448 L883.970552,672.029448 Z M892.298751,663.700661 L892.298751,232.51407 L1077.50408,47.2975762 L1508.70125,47.2975762 L1508.70125,478.484168 L1323.49592,663.700661 L892.298751,663.700661 Z M900.626951,655.372462 L900.626951,235.963341 L1080.95453,55.6257753 L1500.37305,55.6257753 L1500.37305,475.034308 L1320.04547,655.372462 L900.626951,655.372462 Z M908.954562,647.043087 L908.954562,239.413201 L1084.4038,63.9533869 L1492.04485,63.9533869 L1492.04485,471.584449 L1316.5962,647.043087 L908.954562,647.043087 L908.954562,647.043087 Z M917.282761,638.715476 L917.282761,242.86306 L1087.85425,72.2821737 L1483.71665,72.2821737 L1483.71665,468.135177 L1313.14634,638.715476 L917.282761,638.715476 L917.282761,638.715476 Z M925.611548,630.387277 L925.611548,246.312332 L1091.30352,80.6103728 L1475.38904,80.6103728 L1475.38904,464.685905 L1309.69589,630.387277 L925.611548,630.387277 L925.611548,630.387277 Z M933.93916,622.059665 L933.93916,249.762191 L1094.7522,88.938572 L1467.06025,88.938572 L1467.06025,461.235458 L1306.24721,622.059665 L933.93916,622.059665 L933.93916,622.059665 Z M942.267946,613.730878 L942.267946,253.211463 L1098.20265,97.2667711 L1458.73205,97.2667711 L1458.73205,457.786186 L1302.79735,613.730878 L942.267946,613.730878 L942.267946,613.730878 Z M950.595558,605.403267 L950.595558,256.660735 L1101.65192,105.594383 L1450.40327,105.594383 L1450.40327,454.337502 L1299.3469,605.403267 L950.595558,605.403267 L950.595558,605.403267 Z M958.924345,597.075068 L958.924345,260.110594 L1105.10354,113.923169 L1442.07683,113.923169 L1442.07683,450.887643 L1295.89763,597.075068 L958.924345,597.075068 L958.924345,597.075068 Z M967.251369,588.746281 L967.251369,263.559866 L1108.55223,122.250781 L1433.74804,122.250781 L1433.74804,447.438371 L1292.44719,588.746281 L967.251369,588.746281 L967.251369,588.746281 Z M975.580155,580.417494 L975.580155,267.009138 L1112.00209,130.579568 L1425.41926,130.579568 L1425.41926,443.988512 L1288.99733,580.417494 L975.580155,580.417494 L975.580155,580.417494 Z M983.908942,572.09047 L983.908942,270.458997 L1115.45195,138.907179 L1417.09106,138.907179 L1417.09106,440.53924 L1285.54747,572.09047 L983.908942,572.09047 L983.908942,572.09047 Z M992.237141,563.762271 L992.237141,273.908269 L1118.90181,147.235966 L1408.76345,147.235966 L1408.76345,437.089968 L1282.09761,563.762271 L992.237141,563.762271 L992.237141,563.762271 Z M1000.56475,555.433484 L1000.56475,277.358128 L1122.35166,155.563578 L1400.43525,155.563578 L1400.43525,433.639521 L1278.64775,555.433484 L1000.56475,555.433484 L1000.56475,555.433484 Z M1008.89354,547.105285 L1008.89354,280.8074 L1125.80211,163.891777 L1392.10646,163.891777 L1392.10646,430.189662 L1275.19789,547.105285 L1008.89354,547.105285 L1008.89354,547.105285 Z M1017.22174,538.778261 L1017.22174,284.25726 L1129.25138,172.220564 L1383.77826,172.220564 L1383.77826,426.741565 L1271.74862,538.778261 L1017.22174,538.778261 L1017.22174,538.778261 Z M1025.54876,530.450062 L1025.54876,287.705944 L1132.70183,180.547588 L1375.45065,180.547588 L1375.45065,423.291118 L1268.29817,530.450062 L1025.54876,530.450062 Z M1033.87755,522.120688 L1033.87755,291.156391 L1136.1511,188.876962 L1367.12186,188.876962 L1367.12186,419.841846 L1264.84831,522.120688 L1033.87755,522.120688 Z M1042.20634,513.791901 L1042.20634,294.605663 L1139.60155,197.204573 L1358.79425,197.204573 L1358.79425,416.391987 L1261.39963,513.791901 L1042.20634,513.791901 L1042.20634,513.791901 Z M1050.53395,505.464877 L1050.53395,298.055522 L1143.05023,205.53336 L1350.46605,205.53336 L1350.46605,412.943303 L1257.94918,505.464877 L1050.53395,505.464877 L1050.53395,505.464877 Z M1058.86215,497.136678 L1058.86215,301.504794 L1146.50068,213.860972 L1342.13844,213.860972 L1342.13844,409.492856 L1254.49991,497.136678 L1058.86215,497.136678 L1058.86215,497.136678 Z M1067.19035,488.808479 L1067.19035,304.954653 L1149.94995,222.189171 L1333.80907,222.189171 L1333.80907,406.043584 L1251.04946,488.808479 L1067.19035,488.808479 L1067.19035,488.808479 Z M1075.51913,480.480279 L1075.51913,308.403925 L1153.39981,230.51737 L1325.48145,230.51737 L1325.48145,402.593725 L1247.5996,480.480279 L1075.51913,480.480279 L1075.51913,480.480279 Z M1083.84674,472.152668 L1083.84674,311.853784 L1156.84967,238.844982 L1317.15267,238.844982 L1317.15267,399.14504 L1244.14974,472.152668 L1083.84674,472.152668 L1083.84674,472.152668 Z M1092.17494,463.823881 L1092.17494,315.303056 L1160.30012,247.173768 L1308.82447,247.173768 L1308.82447,395.695181 L1240.69988,463.823881 L1092.17494,463.823881 L1092.17494,463.823881 Z M1100.50314,455.495094 L1100.50314,318.75174 L1163.74939,255.501968 L1300.49744,255.501968 L1300.49744,392.245322 L1237.25002,455.495094 L1100.50314,455.495094 L1100.50314,455.495094 Z M1108.83134,447.167483 L1108.83134,322.202187 L1167.19984,263.830754 L1292.16866,263.830754 L1292.16866,388.795462 L1233.80016,447.167483 L1108.83134,447.167483 L1108.83134,447.167483 Z M1117.15895,438.839871 L1117.15895,325.651459 L1170.64911,272.158366 L1283.83987,272.158366 L1283.83987,385.346778 L1230.34972,438.839871 L1117.15895,438.839871 L1117.15895,438.839871 Z M1125.48715,430.511084 L1125.48715,329.100731 L1174.09956,280.486565 L1275.51167,280.486565 L1275.51167,381.896331 L1226.90044,430.511084 L1125.48715,430.511084 L1125.48715,430.511084 Z M1133.81594,422.182885 L1133.81594,332.55059 L1177.54942,288.814764 L1267.18406,288.814764 L1267.18406,378.447059 L1223.45058,422.182885 L1133.81594,422.182885 L1133.81594,422.182885 Z M1142.14414,413.854686 L1142.14414,336.00045 L1180.99927,297.142376 L1258.85586,297.142376 L1258.85586,374.996612 L1220.00073,413.854686 L1142.14414,413.854686 L1142.14414,413.854686 Z M1150.47234,405.527075 L1150.47234,339.449134 L1184.44796,305.471163 L1250.52649,305.471163 L1250.52649,371.549103 L1216.55087,405.527075 L1150.47234,405.527075 L1150.47234,405.527075 Z M1158.80112,397.198288 L1158.80112,342.899581 L1187.89841,313.798774 L1242.20005,313.798774 L1242.20005,368.099244 L1213.10218,397.198288 L1158.80112,397.198288 Z M1167.12874,388.870089 L1167.12874,346.348265 L1191.34827,322.128149 L1233.87068,322.128149 L1233.87068,364.648797 L1209.65115,388.870089 L1167.12874,388.870089 Z M1175.45694,380.541302 L1175.45694,349.798712 L1194.79812,330.454585 L1225.54306,330.454585 L1225.54306,361.200113 L1206.20129,380.541302 L1175.45694,380.541302 L1175.45694,380.541302 Z M1183.78455,372.214278 L1183.78455,353.247984 L1198.24798,338.783959 L1217.21428,338.783959 L1217.21428,357.750841 L1202.75143,372.214278 L1183.78455,372.214278 L1183.78455,372.214278 Z M1192.11333,356.697256 L1192.11333,363.886079 L1199.30157,363.886079 L1208.88667,354.300981 L1208.88667,347.112158 L1201.69784,347.112158 L1192.11333,356.697256 L1192.11333,356.697256 Z" id="raster"></path>
        </g>
    </g>
</svg>