<?xml version="1.0" encoding="UTF-8" standalone="no"?><svg xmlns="http://www.w3.org/2000/svg" height="2e3px" width="2400px" version="1.1" xmlns:xlink="http://www.w3.org/1999/xlink" viewBox="0 0 2400 2000"><title>bg-homepage</title><g fill-rule="evenodd" fill="none"><g stroke="#fff" stroke-width=".5"><path d="m-1298 2854v-3528.7l1468.2-1468.3h3528.8v3528.7l-1468.2 1468.3h-3528.8zm8.3-8.3v-3517l1463.4-1463.4h3517v3517l-1463.4 1463.4h-3517zm8.4-8.4v-3505.1l1458.4-1458.5h3505.2v3505.1l-1458.4 1458.5h-3505.2zm8.3-8.3v-3493.4l1453.6-1453.6h3493.4v3493.4l-1453.6 1453.6h-3493.4zm8.3-8.3v-3481.6l1448.7-1448.8h3481.7v3481.6l-1448.7 1448.8h-3481.7zm8.3-8.3v-3469.9l1443.9-1443.9h3469.9v3469.9l-1443.9 1443.9h-3469.9zm8.4-8.4v-3458l1438.9-1439h3458.1v3458l-1438.9 1439h-3458.1zm8.3-8.3v-3446.3l1434.1-1434.1h3446.3v3446.3l-1434.1 1434.1h-3446.3zm8.3-8.3v-3434.5l1429.2-1429.3h3434.6v3434.5l-1429.2 1429.3h-3434.6zm8.4-8.4v-3422.7l1424.3-1424.3h3422.7v3422.7l-1424.3 1424.3h-3422.7zm8.3-8.3v-3410.9l1419.4-1419.5h3411v3410.9l-1419.4 1419.5h-3411zm8.3-8.3v-3399.2l1414.6-1414.6h3399.2v3399.2l-1414.6 1414.6h-3399.2zm8.3-8.3v-3387.4l1409.7-1409.8h3387.5v3387.4l-1409.7 1409.8h-3387.5zm8.4-8.4v-3375.6l1404.8-1404.8h3375.6v3375.6l-1404.8 1404.8h-3375.6zm8.3-8.3v-3363.8l1399.9-1400h3363.9v3363.8l-1399.9 1400h-3363.9zm8.3-8.3v-3352.1l1395.1-1395.1h3352.1v3352.1l-1395.1 1395.1h-3352.1zm8.4-8.4v-3340.2l1390.1-1390.2h3340.3v3340.2l-1390.1 1390.2h-3340.3zm8.3-8.3v-3328.5l1385.3-1385.3h3328.5v3328.5l-1385.3 1385.3h-3328.5zm8.3-8.3v-3316.7l1380.4-1380.5h3316.8v3316.7l-1380.4 1380.5h-3316.8zm8.3-8.3v-3305l1375.6-1375.6h3305v3305l-1375.6 1375.6h-3305zm8.4-8.4v-3293.1l1370.6-1370.7h3293.2v3293.1l-1370.6 1370.7h-3293.2zm8.3-8.3v-3281.4l1365.8-1365.8h3281.4v3281.4l-1365.8 1365.8h-3281.4zm8.3-8.3v-3269.6l1360.9-1361h3269.7v3269.6l-1360.9 1361h-3269.7zm8.3-8.3v-3257.9l1356.1-1356.1h3257.9v3257.9l-1356.1 1356.1h-3257.9zm8.4-8.4v-3246l1351.1-1351.2h3246.1v3246l-1351.1 1351.2h-3246.1zm8.3-8.3v-3234.3l1346.3-1346.3h3234.3v3234.3l-1346.3 1346.3h-3234.3zm8.3-8.3v-3222.5l1341.4-1341.5h3222.6v3222.5l-1341.4 1341.5h-3222.6zm8.4-8.4v-3210.7l1336.5-1336.5h3210.7v3210.7l-1336.5 1336.5h-3210.7zm8.3-8.3v-3198.9l1331.6-1331.7h3199v3198.9l-1331.6 1331.7h-3199zm8.3-8.3v-3187.2l1326.8-1326.8h3187.2v3187.2l-1326.8 1326.8h-3187.2zm8.3-8.3v-3175.4l1321.9-1322h3175.5v3175.4l-1321.9 1322h-3175.5zm8.4-8.4v-3163.6l1317-1317h3163.6v3163.6l-1317 1317h-3163.6zm8.3-8.3v-3151.8l1312.1-1312.2h3151.9v3151.8l-1312.1 1312.2h-3151.9zm8.3-8.3v-3140.1l1307.3-1307.3h3140.1v3140.1l-1307.3 1307.3h-3140.1zm8.4-8.4v-3128.2l1302.3-1302.4h3128.3v3128.2l-1302.3 1302.4h-3128.3zm8.3-8.3v-3116.5l1297.5-1297.5h3116.5v3116.5l-1297.5 1297.5h-3116.5zm8.31-8.3v-3104.7l1292.6-1292.7h3104.8v3104.7l-1292.6 1292.7h-3104.8 0.01zm8.33-8.3v-3093l1287.7-1287.8h3093.1v3093l-1287.8 1287.8h-3093 0.04zm8.33-8.4v-3081.1l1282.8-1282.9h3081.2v3081.1l-1282.8 1282.9h-3081.2-0.03zm8.32-8.3v-3069.4l1278-1278h3069.4v3069.4l-1278 1278h-3069.4-0.01zm8.33-8.3v-3057.6l1273.1-1273.2h3057.7v3057.6l-1273.1 1273.2h-3057.7 0.02zm8.33-8.4v-3045.8l1268.2-1268.2h3045.8l0.1 3045.8-1268.2 1268.2h-3045.8-0.05zm8.33-8.3v-3034l1263.3-1263.4h3034.1v3034l-1263.3 1263.4h-3034.1-0.02zm8.33-8.3v-3022.3l1258.4-1258.5h3022.4v3022.3l-1258.5 1258.5h-3022.3 0.01zm8.33-8.3v-3010.5l1253.6-1253.7h3010.6v3010.5l-1253.6 1253.7h-3010.6 0.04zm8.32-8.4v-2998.7l1248.7-1248.7h2998.7v2998.7l-1248.7 1248.7h-2998.7-0.04zm8.33-8.3v-2986.9l1243.8-1243.9h2987v2986.9l-1243.8 1243.9h-2987-0.01zm8.33-8.3v-2975.2l1238.9-1239h2975.3v2975.2l-1239 1239h-2975.2zm8.33-8.3v-2963.4l1234-1234.2h2963.4v2963.4l-1234 1234.2h-2963.4zm8.33-8.4v-2951.6l1229.2-1229.2h2951.6v2951.6l-1229.2 1229.2h-2951.6-0.02zm8.33-8.3v-2939.8l1224.3-1224.4h2939.9v2939.8l-1224.3 1224.4h-2939.9 0.01zm8.33-8.3v-2928.1l1219.4-1219.5h2928.2v2928.1l-1219.5 1219.5h-2928.1 0.04zm8.32-8.4v-2916.2l1214.5-1214.6h2916.3v2916.2l-1214.5 1214.6h-2916.3-0.04zm8.33-8.3v-2904.5l1209.7-1209.7h2904.5v2904.5l-1209.7 1209.7h-2904.5-0.01zm8.33-8.3v-2892.7l1204.8-1204.9h2892.8v2892.7l-1204.8 1204.9h-2892.8 0.02zm8.33-8.3v-2881l1199.9-1200h2881v2881l-1200 1200h-2881 0.05zm8.33-8.4v-2869.1l1195-1195.1h2869.2v2869.1l-1195 1195.1h-2869.2-0.02zm8.33-8.3v-2857.4l1190.1-1190.2h2857.5v2857.4l-1190.2 1190.2h-2857.4 0.01zm8.32-8.3v-2845.6l1185.3-1185.4h2845.7v2845.6l-1185.3 1185.4h-2845.7 0.03zm8.33-8.4v-2833.8l1180.4-1180.4h2833.8v2833.8l-1180.3 1180.4h-2833.9-0.04zm8.33-8.3v-2822l1175.5-1175.6h2822.1v2822l-1175.5 1175.6h-2822.1-0.01zm8.33-8.3v-2810.3l1170.6-1170.7h2810.4v2810.3l-1170.6 1170.7h-2810.4 0.02zm8.33-8.3v-2798.5l1165.8-1165.9h2798.6l-0.1 2798.5-1165.8 1165.9h-2798.6 0.05zm8.32-8.4v-2786.7l1160.9-1160.9h2786.7v2786.7l-1160.8 1160.9h-2786.8zm8.33-8.3v-2774.9l1156-1156.1h2775v2774.9l-1156 1156.1h-2775zm8.33-8.3v-2763.2l1151.1-1151.2h2763.3v2763.2l-1151.1 1151.2h-2763.3 0.03zm8.33-8.4v-2751.3l1146.2-1146.3h2751.4v2751.3l-1146.2 1146.3h-2751.4-0.04zm8.33-8.3v-2739.6l1141.4-1141.4h2739.6v2739.6l-1141.3 1141.4h-2739.7-0.01zm8.33-8.3v-2727.8l1136.5-1136.6h2727.9v2727.8l-1136.5 1136.6h-2727.9 0.02zm8.32-8.3v-2716.1l1131.6-1131.7h2716.2v2716.1l-1131.6 1131.7h-2716.2 0.04zm8.33-8.4v-2704.2l1126.7-1126.8h2704.3v2704.2l-1126.7 1126.8h-2704.3-0.03zm8.33-8.3v-2692.5l1121.8-1121.9h2692.6v2692.5l-1121.8 1121.9h-2692.6zm8.33-8.3v-2680.8l1117-1117h2680.8v2680.7l-1117 1117.1h-2680.8 0.03zm8.33-8.4v-2668.9l1112.1-1112.1h2668.9v2668.9l-1112 1112.1h-2669-0.04zm8.32-8.3v-2657.2l1107.2-1107.2h2657.2v2657.1l-1107.2 1107.3h-2657.2-0.02zm8.33-8.3v-2645.4l1102.3-1102.4h2645.5v2645.4l-1102.3 1102.4h-2645.5 0.01zm8.33-8.3v-2633.6l1097.5-1097.6h2633.7v2633.6l-1097.5 1097.6h-2633.7 0.04zm8.33-8.4v-2621.8l1092.6-1092.6h2621.8v2621.8l-1092.5 1092.6h-2621.9-0.03zm8.33-8.3v-2610l1087.7-1087.8h2610.1v2610l-1087.7 1087.8h-2610.1zm8.33-8.3v-2598.3l1082.8-1082.9h2598.4v2598.3l-1082.8 1082.9h-2598.4zm8.32-8.4v-2586.4l1077.9-1078h2586.6l-0.1 2586.4-1077.9 1078h-2586.6zm8.33-8.3v-2574.7l1073.1-1073.1h2574.7v2574.7l-1073 1073.1h-2574.8-0.02zm8.33-8.3v-2563l1068.2-1068.2h2563v2562.9l-1068.2 1068.3h-2563 0.01zm8.33-8.3v-2551.2l1063.3-1063.4h2551.3v2551.2l-1063.3 1063.4h-2551.3 0.04zm8.33-8.4v-2539.4l1058.4-1058.4h2539.4v2539.3l-1058.4 1058.5h-2539.4-0.03zm8.32-8.3v-2527.6l1053.6-1053.6h2527.6v2527.6l-1053.5 1053.6h-2527.7-0.01zm8.33-8.3v-2515.8l1048.7-1048.8h2515.9v2515.8l-1048.7 1048.8h-2515.9 0.02zm8.33-8.4v-2504l1043.8-1043.9h2504.2l-0.1 2504.1-1043.8 1043.8h-2504.2 0.05zm8.33-8.3v-2492.2l1038.9-1039h2492.3v2492.2l-1038.9 1039h-2492.3-0.02zm8.33-8.3v-2480.5l1034-1034.1h2480.6v2480.5l-1034 1034.1h-2480.6 0.01zm8.32-8.3v-2468.8l1029.2-1029.2h2468.8v2468.7l-1029.2 1029.3h-2468.8 0.03zm8.33-8.4v-2456.9l1024.3-1024.3h2456.9v2456.9l-1024.2 1024.3h-2457-0.04zm8.33-8.3v-2445.2l1019.4-1019.4h2445.2v2445.2l-1019.4 1019.4h-2445.2-0.01zm8.33-8.3v-2433.4l1014.5-1014.6h2433.5v2433.4l-1014.5 1014.6h-2433.5 0.02zm8.33-8.3v-2421.6l1009.6-1009.8h2421.8v2421.7l-1009.7 1009.7h-2421.6-0.05zm8.32-8.4v-2409.8l1004.8-1004.8h2409.8v2409.8l-1004.7 1004.8h-2409.9zm8.33-8.3v-2398l999.89-1e3h2398.1v2398.1l-999.9 999.9h-2398.1zm8.33-8.3v-2386.3l995.01-995.1h2386.4v2386.3l-995 995.1h-2386.4 0.03zm8.33-8.4v-2374.4l990.13-990.2h2374.5v2374.5l-990.1 990.1h-2374.5-0.04zm8.33-8.3v-2362.7l985.25-985.3h2362.8v2362.7l-985.2 985.3h-2362.8-0.01zm8.33-8.3v-2351l980.37-980.4h2351v2351l-980.4 980.4h-2351 0.02zm8.32-8.3v-2339.2l975.5-975.6h2339.3v2339.2l-975.5 975.6h-2339.3 0.04zm8.33-8.4v-2327.4l970.62-970.6h2327.4v2327.4l-970.6 970.6h-2327.4-0.03zm8.33-8.3v-2315.6l965.74-965.8h2315.7v2315.6l-965.7 965.8h-2315.7zm8.33-8.3v-2303.9l960.86-960.9h2303.9v2303.9l-960.9 960.9h-2303.9 0.03zm8.33-8.4v-2292l955.98-956h2292.1v2292l-955.9 956h-2292.1-0.04zm8.33-8.3v-2280.3l951.09-951.1h2280.3v2280.3l-951.1 951.1h-2280.3-0.01zm8.32-8.3v-2268.5l946.22-946.3h2268.6v2268.5l-946.2 946.3h-2268.6 0.01zm8.33-8.3v-2256.8l941.34-941.4h2256.8v2256.8l-941.4 941.4h-2256.8 0.04zm8.33-8.4v-2244.9l936.46-936.5h2245v2244.9l-936.4 936.5h-2245-0.03zm8.33-8.3v-2233.2l931.58-931.6h2233.2v2233.2l-931.6 931.6h-2233.2zm8.33-8.3v-2221.4l926.7-926.8h2221.5v2221.4l-926.7 926.8h-2221.5zm8.33-8.4v-2209.6l921.82-921.8h2209.6v2209.6l-921.8 921.8h-2209.6zm8.32-8.3v-2197.8l916.95-917h2197.9v2197.8l-916.9 917h-2197.9-0.02zm8.33-8.3v-2186.1l912.07-912.1h2186.1v2186.1l-912.1 912.1h-2186.1 0.01zm8.33-8.3v-2174.3l907.19-907.3h2174.4v2174.3l-907.2 907.3h-2174.4 0.04zm8.33-8.4v-2162.5l902.31-902.3h2162.5v2162.5l-902.3 902.3h-2162.5-0.03zm8.33-8.3v-2150.7l897.43-897.5h2150.8v2150.7l-897.4 897.5h-2150.8zm8.32-8.3v-2139l892.56-892.6h2139v2139l-892.6 892.6h-2139 0.02zm8.33-8.4v-2127.1l887.68-887.7h2127.2v2127.1l-887.6 887.7h-2127.2-0.05zm8.33-8.3v-2115.4l882.8-882.8h2115.4v2115.4l-882.8 882.8h-2115.4-0.02zm8.33-8.3v-2103.6l877.92-878h2103.7v2103.6l-877.9 878h-2103.7 0.01zm8.33-8.3v-2091.9l873.04-873.1h2091.9v2091.9l-873.1 873.1h-2091.9 0.04zm8.32-8.4v-2080l868.17-868.2h2080.1v2080l-868.1 868.2h-2080.1-0.04zm8.33-8.3v-2068.3l863.29-863.3h2068.3v2068.3l-863.3 863.3h-2068.3-0.01zm8.33-8.3v-2056.5l858.41-858.5h2056.6v2056.5l-858.4 858.5h-2056.6 0.02zm8.33-8.4v-2044.7l853.53-853.6h2044.8v2044.8l-853.6 853.5h-2044.8 0.05zm8.33-8.3v-2032.9l848.65-848.7h2033v2032.9l-848.6 848.7h-2033zm8.32-8.3v-2021.2l843.78-843.8h2021.2v2021.2l-843.8 843.8h-2021.2zm8.33-8.3v-2009.4l838.9-839h2009.5v2009.4l-838.9 839h-2009.5 0.03zm8.33-8.4v-1997.6l834.02-834h1997.6v1997.6l-834 834h-1997.6-0.04zm8.33-8.3v-1985.8l829.14-829.2h1985.9v1985.8l-829.1 829.2h-1985.9-0.01zm8.33-8.3v-1974.1l824.26-824.3h1974.1v1974.1l-824.3 824.3h-1974.1 0.02zm8.32-8.3v-1962.3l819.39-819.5h1962.4v1962.3l-819.4 819.5h-1962.4 0.04zm8.33-8.4v-1950.5l814.51-814.5h1950.5v1950.5l-814.5 814.5h-1950.5-0.03zm8.33-8.3v-1938.7l809.63-809.7h1938.8v1938.7l-809.6 809.7h-1938.8zm8.33-8.3v-1927l804.75-804.8h1927v1927l-804.8 804.8h-1927 0.03zm8.33-8.4v-1915.1l799.87-799.9h1915.2v1915.1l-799.8 799.9h-1915.2-0.04zm8.33-8.3v-1903.4l794.99-795.02h1903.4v1903.4l-795 795.02h-1903.4-0.01zm8.32-8.3v-1891.6l790.12-790.19h1891.7v1891.6l-790.1 790.19h-1891.7 0.01zm8.33-8.3v-1879.9l785.24-785.26h1879.9v1879.8l-785.3 785.36h-1879.9 0.04zm8.33-8.4v-1868l780.36-780.43h1868.1v1868l-780.3 780.43h-1868.1-0.03zm8.33-8.3v-1856.3l775.48-775.5h1856.3v1856.3l-775.5 775.5h-1856.3zm8.32-8.3v-1844.5l770.61-770.68h1844.6v1844.5l-770.6 770.68h-1844.6zm8.333-8.4v-1832.7l765.73-765.75h1832.7v1832.7l-765.7 765.75h-1832.7zm8.328-8.3v-1820.9l760.85-760.92h1821v1820.9l-760.8 760.92h-1821-0.019zm8.328-8.3v-1809.2l755.97-755.99h1809.2v1809.2l-756 755.99h-1809.2 0.009zm8.329-8.3v-1797.4l751.09-751.16h1797.5v1797.4l-751.1 751.16h-1797.5 0.038zm8.328-8.4v-1785.6l746.21-746.24h1785.6v1785.6l-746.2 746.24h-1785.6-0.034zm8.327-8.3v-1773.8l741.34-741.41h1773.9v1773.8l-741.3 741.41h-1773.9-0.007zm8.329-8.3v-1762.1l736.46-736.48h1762.1v1762.1l-736.5 736.48h-1762.1 0.022zm8.328-8.4v-1750.2l731.58-731.65h1750.4v1750.3l-731.6 731.55h-1750.4 0.05zm8.328-8.3v-1738.5l726.7-726.72h1738.5v1738.5l-726.7 726.72h-1738.5-0.022zm8.329-8.3v-1726.7l721.82-721.89h1726.8v1726.7l-721.8 721.89h-1726.8 0.007zm8.327-8.3v-1715l716.95-716.97h1715v1715l-717 716.97h-1715 0.034zm8.3275-8.4v-1703.1l712.07-712.14h1703.2v1703.2l-712 712.04h-1703.2-0.0385zm8.3293-8.3v-1691.4l707.19-707.21h1691.4v1691.4l-707.2 707.21h-1691.4-0.0092zm8.3277-8.3v-1679.6l702.31-702.38h1679.7v1679.6l-702.3 702.38h-1679.7 0.0185zm8.3285-8.3v-1667.9l697.43-697.45h1667.9v1667.8l-697.5 697.55h-1667.9 0.047zm8.328-8.4v-1656l692.56-692.63h1656.1v1656.1l-692.5 692.53h-1656.1zm8.328-8.3v-1644.3l687.68-687.7h1644.3v1644.3l-687.7 687.7h-1644.3zm8.328-8.3v-1632.5l682.8-682.87h1632.6v1632.5l-682.8 682.87h-1632.6 0.031zm8.328-8.4v-1620.7l677.92-677.94h1620.7v1620.7l-677.9 677.94h-1620.7-0.041zm8.328-8.3v-1608.9l673.04-673.11h1609v1608.9l-673 673.11h-1609-0.013zm8.327-8.3v-1597.2l668.17-668.19h1597.2v1597.2l-668.2 668.19h-1597.2 0.014zm8.329-8.3v-1585.4l663.29-663.36h1585.5v1585.4l-663.3 663.36h-1585.5 0.043zm8.327-8.4v-1573.6l658.41-658.43h1573.6v1573.6l-658.4 658.43h-1573.6-0.03zm8.329-8.3v-1561.8l653.53-653.6h1561.9v1561.8l-653.5 653.6h-1561.9-0.001zm8.331-8.3v-1550.1l648.65-648.68h1550.1v1550.1l-648.7 648.68h-1550.1 0.03zm8.32-8.4v-1538.2l643.77-643.85h1538.3v1538.3l-643.7 643.75h-1538.4 0.05zm8.33-8.3v-1526.5l638.89-638.92h1526.5v1526.5l-638.9 638.92h-1526.5-0.02zm8.33-8.3v-1514.7l634.01-634.09h1514.8v1514.7l-634 634.09h-1514.8 0.01zm8.33-8.3v-1503l629.13-629.16h1503v1503l-629.2 629.16h-1503 0.04zm8.33-8.4v-1491.1l624.25-624.33h1491.2v1491.2l-624.2 624.23h-1491.2-0.03zm8.33-8.3v-1479.4l619.37-619.41h1479.4v1479.4l-619.4 619.41h-1479.4zm8.32-8.3v-1467.6l614.5-614.58h1467.7v1467.6l-614.5 614.58h-1467.7zm8.33-8.4v-1455.8l609.62-609.65h1455.8v1455.8l-609.6 609.65h-1455.8zm8.33-8.3v-1444l604.74-604.82h1444.1v1444.1l-604.7 604.72h-1444.1-0.02zm8.33-8.3v-1432.3l599.86-599.89h1432.3v1432.3l-599.9 599.89h-1432.3 0.01zm8.33-8.3v-1420.5l594.98-595.07h1420.6v1420.5l-595 595.07h-1420.6 0.04zm8.32-8.4v-1408.7l590.11-590.14h1408.7v1408.7l-590.1 590.14h-1408.7-0.04zm8.33-8.3v-1396.9l585.23-585.31h1397v1397l-585.2 585.21h-1397-0.01zm8.33-8.3v-1385.2l580.35-580.38h1385.2v1385.2l-580.4 580.38h-1385.2 0.02zm8.33-8.3v-1373.4l575.47-575.55h1373.5v1373.4l-575.5 575.55h-1373.4-0.05zm8.33-8.4v-1361.6l570.59-570.63h1361.6v1361.6l-570.6 570.63h-1361.6-0.02zm8.32-8.3v-1349.8l565.72-565.8h1349.9v1349.8l-565.7 565.8h-1349.9zm8.33-8.3v-1338.1l560.84-560.87h1338.1v1338.1l-560.9 560.87h-1338.1 0.03zm8.33-8.4v-1326.2l555.96-556.04h1326.3v1326.3l-555.9 555.94h-1326.3-0.04zm8.33-8.3v-1314.5l551.08-551.11h1314.5v1314.5l-551.1 551.11h-1314.5-0.01zm8.33-8.3v-1302.7l546.2-546.28h1302.8v1302.7l-546.2 546.28h-1302.8 0.02zm8.33-8.3v-1291l541.32-541.36h1291v1291l-541.4 541.36h-1291 0.05zm8.32-8.4v-1279.1l536.45-536.53h1279.2v1279.2l-536.4 536.43h-1279.2zm8.33-8.3v-1267.4l531.57-531.6h1267.4v1267.4l-531.6 531.6h-1267.4zm8.33-8.3v-1255.6l526.69-526.77h1255.7v1255.6l-526.7 526.77h-1255.7 0.03zm8.33-8.4v-1243.8l521.81-521.84h1243.8v1243.8l-521.8 521.84h-1243.8-0.04zm8.33-8.3v-1232.1l516.93-516.92h1232.1v1232.1l-516.9 516.92h-1232.1-0.01zm8.32-8.3v-1220.3l512.06-512.09h1220.3v1220.3l-512.1 512.09h-1220.3 0.01zm8.33-8.3v-1208.6l507.18-507.16h1208.6v1208.5l-507.2 507.26h-1208.6 0.04zm8.33-8.4v-1196.7l502.3-502.33h1196.7v1196.7l-502.3 502.33h-1196.7-0.03zm8.33-8.3v-1185l497.42-497.4h1185v1185l-497.4 497.4h-1185zm8.33-8.3v-1173.2l492.54-492.58h1173.2v1173.2l-492.6 492.58h-1173.2zm8.32-8.4v-1161.4l487.67-487.65h1161.4v1161.4l-487.6 487.65h-1161.4-0.05zm8.33-8.3v-1149.6l482.79-482.82h1149.6v1149.6l-482.8 482.82h-1149.6-0.02zm8.33-8.3v-1137.9l477.91-477.89h1137.9v1137.8l-477.9 477.99h-1137.9 0.01zm8.33-8.3v-1126.1l473.03-473.06h1126.1v1126.1l-473.1 473.06h-1126.1 0.04zm8.33-8.4v-1114.3l468.15-468.14h1114.3v1114.3l-468.1 468.14h-1114.3-0.03zm8.32-8.3v-1102.5l463.28-463.31h1102.5v1102.5l-463.3 463.31h-1102.5-0.01zm8.33-8.3v-1090.8l458.4-458.38h1090.8v1090.7l-458.4 458.48h-1090.8 0.02zm8.33-8.4v-1078.9l453.52-453.55h1078.9v1079l-453.5 453.45h-1079 0.05zm8.33-8.3v-1067.2l448.64-448.62h1067.2v1067.2l-448.6 448.62h-1067.2-0.02zm8.33-8.3v-1055.4l443.76-443.79h1055.4v1055.4l-443.8 443.79h-1055.4 0.01zm8.32-8.3v-1043.7l438.88-438.87h1043.7v1043.6l-438.9 438.97h-1043.7 0.03zm8.33-8.4v-1031.8l434-434.04h1031.8v1031.8l-434 434.04h-1031.8-0.04zm8.33-8.3v-1020.1l429.12-429.11h1020.1v1020.1l-429.1 429.11h-1020.1-0.01zm8.33-8.3v-1008.3l424.24-424.28h1008.3v1008.3l-424.3 424.28h-1008.3 0.02zm8.33-8.3v-996.56l419.36-419.39h996.59v996.51l-419.4 419.44h-996.55zm8.33-8.4v-984.71l414.48-414.52h984.74v984.74l-414.5 414.49h-984.72zm8.32-8.3v-972.96l409.61-409.64h972.99v972.96l-409.6 409.64h-973zm8.33-8.3v-961.21l404.73-404.76h961.24v961.18l-404.8 404.79h-961.17zm8.33-8.4v-949.36l399.85-399.88h949.39v949.4l-399.8 399.84h-949.44zm8.33-8.3v-937.62l394.97-394.99h937.64v937.62l-395 394.99h-937.61zm8.32-8.3v-925.86l390.1-390.13h925.89v925.85l-390.1 390.14h-925.89zm8.33-8.3v-914.12l385.22-385.24h914.14v914.07l-385.3 385.29h-914.06zm8.33-8.37v-902.3l380.34-380.36h902.29v902.3l-380.3 380.36h-902.33zm8.33-8.33v-890.52l375.46-375.48h890.54v890.52l-375.5 375.48h-890.5zm8.33-8.33v-878.74l370.58-370.6h878.79v878.74l-370.6 370.6h-878.77zm8.33-8.33v-866.96l365.7-365.72h866.94v866.96l-365.7 365.72h-866.94zm8.32-8.33v-855.18l360.83-360.85h855.19v855.19l-360.8 360.84h-855.22zm8.33-8.32v-843.41l355.95-355.97h843.44v843.41l-356 355.97h-843.39zm8.33-8.33v-831.63l351.07-351.09h831.69v831.63l-351.1 351.09h-831.66zm8.33-8.33v-819.85l346.19-346.21h819.84v819.85l-346.2 346.21h-819.83zm8.33-8.33v-808.07l341.31-341.33h808.09v808.07l-341.3 341.33h-808.1zm8.32-8.33v-796.29l336.44-336.46h796.34v796.3l-336.5 336.45h-796.28zm8.33-8.32v-784.52l331.56-331.58h784.49v784.52l-331.5 331.58h-784.55zm8.33-8.33v-772.74l326.68-326.7h772.74v772.74l-326.7 326.7h-772.72zm8.33-8.33v-760.96l321.8-321.82h760.99v760.96l-321.8 321.82h-760.99zm8.33-8.33v-749.18l316.92-316.94h749.24v749.18l-317 316.94h-749.16zm8.33-8.33v-737.4l312.04-312.07h737.39v737.41l-312 312.06h-737.43zm8.32-8.32v-725.63l307.17-307.19h725.64v725.63l-307.2 307.19h-725.61zm8.33-8.33v-713.85l302.29-302.31h713.89v713.85l-302.3 302.31h-713.88zm8.33-8.33v-702.07l297.41-297.43h702.04v702.07l-297.4 297.43h-702.05zm8.33-8.33v-690.3l292.52-292.54h690.3v690.29l-292.5 292.55h-690.32zm8.33-8.33v-678.52l287.69-287.66h678.5v678.51l-287.7 287.67h-678.49zm8.32-8.33v-666.74l282.77-282.79h666.8v666.74l-282.8 282.79h-666.77zm8.33-8.32v-654.97l277.94-277.91h654.9v654.97l-277.9 277.91h-654.94zm8.33-8.33v-643.19l273.01-273.03h643.2v643.19l-273 273.03h-643.21zm8.33-8.33v-631.41l268.18-268.15 631.4-0.001v631.41l-268.2 268.15h-631.38zm8.33-8.33v-619.63l263.25-263.27 619.7-0.003v619.63l-263.3 263.27h-619.65zm8.33-8.33v-607.85l258.42-258.4 607.8 0.005v607.86l-258.4 258.38h-607.82zm8.32-8.33v-596.07l253.5-253.52 596.1 0.003v596.08l-253.5 253.51h-596.1zm8.33-8.32v-584.3l248.67-248.64 584.3 0.001v584.3l-248.7 248.64h-584.27zm8.33-8.33v-572.52l243.74-243.76 572.5-0.001v572.52l-243.7 243.76h-572.54zm8.33-8.33v-560.74l238.91-238.88 560.7-0.003v560.74l-238.9 238.88h-560.71zm8.33-8.33v-548.96l233.98-234 549-0.004v548.96l-234 234h-548.98zm8.32-8.33v-537.18l229.16-229.13 537.2 0.004v537.19l-229.2 229.12h-537.16zm8.33-8.32v-525.41l224.23-224.25 525.4 0.002v525.41l-224.2 224.25h-525.43zm8.33-8.33v-513.63l219.4-219.37h513.6v513.63l-219.4 219.37h-513.6zm8.33-8.33v-501.85l214.47-214.49 501.9-0.0016v501.85l-214.5 214.49h-501.87zm8.33-8.33v-490.07l209.64-209.61 490-0.004v490.07l-209.6 209.61h-490.04zm8.33-8.33v-478.29l204.71-204.74 478.3 0.005v478.3l-204.7 204.73h-478.31zm8.32-8.33v-466.51l199.89-199.86 466.5 0.003v466.52l-199.9 199.85h-466.49zm8.33-8.32v-454.75l194.96-194.97 454.8 0.001v454.74l-195 194.98h-454.76zm8.33-8.33v-442.97l190.13-190.09 442.9-0.001v442.96l-190.1 190.1h-442.93zm8.33-8.33v-431.19l185.2-185.21 431.2-0.002v431.18l-185.2 185.22h-431.2zm8.33-8.33v-419.41l180.37-180.33 419.4-0.004v419.4l-180.4 180.34h-419.37zm8.32-8.33v-407.63l175.45-175.46 407.6 0.003v407.63l-175.4 175.46h-407.65zm8.33-8.32v-395.86l170.62-170.58 395.8 0.002v395.86l-170.6 170.58h-395.82zm8.33-8.33v-384.08l165.69-165.7h384.1v384.08l-165.7 165.7h-384.09zm8.33-8.33v-372.3l160.86-160.82 372.3-0.001v372.3l-160.9 160.82h-372.26zm8.33-8.33v-360.52l155.93-155.94 360.5-0.003v360.52l-155.9 155.94h-360.53zm8.33-8.33v-348.74l151.1-151.07h348.7v348.75l-151.1 151.06h-348.7zm8.32-8.32v-336.97l146.18-146.19h337v336.97l-146.2 146.19h-336.98zm8.33-8.33v-325.19l141.35-141.31h325.1v325.19l-141.3 141.31h-325.15zm8.33-8.33v-313.41l136.42-136.43h313.4v313.41l-136.4 136.43h-313.42zm8.33-8.33v-301.63l131.59-131.55h301.6v301.63l-131.6 131.55h-301.59zm8.33-8.33v-289.85l126.66-126.67h289.9v289.85l-126.7 126.67h-289.86zm8.36-8.33v-278.07l121.8-121.8h278v278.08l-121.8 121.79h-278zm8.3-8.32v-266.3l116.9-116.92h266.3v266.3l-116.9 116.92h-266.3zm8.3-8.33v-254.52l112.1-112.04h254.5v254.52l-112.1 112.04h-254.5zm8.3-8.33v-242.74l107.2-107.16h242.8v242.74l-107.2 107.16h-242.8zm8.4-8.33v-230.96l102.3-102.28h230.9v230.96l-102.3 102.28h-230.9zm8.3-8.33v-219.18l97.4-97.41h219.2v219.19l-97.4 97.4h-219.2zm8.3-8.33v-207.4l92.6-92.53h207.4v207.41l-92.6 92.52h-207.4zm8.4-8.32v-195.64l87.6-87.64h195.6v195.63l-87.6 87.65h-195.6zm8.3-8.33v-183.86l82.7-82.76h183.9v183.85l-82.8 82.77h-183.8zm8.3-8.33v-172.08l77.9-77.88h172.1v172.07l-77.9 77.89h-172.1zm8.3-8.33v-160.3l73-73.01h160.4v160.31l-73.1 73h-160.3zm8.4-8.33v-148.52l68.1-68.13h148.5v148.53l-68.1 68.12h-148.5zm8.3-8.32v-136.75l63.2-63.25h136.8v136.75l-63.2 63.25h-136.8zm8.3-8.33v-124.97l58.4-58.37h125v124.97l-58.4 58.37h-125zm8.4-8.33v-113.19l53.4-53.49h113.2v113.19l-53.5 53.49h-113.1zm8.3-8.33v-101.41l48.6-48.61h101.4v101.41l-48.6 48.61h-101.4zm8.3-8.33v-89.63l43.7-43.74h89.7v89.64l-43.7 43.73h-89.7zm8.3-8.33v-77.85l38.9-38.86h77.9v77.86l-38.9 38.85h-77.9zm8.4-8.32v-66.08l33.9-33.98h66.1v66.08l-33.9 33.98h-66.1zm8.3-8.33v-54.3l29.1-29.1h54.3v54.3l-29.1 29.1h-54.3zm8.3-8.33v-42.52l24.2-24.22h42.6v42.52l-24.2 24.22h-42.6zm8.4-8.33v-30.74l19.3-19.35h30.7v30.75l-19.3 19.34h-30.7zm8.3-8.33v-18.96l14.4-14.47h19v18.97l-14.4 14.46h-19zm8.3-15.51v7.19h7.2l9.6-9.59v-7.19h-7.2l-9.6 9.59z"/></g></g></svg>