<?xml version="1.0" encoding="UTF-8" standalone="no"?>
<svg width="12px" height="12px" viewBox="0 0 12 12" version="1.1" xmlns="http://www.w3.org/2000/svg" xmlns:xlink="http://www.w3.org/1999/xlink" xmlns:sketch="http://www.bohemiancoding.com/sketch/ns">
    <!-- Generator: Sketch 3.5.1 (25234) - http://www.bohemiancoding.com/sketch -->
    <title>edit</title>
    <desc>Created with Sketch.</desc>
    <defs></defs>
    <g id="Page-1" stroke="none" stroke-width="1" fill="none" fill-rule="evenodd" sketch:type="MSPage">
        <g id="jury" sketch:type="MSArtboardGroup" transform="translate(-1191.000000, -217.000000)" fill="#0C0C0C">
            <g id="list_item" sketch:type="MSLayerGroup" transform="translate(150.000000, 197.000000)">
                <g id="pencil" transform="translate(1041.000000, 20.000000)" sketch:type="MSShapeGroup">
                    <path d="M2.87524752,10.9861386 L3.5960396,10.2653465 L1.73465347,8.4039604 L1.01386139,9.12475248 L1.01386139,9.97227723 L2.02772277,9.97227723 L2.02772277,10.9861386 L2.87524752,10.9861386 L2.87524752,10.9861386 Z M7.01782178,3.63564356 C7.01782178,3.51947195 6.95973597,3.46138614 6.84356436,3.46138614 C6.79075908,3.46138614 6.74587459,3.47986799 6.70891089,3.51683168 L2.41584158,7.80990099 C2.37887789,7.84686469 2.36039604,7.89174917 2.36039604,7.94455446 C2.36039604,8.06072607 2.41848185,8.11881188 2.53465347,8.11881188 C2.58745875,8.11881188 2.63234323,8.10033003 2.66930693,8.06336634 L6.96237624,3.77029703 C6.99933993,3.73333333 7.01782178,3.68844884 7.01782178,3.63564356 L7.01782178,3.63564356 Z M6.59009901,2.11485149 L9.88514851,5.40990099 L3.2950495,12 L0,12 L0,8.7049505 L6.59009901,2.11485149 Z M12,2.87524752 C12,3.15511551 11.9023102,3.39273927 11.7069307,3.58811881 L10.3920792,4.9029703 L7.0970297,1.60792079 L8.41188119,0.300990099 C8.6019802,0.100330033 8.83960396,0 9.12475248,0 C9.40462046,0 9.64488449,0.100330033 9.84554455,0.300990099 L11.7069307,2.15445545 C11.9023102,2.36039604 12,2.60066007 12,2.87524752 L12,2.87524752 Z" id="edit"></path>
                </g>
            </g>
        </g>
    </g>
</svg>