<?xml version="1.0" encoding="utf-8"?><svg version="1.1" baseProfile="basic" xmlns="http://www.w3.org/2000/svg" xmlns:xlink="http://www.w3.org/1999/xlink" x="0px" y="0px" width="380px" height="380px" viewBox="0 0 380 380" xml:space="preserve"><g fill="#FFFFFF"><path d="M109.5,297.3c5.9,9.3,23.6,37.8-3.6,65c-26.6,26.6-60.2,11-79.3-8c-22.9-22.9-30.7-56.2-6.1-80.8
		c27.3-27.3,53.6-9.2,61.4-3.7l-14.1,18.5c-12.6-9.5-23.1-8.1-31.1-0.2c-10.7,10.7-5.8,22.7-2.7,28.9c3.7,7.5,9.5,14.3,13.4,18.2
		c3.4,3.4,26.3,26.3,43.4,9.2c9-9,7.6-20.5,0.5-32.4L109.5,297.3z"/><path d="M196.4,219.8c12.6,24.4,5.4,46.5-11,63c-27.7,27.7-60.8,16.3-81.8-4.8c-24.6-24.6-29-58.6-4.4-83.2
		c27.2-27.2,59.7-16.6,83.5,8.1l-57.4,57.4c5.4,5.8,11.9,12.6,23.2,14.4c8.8,1.7,16.5-1.2,23.3-8c13.4-13.4,8-26,5.3-32.4
		L196.4,219.8z M150.7,210.5c-4.4-4.1-8.7-7.6-17.1-9c-7.8-1-15.4,0.8-21.9,7.3c-6.4,6.4-8.8,14.3-7,23.3c1.4,7.1,4.4,11.2,8.3,16.1
		L150.7,210.5z"/><path d="M234.9,229.9L121.7,116.7l18.8-18.8L253.7,211L234.9,229.9z"/><path d="M270.7,194.1L157.5,80.9L176.4,62l113.2,113.2L270.7,194.1z"/><path d="M375.7,89.1L358,106.8l-18-18c2.9,5.9,5.8,12.2,4.8,22.4c-0.5,5.3-2.4,14.6-11.4,23.6
		c-7.6,7.6-18.5,13.1-30.7,10.4c-8.8-2-13.2-4.8-20.9-12.4l-58.5-58.5l19.3-19.3l53.1,53.1c9,9,19,13.2,27.8,4.4
		c6.1-6.1,9.2-18.3,4.8-28.2c-3.1-6.8-7-11.7-14.9-19.7l-40.2-40.2L292,5.4L375.7,89.1z"/></g></svg>