<?xml version="1.0" encoding="utf-8"?>
<!DOCTYPE svg PUBLIC "-//W3C//DTD SVG 1.1 Basic//EN" "http://www.w3.org/Graphics/SVG/1.1/DTD/svg11-basic.dtd">
<svg version="1.1" baseProfile="basic"
	 xmlns="http://www.w3.org/2000/svg" xmlns:xlink="http://www.w3.org/1999/xlink" x="0px" y="0px" width="380px" height="380px"
	 viewBox="0 0 380 380" xml:space="preserve">
<g fill="#FFFFFF">
	<path d="M129.9,377.6L16.7,264.4l18.8-18.8l113.2,113.2L129.9,377.6z"/>
	<path d="M89.9,228.6l9.5,35l-6.1,6.1l-13.1-31.4l-9.2,9.2l-18.7-18.7L71.2,210L89.9,228.6z"/>
	<path d="M245.3,228.3c8,8,15.8,12.4,19.5,14.4l-18,18c-9-4.6-12.7-7.6-20-13.9c3.4,8.5,10.4,27-9.7,47
		c-18,18-39.7,15.6-53.5,1.9c-28.2-28.2,9-67,27.3-84.7l-6.3-6.3c-10.7-10.7-22.2-3.6-30.7,4.9c-16.6,16.6-9.5,27.8-6.6,32.4
		l-18.5,13.7c-15.6-22.1-3.1-44.8,13.9-61.8c9.2-9.2,20.9-18.5,31.6-19.3c16.1-1.2,22.7,5.4,33.3,16L245.3,228.3z M201.2,221.2
		C189.3,233,183.7,242,181,246.8c-2.5,4.9-9.7,17.8,1,28.5c3.1,3.1,13.9,11.2,27.3-2.2c18.5-18.5,6.1-37.7-0.5-44.3L201.2,221.2z"/>
	<path d="M194.2,146l17-17l20,20c-4.1-8.1-15.4-31.1,3.2-48l20.4,20.4c-4.4,4.4-11.5,11.2-10.7,24.3
		c0.5,7,5.8,18.3,18.7,31.2l33.9,33.9l-18.8,18.8L194.2,146z"/>
	<path d="M377.9,129.7c-3.2,5.3-8,11.4-11.5,14.9c-6.3,6.3-16.3,11.9-24.4,11.2c-10.9-0.7-17-5.4-26.5-14.9
		l-43.3-43.3L261.8,108L247,93.2l11.5-11.5l-20-23.4l14.1-16.8l23.1,23.1l16.8-16.8l14.8,14.8l-16.8,16.8l40.7,40.7
		c11.5,11.5,17.7,9.5,27.3-0.2c1.5-1.5,2.7-2.7,4.6-4.9L377.9,129.7z"/>
</g>
</svg>
