<svg xmlns="http://www.w3.org/2000/svg" xmlns:xlink="http://www.w3.org/1999/xlink" width="144" height="144" viewBox="0 0 144 144" version="1.1"><title>logo-red-white</title><defs><path id="path-1" d="M143.6 0.7L82 0.7 0 82.3 0 143.5 61.5 143.5 143.6 61.9 143.6 0.7"/></defs><g fill-rule="evenodd"><mask id="mask-2" fill="white"><use xlink:href="#path-1"/></mask><use fill="#1181a2" xlink:href="#path-1"/><path d="M21.1 69.7C21 67.6 20.8 65.2 18.8 65.2 17.9 65.2 17.4 65.5 17 66.5 16.5 68 16.5 71.1 16.5 72.3 16.5 73.9 16.5 76.4 17 77.7 17.3 78.5 17.8 78.9 18.7 78.9 20.3 78.9 20.8 78 21.1 74.8L24.7 75.1C24.6 76.9 24.2 82.6 18.6 82.6 14 82.6 12 78.8 12 72.1 12 68.1 12.9 61.5 18.7 61.5 24.2 61.5 24.6 66.7 24.8 69.4L21.1 69.7M30.8 70.1L35.8 70.1 35.8 73.6 30.8 73.6 30.8 78.7 37.3 78.7 37.3 82.3 26.6 82.3 26.6 61.8 37.3 61.8 37.3 65.4 30.8 65.4 30.8 70.1M39.2 61.8L43.4 61.8 43.4 78.5 48.6 78.5 48.6 82.3 39.2 82.3 39.2 61.8M50.1 61.8L54.3 61.8 54.3 78.5 59.5 78.5 59.5 82.3 50.1 82.3 50.1 61.8M65 61.8L65 74.8C65 77.4 65.2 78.8 67.1 78.8 69.1 78.8 69.1 77 69.1 74.6L69.1 61.8 72.7 61.8 72.7 74.6C72.7 78.2 72.5 82.6 66.8 82.6 62.1 82.6 60.8 80.2 60.8 75L60.8 61.8 65 61.8M82.2 61.8L86.4 61.8 86.4 78.5 91.6 78.5 91.6 82.3 82.2 82.3 82.2 61.8M94.5 61.8L94.5 66.3 92.6 70.3 90.8 70.3 92.2 66.3 90.8 66.3 90.8 61.8 94.5 61.8M103.3 61.8L108 82.3 103.7 82.3 102.9 77.8 98.8 77.8 98 82.3 94.2 82.3 99 61.8 103.3 61.8 103.3 61.8ZM102.4 74.5L101.3 69.1C101.1 68.3 101 67.5 100.9 65.6 100.7 66.5 100.6 67.6 100.4 68.9L99.3 74.5 102.4 74.5 102.4 74.5ZM109.3 61.8L114.6 61.8C116.8 61.8 118.1 61.9 119.1 62.9 121.1 64.7 121.1 67.1 121.1 67.9 121.1 71.7 119.3 72.8 118.4 73.4L121.5 82.3 117.1 82.3 114.7 74.2 113.4 74.2 113.4 82.3 109.3 82.3 109.3 61.8 109.3 61.8ZM113.4 70.9L114.6 70.9C116.2 70.9 116.9 69.8 116.9 67.9 116.9 65.7 115.9 65 114.6 65L113.4 65 113.4 70.9 113.4 70.9ZM129.6 82.3L125.4 82.3 125.4 65.7 122.1 65.7 122.1 61.8 133.1 61.8 133.1 65.7 129.6 65.7 129.6 82.3" id="Fill-23" fill="#FFFFFF" mask="url(#mask-2)"/></g></svg>